TwilioSansMono-BoldItalic.ufo
<glyph name="exclam" format="2">
	<unicode hex="0021"/>
	<advance width="600"/>
	<outline>
		<contour>
			<point x="242" y="230" type="line"/>
			<point x="348" y="230" type="line"/>
			<point x="421" y="559" type="line"/>
			<point x="439" y="684" type="line"/>
			<point x="278" y="684" type="line"/>
			<point x="260" y="559" type="line"/>
		</contour>
		<contour>
			<point x="268" y="-12" type="curve" smooth="yes"/>
			<point x="330" y="-12"/>
			<point x="360" y="11"/>
			<point x="367" y="65" type="curve" smooth="yes"/>
			<point x="377" y="129"/>
			<point x="344" y="157"/>
			<point x="280" y="157" type="curve" smooth="yes"/>
			<point x="218" y="157"/>
			<point x="188" y="134"/>
			<point x="180" y="81" type="curve" smooth="yes"/>
			<point x="171" y="16"/>
			<point x="204" y="-12"/>
		</contour>
	</outline>
</glyph>
<glyph name="numbersign" format="2">
	<unicode hex="0023"/>
	<advance width="600"/>
	<outline>
		<contour>
			<point x="23" y="266" type="line"/>
			<point x="8" y="157" type="line"/>
			<point x="99" y="157" type="line"/>
			<point x="62" y="0" type="line"/>
			<point x="175" y="0" type="line"/>
			<point x="212" y="157" type="line"/>
			<point x="323" y="157" type="line"/>
			<point x="286" y="0" type="line"/>
			<point x="399" y="0" type="line"/>
			<point x="436" y="157" type="line"/>
			<point x="539" y="157" type="line"/>
			<point x="554" y="266" type="line"/>
			<point x="462" y="266" type="line"/>
			<point x="500" y="425" type="line"/>
			<point x="601" y="425" type="line"/>
			<point x="615" y="535" type="line"/>
			<point x="526" y="535" type="line"/>
			<point x="561" y="684" type="line"/>
			<point x="447" y="684" type="line"/>
			<point x="412" y="535" type="line"/>
			<point x="301" y="535" type="line"/>
			<point x="336" y="684" type="line"/>
			<point x="224" y="684" type="line"/>
			<point x="189" y="535" type="line"/>
			<point x="85" y="535" type="line"/>
			<point x="70" y="425" type="line"/>
			<point x="163" y="425" type="line"/>
			<point x="125" y="266" type="line"/>
		</contour>
		<contour>
			<point x="238" y="266" type="line"/>
			<point x="275" y="425" type="line"/>
			<point x="386" y="425" type="line"/>
			<point x="349" y="266" type="line"/>
		</contour>
	</outline>
</glyph>
<glyph name="dollar" format="2">
	<unicode hex="0024"/>
	<advance width="600"/>
	<outline>
		<contour>
			<point x="123" y="-93" type="line"/>
			<point x="226" y="-93" type="line"/>
			<point x="251" y="-10" type="line"/>
			<point x="261" y="-11"/>
			<point x="270" y="-11"/>
			<point x="280" y="-11" type="curve" smooth="yes"/>
			<point x="444" y="-11"/>
			<point x="550" y="79"/>
			<point x="550" y="228" type="curve" smooth="yes"/>
			<point x="550" y="335"/>
			<point x="488" y="371"/>
			<point x="373" y="401" type="curve"/>
			<point x="425" y="570" type="line"/>
			<point x="481" y="558"/>
			<point x="536" y="537"/>
			<point x="574" y="508" type="curve"/>
			<point x="591" y="631" type="line"/>
			<point x="562" y="650"/>
			<point x="519" y="668"/>
			<point x="468" y="680" type="curve"/>
			<point x="497" y="774" type="line"/>
			<point x="394" y="774" type="line"/>
			<point x="369" y="694" type="line"/>
			<point x="361" y="695"/>
			<point x="352" y="695"/>
			<point x="343" y="695" type="curve" smooth="yes"/>
			<point x="172" y="695"/>
			<point x="76" y="605"/>
			<point x="76" y="463" type="curve" smooth="yes"/>
			<point x="76" y="348"/>
			<point x="149" y="311"/>
			<point x="248" y="286" type="curve"/>
			<point x="197" y="120" type="line"/>
			<point x="146" y="133"/>
			<point x="92" y="157"/>
			<point x="47" y="194" type="curve"/>
			<point x="29" y="66" type="line"/>
			<point x="60" y="42"/>
			<point x="103" y="21"/>
			<point x="153" y="7" type="curve"/>
		</contour>
		<contour>
			<point x="220" y="492" type="curve" smooth="yes"/>
			<point x="220" y="549"/>
			<point x="262" y="579"/>
			<point x="340" y="579" type="curve" smooth="yes"/>
			<point x="291" y="422" type="line"/>
			<point x="241" y="436"/>
			<point x="220" y="452"/>
		</contour>
		<contour>
			<point x="406" y="196" type="curve" smooth="yes"/>
			<point x="406" y="137"/>
			<point x="359" y="108"/>
			<point x="285" y="108" type="curve" smooth="yes"/>
			<point x="282" y="108" type="line"/>
			<point x="331" y="268" type="line"/>
			<point x="380" y="255"/>
			<point x="406" y="240"/>
		</contour>
	</outline>
</glyph>
<glyph name="percent" format="2">
	<unicode hex="0025"/>
	<advance width="600"/>
	<outline>
		<contour>
			<point x="187" y="338" type="curve" smooth="yes"/>
			<point x="275" y="338"/>
			<point x="337" y="395"/>
			<point x="352" y="510" type="curve" smooth="yes"/>
			<point x="367" y="620"/>
			<point x="324" y="696"/>
			<point x="220" y="696" type="curve" smooth="yes"/>
			<point x="130" y="696"/>
			<point x="70" y="635"/>
			<point x="55" y="524" type="curve" smooth="yes"/>
			<point x="39" y="407"/>
			<point x="89" y="338"/>
		</contour>
		<contour>
			<point x="390" y="411" type="line"/>
			<point x="504" y="411" type="line"/>
			<point x="638" y="684" type="line"/>
			<point x="502" y="684" type="line"/>
		</contour>
		<contour>
			<point x="190" y="412" type="curve" smooth="yes"/>
			<point x="151" y="412"/>
			<point x="143" y="447"/>
			<point x="153" y="520" type="curve" smooth="yes"/>
			<point x="163" y="595"/>
			<point x="181" y="622"/>
			<point x="216" y="622" type="curve" smooth="yes"/>
			<point x="257" y="622"/>
			<point x="264" y="585"/>
			<point x="254" y="514" type="curve" smooth="yes"/>
			<point x="244" y="440"/>
			<point x="227" y="412"/>
		</contour>
		<contour>
			<point x="403" y="-12" type="curve" smooth="yes"/>
			<point x="491" y="-12"/>
			<point x="553" y="45"/>
			<point x="568" y="160" type="curve" smooth="yes"/>
			<point x="583" y="270"/>
			<point x="539" y="346"/>
			<point x="436" y="346" type="curve" smooth="yes"/>
			<point x="346" y="346"/>
			<point x="285" y="285"/>
			<point x="271" y="174" type="curve" smooth="yes"/>
			<point x="255" y="57"/>
			<point x="305" y="-12"/>
		</contour>
		<contour>
			<point x="-16" y="0" type="line"/>
			<point x="121" y="0" type="line"/>
			<point x="234" y="273" type="line"/>
			<point x="118" y="273" type="line"/>
		</contour>
		<contour>
			<point x="406" y="62" type="curve" smooth="yes"/>
			<point x="367" y="62"/>
			<point x="359" y="97"/>
			<point x="368" y="170" type="curve" smooth="yes"/>
			<point x="378" y="245"/>
			<point x="396" y="272"/>
			<point x="431" y="272" type="curve" smooth="yes"/>
			<point x="472" y="272"/>
			<point x="479" y="235"/>
			<point x="470" y="164" type="curve" smooth="yes"/>
			<point x="460" y="90"/>
			<point x="442" y="62"/>
		</contour>
	</outline>
</glyph>
<glyph name="ampersand" format="2">
	<unicode hex="0026"/>
	<advance width="600"/>
	<outline>
		<contour>
			<point x="208" y="-14" type="curve" smooth="yes"/>
			<point x="274" y="-14"/>
			<point x="333" y="5"/>
			<point x="383" y="40" type="curve"/>
			<point x="410" y="0" type="line"/>
			<point x="575" y="0" type="line"/>
			<point x="481" y="139" type="line"/>
			<point x="531" y="209"/>
			<point x="568" y="299"/>
			<point x="593" y="404" type="curve"/>
			<point x="466" y="404" type="line"/>
			<point x="450" y="342"/>
			<point x="432" y="288"/>
			<point x="410" y="244" type="curve"/>
			<point x="311" y="391" type="line" smooth="yes"/>
			<point x="287" y="427"/>
			<point x="271" y="453"/>
			<point x="271" y="489" type="curve" smooth="yes"/>
			<point x="271" y="546"/>
			<point x="307" y="581"/>
			<point x="372" y="581" type="curve" smooth="yes"/>
			<point x="423" y="581"/>
			<point x="480" y="560"/>
			<point x="525" y="530" type="curve"/>
			<point x="542" y="653" type="line"/>
			<point x="500" y="676"/>
			<point x="435" y="698"/>
			<point x="363" y="698" type="curve" smooth="yes"/>
			<point x="209" y="698"/>
			<point x="131" y="599"/>
			<point x="131" y="484" type="curve" smooth="yes"/>
			<point x="131" y="454"/>
			<point x="137" y="428"/>
			<point x="148" y="404" type="curve"/>
			<point x="60" y="356"/>
			<point x="0" y="279"/>
			<point x="0" y="178" type="curve" smooth="yes"/>
			<point x="0" y="63"/>
			<point x="74" y="-14"/>
		</contour>
		<contour>
			<point x="134" y="200" type="curve" smooth="yes"/>
			<point x="134" y="252"/>
			<point x="164" y="289"/>
			<point x="204" y="309" type="curve"/>
			<point x="323" y="130" type="line"/>
			<point x="297" y="111"/>
			<point x="268" y="101"/>
			<point x="237" y="101" type="curve" smooth="yes"/>
			<point x="174" y="101"/>
			<point x="135" y="138"/>
		</contour>
	</outline>
</glyph>
<glyph name="quotesingle" format="2">
	<unicode hex="0027"/>
	<advance width="600"/>
	<outline>
		<contour>
			<point x="280" y="475" type="line"/>
			<point x="379" y="475" type="line"/>
			<point x="448" y="750" type="line"/>
			<point x="290" y="750" type="line"/>
		</contour>
	</outline>
</glyph>
<glyph name="parenright" format="2">
	<unicode hex="0029"/>
	<advance width="600"/>
	<outline>
		<contour>
			<point x="43" y="-47" type="curve"/>
			<point x="69" y="-169" type="line"/>
			<point x="321" y="-107"/>
			<point x="428" y="55"/>
			<point x="459" y="281" type="curve" smooth="yes"/>
			<point x="493" y="526"/>
			<point x="418" y="706"/>
			<point x="205" y="798" type="curve"/>
			<point x="147" y="678" type="line"/>
			<point x="317" y="607"/>
			<point x="350" y="467"/>
			<point x="325" y="291" type="curve" smooth="yes"/>
			<point x="300" y="113"/>
			<point x="224" y="0"/>
		</contour>
	</outline>
</glyph>
<glyph name="comma" format="2">
	<unicode hex="002C"/>
	<advance width="600"/>
	<outline>
		<contour>
			<point x="219" y="169" type="line"/>
			<point x="123" y="-175" type="line"/>
			<point x="229" y="-175" type="line"/>
			<point x="410" y="169" type="line"/>
		</contour>
	</outline>
</glyph>
<glyph name="zero" format="2">
	<unicode hex="0030"/>
	<advance width="600"/>
	<outline>
		<contour>
			<point x="282" y="-14" type="curve" smooth="yes"/>
			<point x="444" y="-14"/>
			<point x="535" y="110"/>
			<point x="563" y="304" type="curve" smooth="yes"/>
			<point x="565" y="318" type="line" smooth="yes"/>
			<point x="600" y="562"/>
			<point x="524" y="698"/>
			<point x="341" y="698" type="curve" smooth="yes"/>
			<point x="180" y="698"/>
			<point x="88" y="574"/>
			<point x="60" y="379" type="curve" smooth="yes"/>
			<point x="58" y="365" type="line" smooth="yes"/>
			<point x="23" y="122"/>
			<point x="99" y="-14"/>
		</contour>
		<contour>
			<point x="290" y="107" type="curve" smooth="yes"/>
			<point x="196" y="107"/>
			<point x="169" y="188"/>
			<point x="192" y="351" type="curve" smooth="yes"/>
			<point x="193" y="358" type="line" smooth="yes"/>
			<point x="214" y="503"/>
			<point x="256" y="577"/>
			<point x="334" y="577" type="curve" smooth="yes"/>
			<point x="427" y="577"/>
			<point x="454" y="497"/>
			<point x="431" y="335" type="curve" smooth="yes"/>
			<point x="430" y="328" type="line" smooth="yes"/>
			<point x="409" y="182"/>
			<point x="369" y="107"/>
		</contour>
		<contour>
			<point x="305" y="258" type="curve" smooth="yes"/>
			<point x="347" y="258"/>
			<point x="370" y="281"/>
			<point x="377" y="337" type="curve" smooth="yes"/>
			<point x="387" y="402"/>
			<point x="362" y="427"/>
			<point x="318" y="427" type="curve" smooth="yes"/>
			<point x="275" y="427"/>
			<point x="254" y="403"/>
			<point x="246" y="350" type="curve" smooth="yes"/>
			<point x="237" y="283"/>
			<point x="261" y="258"/>
		</contour>
	</outline>
</glyph>
<glyph name="six" format="2">
	<unicode hex="0036"/>
	<advance width="600"/>
	<outline>
		<contour>
			<point x="288" y="-14" type="curve" smooth="yes"/>
			<point x="450" y="-14"/>
			<point x="555" y="95"/>
			<point x="555" y="275" type="curve" smooth="yes"/>
			<point x="555" y="385"/>
			<point x="496" y="452"/>
			<point x="386" y="452" type="curve" smooth="yes"/>
			<point x="314" y="452"/>
			<point x="256" y="419"/>
			<point x="209" y="344" type="curve"/>
			<point x="235" y="505"/>
			<point x="280" y="578"/>
			<point x="393" y="578" type="curve" smooth="yes"/>
			<point x="466" y="578"/>
			<point x="533" y="553"/>
			<point x="577" y="522" type="curve"/>
			<point x="594" y="643" type="line"/>
			<point x="553" y="671"/>
			<point x="476" y="698"/>
			<point x="377" y="698" type="curve" smooth="yes"/>
			<point x="162" y="698"/>
			<point x="81" y="551"/>
			<point x="54" y="361" type="curve" smooth="yes"/>
			<point x="52" y="347" type="line" smooth="yes"/>
			<point x="20" y="127"/>
			<point x="71" y="-14"/>
		</contour>
		<contour>
			<point x="293" y="103" type="curve" smooth="yes"/>
			<point x="232" y="103"/>
			<point x="195" y="140"/>
			<point x="195" y="208" type="curve" smooth="yes"/>
			<point x="195" y="296"/>
			<point x="238" y="348"/>
			<point x="309" y="348" type="curve" smooth="yes"/>
			<point x="370" y="348"/>
			<point x="405" y="316"/>
			<point x="405" y="248" type="curve" smooth="yes"/>
			<point x="405" y="158"/>
			<point x="364" y="103"/>
		</contour>
	</outline>
</glyph>
<glyph name="eight" format="2">
	<unicode hex="0038"/>
	<advance width="600"/>
	<outline>
		<contour>
			<point x="278" y="-14" type="curve" smooth="yes"/>
			<point x="461" y="-14"/>
			<point x="551" y="73"/>
			<point x="551" y="199" type="curve" smooth="yes"/>
			<point x="551" y="279"/>
			<point x="510" y="325"/>
			<point x="426" y="345" type="curve"/>
			<point x="518" y="363"/>
			<point x="586" y="426"/>
			<point x="586" y="529" type="curve" smooth="yes"/>
			<point x="586" y="637"/>
			<point x="498" y="698"/>
			<point x="346" y="698" type="curve" smooth="yes"/>
			<point x="187" y="698"/>
			<point x="88" y="628"/>
			<point x="88" y="496" type="curve" smooth="yes"/>
			<point x="88" y="421"/>
			<point x="130" y="372"/>
			<point x="197" y="353" type="curve"/>
			<point x="94" y="338"/>
			<point x="27" y="275"/>
			<point x="27" y="165" type="curve" smooth="yes"/>
			<point x="27" y="39"/>
			<point x="132" y="-14"/>
		</contour>
		<contour>
			<point x="329" y="400" type="curve" smooth="yes"/>
			<point x="265" y="400"/>
			<point x="227" y="430"/>
			<point x="227" y="483" type="curve" smooth="yes"/>
			<point x="227" y="550"/>
			<point x="265" y="586"/>
			<point x="337" y="586" type="curve" smooth="yes"/>
			<point x="402" y="586"/>
			<point x="440" y="560"/>
			<point x="440" y="503" type="curve" smooth="yes"/>
			<point x="440" y="437"/>
			<point x="400" y="400"/>
		</contour>
		<contour>
			<point x="286" y="100" type="curve" smooth="yes"/>
			<point x="219" y="100"/>
			<point x="176" y="128"/>
			<point x="176" y="190" type="curve" smooth="yes"/>
			<point x="176" y="260"/>
			<point x="217" y="297"/>
			<point x="293" y="297" type="curve" smooth="yes"/>
			<point x="367" y="297"/>
			<point x="402" y="268"/>
			<point x="402" y="212" type="curve" smooth="yes"/>
			<point x="402" y="141"/>
			<point x="360" y="100"/>
		</contour>
	</outline>
</glyph>
<glyph name="nine" format="2">
	<unicode hex="0039"/>
	<advance width="600"/>
	<outline>
		<contour>
			<point x="241" y="-13" type="curve" smooth="yes"/>
			<point x="452" y="-13"/>
			<point x="538" y="113"/>
			<point x="569" y="326" type="curve" smooth="yes"/>
			<point x="571" y="340" type="line" smooth="yes"/>
			<point x="604" y="570"/>
			<point x="548" y="698"/>
			<point x="339" y="698" type="curve" smooth="yes"/>
			<point x="171" y="698"/>
			<point x="68" y="590"/>
			<point x="68" y="416" type="curve" smooth="yes"/>
			<point x="68" y="297"/>
			<point x="132" y="229"/>
			<point x="242" y="229" type="curve" smooth="yes"/>
			<point x="313" y="229"/>
			<point x="369" y="263"/>
			<point x="413" y="334" type="curve"/>
			<point x="387" y="173"/>
			<point x="342" y="110"/>
			<point x="230" y="110" type="curve" smooth="yes"/>
			<point x="157" y="110"/>
			<point x="92" y="136"/>
			<point x="47" y="175" type="curve"/>
			<point x="30" y="51" type="line"/>
			<point x="71" y="15"/>
			<point x="151" y="-13"/>
		</contour>
		<contour>
			<point x="314" y="337" type="curve" smooth="yes"/>
			<point x="255" y="337"/>
			<point x="217" y="367"/>
			<point x="217" y="436" type="curve" smooth="yes"/>
			<point x="217" y="527"/>
			<point x="258" y="581"/>
			<point x="329" y="581" type="curve" smooth="yes"/>
			<point x="391" y="581"/>
			<point x="427" y="546"/>
			<point x="427" y="476" type="curve" smooth="yes"/>
			<point x="427" y="388"/>
			<point x="382" y="337"/>
		</contour>
	</outline>
</glyph>
<glyph name="greater" format="2">
	<unicode hex="003E"/>
	<advance width="600"/>
	<outline>
		<contour>
			<point x="31" y="17" type="line"/>
			<point x="528" y="214" type="line"/>
			<point x="550" y="376" type="line"/>
			<point x="110" y="575" type="line"/>
			<point x="91" y="438" type="line"/>
			<point x="420" y="298" type="line"/>
			<point x="52" y="161" type="line"/>
		</contour>
	</outline>
</glyph>
<glyph name="at" format="2">
	<unicode hex="0040"/>
	<advance width="600"/>
	<outline>
		<contour>
			<point x="329" y="-135" type="curve" smooth="yes"/>
			<point x="409" y="-135"/>
			<point x="469" y="-116"/>
			<point x="503" y="-99" type="curve"/>
			<point x="516" y="7" type="line"/>
			<point x="470" y="-16"/>
			<point x="409" y="-29"/>
			<point x="341" y="-29" type="curve" smooth="yes"/>
			<point x="180" y="-29"/>
			<point x="119" y="80"/>
			<point x="150" y="292" type="curve" smooth="yes"/>
			<point x="151" y="299" type="line" smooth="yes"/>
			<point x="179" y="496"/>
			<point x="237" y="592"/>
			<point x="357" y="592" type="curve" smooth="yes"/>
			<point x="448" y="592"/>
			<point x="477" y="543"/>
			<point x="465" y="449" type="curve" smooth="yes"/>
			<point x="459" y="399" type="line"/>
			<point x="443" y="458"/>
			<point x="411" y="492"/>
			<point x="354" y="492" type="curve" smooth="yes"/>
			<point x="277" y="492"/>
			<point x="217" y="419"/>
			<point x="199" y="292" type="curve" smooth="yes"/>
			<point x="179" y="145"/>
			<point x="217" y="62"/>
			<point x="306" y="62" type="curve" smooth="yes"/>
			<point x="360" y="62"/>
			<point x="398" y="98"/>
			<point x="425" y="152" type="curve"/>
			<point x="412" y="67" type="line"/>
			<point x="526" y="67" type="line"/>
			<point x="580" y="449" type="line" smooth="yes"/>
			<point x="604" y="613"/>
			<point x="534" y="698"/>
			<point x="367" y="698" type="curve" smooth="yes"/>
			<point x="175" y="698"/>
			<point x="73" y="563"/>
			<point x="37" y="312" type="curve" smooth="yes"/>
			<point x="35" y="298" type="line" smooth="yes"/>
			<point x="-8" y="-2"/>
			<point x="111" y="-135"/>
		</contour>
		<contour>
			<point x="367" y="156" type="curve" smooth="yes"/>
			<point x="323" y="156"/>
			<point x="301" y="196"/>
			<point x="314" y="282" type="curve" smooth="yes"/>
			<point x="325" y="361"/>
			<point x="351" y="397"/>
			<point x="391" y="397" type="curve" smooth="yes"/>
			<point x="432" y="397"/>
			<point x="457" y="361"/>
			<point x="445" y="272" type="curve" smooth="yes"/>
			<point x="435" y="195"/>
			<point x="407" y="156"/>
		</contour>
	</outline>
</glyph>
<glyph name="B" format="2">
	<unicode hex="0042"/>
	<advance width="600"/>
	<outline>
		<contour>
			<point x="391" y="685" type="curve" smooth="yes"/>
			<point x="119" y="685" type="line"/>
			<point x="23" y="0" type="line"/>
			<point x="326" y="0" type="line" smooth="yes"/>
			<point x="467" y="0"/>
			<point x="557" y="79"/>
			<point x="557" y="206" type="curve" smooth="yes"/>
			<point x="557" y="288"/>
			<point x="511" y="333"/>
			<point x="414" y="351" type="curve"/>
			<point x="524" y="364"/>
			<point x="592" y="427"/>
			<point x="592" y="526" type="curve" smooth="yes"/>
			<point x="592" y="619"/>
			<point x="535" y="685"/>
		</contour>
		<contour>
			<point x="350" y="572" type="line" smooth="yes"/>
			<point x="411" y="572"/>
			<point x="438" y="546"/>
			<point x="438" y="496" type="curve" smooth="yes"/>
			<point x="438" y="435"/>
			<point x="397" y="401"/>
			<point x="332" y="401" type="curve" smooth="yes"/>
			<point x="227" y="401" type="line"/>
			<point x="252" y="572" type="line"/>
		</contour>
		<contour>
			<point x="312" y="290" type="line" smooth="yes"/>
			<point x="377" y="290"/>
			<point x="403" y="260"/>
			<point x="403" y="211" type="curve" smooth="yes"/>
			<point x="403" y="151"/>
			<point x="365" y="117"/>
			<point x="298" y="117" type="curve" smooth="yes"/>
			<point x="188" y="117" type="line"/>
			<point x="212" y="290" type="line"/>
		</contour>
	</outline>
	<anchor name="top" x="362" y="684"/>
	<anchor name="bottom" x="279" y="0"/>
</glyph>
<glyph name="C" format="2">
	<unicode hex="0043"/>
	<advance width="600"/>
	<outline>
		<contour>
			<point x="373" y="-12" type="curve" smooth="yes"/>
			<point x="431" y="-12"/>
			<point x="476" y="-2"/>
			<point x="511" y="12" type="curve"/>
			<point x="529" y="136" type="line"/>
			<point x="487" y="120"/>
			<point x="446" y="113"/>
			<point x="401" y="113" type="curve" smooth="yes"/>
			<point x="248" y="113"/>
			<point x="196" y="225"/>
			<point x="217" y="369" type="curve" smooth="yes"/>
			<point x="218" y="376" type="line" smooth="yes"/>
			<point x="237" y="508"/>
			<point x="310" y="571"/>
			<point x="431" y="571" type="curve" smooth="yes"/>
			<point x="485" y="571"/>
			<point x="539" y="559"/>
			<point x="584" y="532" type="curve"/>
			<point x="601" y="655" type="line"/>
			<point x="563" y="676"/>
			<point x="500" y="695"/>
			<point x="421" y="695" type="curve" smooth="yes"/>
			<point x="212" y="695"/>
			<point x="92" y="571"/>
			<point x="66" y="394" type="curve" smooth="yes"/>
			<point x="64" y="380" type="line" smooth="yes"/>
			<point x="34" y="170"/>
			<point x="120" y="-12"/>
		</contour>
	</outline>
	<anchor name="top" x="430" y="684"/>
	<anchor name="bottom" x="336" y="0"/>
</glyph>
<glyph name="D" format="2">
	<unicode hex="0044"/>
	<advance width="600"/>
	<outline>
		<contour>
			<point x="18" y="0" type="line"/>
			<point x="275" y="0" type="line" smooth="yes"/>
			<point x="456" y="0"/>
			<point x="548" y="104"/>
			<point x="575" y="302" type="curve" smooth="yes"/>
			<point x="577" y="319" type="line" smooth="yes"/>
			<point x="607" y="539"/>
			<point x="531" y="684"/>
			<point x="338" y="684" type="curve" smooth="yes"/>
			<point x="114" y="684" type="line"/>
		</contour>
		<contour>
			<point x="309" y="564" type="line" smooth="yes"/>
			<point x="405" y="564"/>
			<point x="446" y="500"/>
			<point x="426" y="339" type="curve" smooth="yes"/>
			<point x="425" y="328" type="line" smooth="yes"/>
			<point x="407" y="186"/>
			<point x="361" y="122"/>
			<point x="271" y="122" type="curve" smooth="yes"/>
			<point x="184" y="122" type="line"/>
			<point x="247" y="564" type="line"/>
		</contour>
	</outline>
	<anchor name="center" x="169" y="342"/>
	<anchor name="bottom" x="275" y="0"/>
	<anchor name="top" x="331" y="684"/>
</glyph>
<glyph name="F" format="2">
	<unicode hex="0046"/>
	<advance width="600"/>
	<outline>
		<contour>
			<point x="43" y="0" type="line"/>
			<point x="192" y="0" type="line"/>
			<point x="229" y="270" type="line"/>
			<point x="510" y="270" type="line"/>
			<point x="526" y="390" type="line"/>
			<point x="246" y="390" type="line"/>
			<point x="271" y="562" type="line"/>
			<point x="593" y="562" type="line"/>
			<point x="611" y="684" type="line"/>
			<point x="139" y="684" type="line"/>
		</contour>
	</outline>
	<anchor name="ogonek" x="534" y="0"/>
	<anchor name="bottom" x="294" y="0"/>
	<anchor name="top" x="380" y="684"/>
</glyph>
<glyph name="I" format="2">
	<unicode hex="0049"/>
	<advance width="600"/>
	<outline>
		<contour>
			<point x="32" y="0" type="line"/>
			<point x="493" y="0" type="line"/>
			<point x="509" y="117" type="line"/>
			<point x="354" y="117" type="line"/>
			<point x="417" y="567" type="line"/>
			<point x="573" y="567" type="line"/>
			<point x="589" y="684" type="line"/>
			<point x="129" y="684" type="line"/>
			<point x="112" y="567" type="line"/>
			<point x="267" y="567" type="line"/>
			<point x="204" y="117" type="line"/>
			<point x="49" y="117" type="line"/>
		</contour>
	</outline>
	<anchor name="ogonek" x="493" y="0"/>
	<anchor name="bottom" x="12234" y="0"/>
	<anchor name="top" x="359" y="684"/>
</glyph>
<glyph name="J" format="2">
	<unicode hex="004A"/>
	<advance width="600"/>
	<outline>
		<contour>
			<point x="227" y="-13" type="curve" smooth="yes"/>
			<point x="386" y="-13"/>
			<point x="489" y="52"/>
			<point x="511" y="211" type="curve" smooth="yes"/>
			<point x="576" y="684" type="line"/>
			<point x="135" y="684" type="line"/>
			<point x="117" y="556" type="line"/>
			<point x="409" y="556" type="line"/>
			<point x="366" y="248" type="line" smooth="yes"/>
			<point x="351" y="145"/>
			<point x="298" y="111"/>
			<point x="210" y="111" type="curve" smooth="yes"/>
			<point x="152" y="111"/>
			<point x="100" y="127"/>
			<point x="61" y="145" type="curve"/>
			<point x="43" y="27" type="line"/>
			<point x="85" y="5"/>
			<point x="150" y="-13"/>
		</contour>
	</outline>
	<anchor name="top" x="363" y="684"/>
	<anchor name="bottom" x="80" y="0"/>
</glyph>
<glyph name="K" format="2">
	<unicode hex="004B"/>
	<advance width="600"/>
	<outline>
		<contour>
			<point x="21" y="0" type="line"/>
			<point x="170" y="0" type="line"/>
			<point x="195" y="177" type="line"/>
			<point x="290" y="296" type="line"/>
			<point x="387" y="0" type="line"/>
			<point x="551" y="0" type="line"/>
			<point x="420" y="390" type="line"/>
			<point x="634" y="684" type="line"/>
			<point x="460" y="684" type="line"/>
			<point x="220" y="350" type="line"/>
			<point x="266" y="684" type="line"/>
			<point x="117" y="684" type="line"/>
		</contour>
	</outline>
	<anchor name="top" x="381" y="684"/>
	<anchor name="bottom" x="278" y="0"/>
</glyph>
<glyph name="O" format="2">
	<unicode hex="004F"/>
	<advance width="600"/>
	<outline>
		<contour>
			<point x="279" y="-14" type="curve" smooth="yes"/>
			<point x="451" y="-14"/>
			<point x="536" y="114"/>
			<point x="564" y="308" type="curve" smooth="yes"/>
			<point x="566" y="322" type="line" smooth="yes"/>
			<point x="601" y="566"/>
			<point x="528" y="698"/>
			<point x="346" y="698" type="curve" smooth="yes"/>
			<point x="179" y="698"/>
			<point x="87" y="568"/>
			<point x="59" y="375" type="curve" smooth="yes"/>
			<point x="57" y="361" type="line" smooth="yes"/>
			<point x="22" y="118"/>
			<point x="93" y="-14"/>
		</contour>
		<contour>
			<point x="285" y="107" type="curve" smooth="yes"/>
			<point x="209" y="107"/>
			<point x="181" y="175"/>
			<point x="206" y="351" type="curve" smooth="yes"/>
			<point x="207" y="358" type="line" smooth="yes"/>
			<point x="231" y="519"/>
			<point x="271" y="577"/>
			<point x="339" y="577" type="curve" smooth="yes"/>
			<point x="413" y="577"/>
			<point x="441" y="509"/>
			<point x="416" y="335" type="curve" smooth="yes"/>
			<point x="415" y="328" type="line" smooth="yes"/>
			<point x="392" y="166"/>
			<point x="353" y="107"/>
		</contour>
	</outline>
	<anchor name="center" x="313" y="346"/>
	<anchor name="bottom" x="267" y="0"/>
	<anchor name="top" x="356" y="684"/>
</glyph>
<glyph name="S" format="2">
	<unicode hex="0053"/>
	<advance width="600"/>
	<outline>
		<contour>
			<point x="284" y="-13" type="curve" smooth="yes"/>
			<point x="448" y="-13"/>
			<point x="547" y="81"/>
			<point x="547" y="226" type="curve" smooth="yes"/>
			<point x="547" y="348"/>
			<point x="474" y="381"/>
			<point x="340" y="412" type="curve" smooth="yes"/>
			<point x="262" y="431"/>
			<point x="228" y="445"/>
			<point x="228" y="494" type="curve" smooth="yes"/>
			<point x="228" y="547"/>
			<point x="266" y="578"/>
			<point x="339" y="578" type="curve" smooth="yes"/>
			<point x="414" y="578"/>
			<point x="511" y="550"/>
			<point x="568" y="506" type="curve"/>
			<point x="587" y="633" type="line"/>
			<point x="538" y="666"/>
			<point x="447" y="698"/>
			<point x="340" y="698" type="curve" smooth="yes"/>
			<point x="171" y="698"/>
			<point x="79" y="604"/>
			<point x="79" y="466" type="curve" smooth="yes"/>
			<point x="79" y="330"/>
			<point x="171" y="299"/>
			<point x="288" y="273" type="curve" smooth="yes"/>
			<point x="357" y="258"/>
			<point x="398" y="249"/>
			<point x="398" y="196" type="curve" smooth="yes"/>
			<point x="398" y="140"/>
			<point x="355" y="108"/>
			<point x="285" y="108" type="curve" smooth="yes"/>
			<point x="205" y="108"/>
			<point x="116" y="141"/>
			<point x="53" y="195" type="curve"/>
			<point x="34" y="65" type="line"/>
			<point x="95" y="18"/>
			<point x="184" y="-13"/>
		</contour>
	</outline>
	<anchor name="top" x="364" y="684"/>
	<anchor name="bottom" x="278" y="0"/>
</glyph>
<glyph name="T" format="2">
	<unicode hex="0054"/>
	<advance width="600"/>
	<outline>
		<contour>
			<point x="188" y="0" type="line"/>
			<point x="337" y="0" type="line"/>
			<point x="417" y="556" type="line"/>
			<point x="611" y="556" type="line"/>
			<point x="628" y="684" type="line"/>
			<point x="90" y="684" type="line"/>
			<point x="72" y="556" type="line"/>
			<point x="267" y="556" type="line"/>
		</contour>
	</outline>
	<anchor name="center" x="310" y="339"/>
	<anchor name="bottom" x="263" y="0"/>
	<anchor name="top" x="360" y="684"/>
</glyph>
<glyph name="U" format="2">
	<unicode hex="0055"/>
	<advance width="600"/>
	<outline>
		<contour>
			<point x="270" y="-14" type="curve" smooth="yes"/>
			<point x="429" y="-14"/>
			<point x="517" y="67"/>
			<point x="540" y="227" type="curve" smooth="yes"/>
			<point x="604" y="684" type="line"/>
			<point x="455" y="684" type="line"/>
			<point x="391" y="227" type="line" smooth="yes"/>
			<point x="381" y="156"/>
			<point x="348" y="110"/>
			<point x="285" y="110" type="curve" smooth="yes"/>
			<point x="219" y="110"/>
			<point x="190" y="158"/>
			<point x="200" y="233" type="curve" smooth="yes"/>
			<point x="264" y="684" type="line"/>
			<point x="114" y="684" type="line"/>
			<point x="52" y="241" type="line" smooth="yes"/>
			<point x="28" y="71"/>
			<point x="111" y="-14"/>
		</contour>
	</outline>
	<anchor name="ogonek" x="373" y="0"/>
	<anchor name="bottom" x="246" y="0"/>
	<anchor name="top" x="360" y="684"/>
</glyph>
<glyph name="V" format="2">
	<unicode hex="0056"/>
	<advance width="600"/>
	<outline>
		<contour>
			<point x="153" y="-1" type="line"/>
			<point x="370" y="-1" type="line"/>
			<point x="645" y="684" type="line"/>
			<point x="488" y="684" type="line"/>
			<point x="278" y="129" type="line"/>
			<point x="224" y="684" type="line"/>
			<point x="73" y="684" type="line"/>
		</contour>
	</outline>
	<anchor name="overlap" x="369" y="684"/>
	<anchor name="ogonek" x="569" y="0"/>
	<anchor name="top" x="370" y="684"/>
	<anchor name="bottom" x="278" y="0"/>
</glyph>
<glyph name="W" format="2">
	<unicode hex="0057"/>
	<advance width="600"/>
	<outline>
		<contour>
			<point x="36" y="0" type="line"/>
			<point x="214" y="0" type="line"/>
			<point x="309" y="367" type="line"/>
			<point x="317" y="367" type="line"/>
			<point x="311" y="0" type="line"/>
			<point x="490" y="0" type="line"/>
			<point x="637" y="684" type="line"/>
			<point x="505" y="684" type="line"/>
			<point x="406" y="151" type="line"/>
			<point x="397" y="151" type="line"/>
			<point x="404" y="542" type="line"/>
			<point x="270" y="542" type="line"/>
			<point x="168" y="151" type="line"/>
			<point x="158" y="151" type="line"/>
			<point x="209" y="684" type="line"/>
			<point x="81" y="684" type="line"/>
		</contour>
	</outline>
	<anchor name="top" x="359" y="684"/>
</glyph>
<glyph name="Y" format="2">
	<unicode hex="0059"/>
	<advance width="600"/>
	<outline>
		<contour>
			<point x="184" y="0" type="line"/>
			<point x="334" y="0" type="line"/>
			<point x="366" y="230" type="line"/>
			<point x="646" y="684" type="line"/>
			<point x="483" y="684" type="line"/>
			<point x="318" y="396" type="line"/>
			<point x="234" y="684" type="line"/>
			<point x="72" y="684" type="line"/>
			<point x="217" y="231" type="line"/>
		</contour>
	</outline>
	<anchor name="top" x="359" y="684"/>
	<anchor name="bottom" x="274" y="0"/>
</glyph>
<glyph name="Z" format="2">
	<unicode hex="005A"/>
	<advance width="600"/>
	<outline>
		<contour>
			<point x="11" y="0" type="line"/>
			<point x="515" y="0" type="line"/>
			<point x="532" y="123" type="line"/>
			<point x="217" y="123" type="line"/>
			<point x="592" y="554" type="line"/>
			<point x="610" y="684" type="line"/>
			<point x="121" y="684" type="line"/>
			<point x="103" y="562" type="line"/>
			<point x="421" y="562" type="line"/>
			<point x="28" y="118" type="line"/>
		</contour>
	</outline>
	<anchor name="top" x="365" y="684"/>
	<anchor name="bottom" x="262" y="0"/>
</glyph>
<glyph name="bracketleft" format="2">
	<unicode hex="005B"/>
	<advance width="600"/>
	<outline>
		<contour>
			<point x="457" y="-58" type="line"/>
			<point x="259" y="-58" type="line"/>
			<point x="364" y="687" type="line"/>
			<point x="562" y="687" type="line"/>
			<point x="576" y="792" type="line"/>
			<point x="241" y="792" type="line"/>
			<point x="106" y="-163" type="line"/>
			<point x="441" y="-163" type="line"/>
		</contour>
	</outline>
</glyph>
<glyph name="underscore" format="2">
	<unicode hex="005F"/>
	<advance width="600"/>
	<outline>
		<contour>
			<point x="-17" y="-75" type="line"/>
			<point x="-32" y="-183" type="line"/>
			<point x="507" y="-183" type="line"/>
			<point x="522" y="-75" type="line"/>
		</contour>
	</outline>
</glyph>
<glyph name="c" format="2">
	<unicode hex="0063"/>
	<advance width="600"/>
	<outline>
		<contour>
			<point x="361" y="-12" type="curve" smooth="yes"/>
			<point x="409" y="-12"/>
			<point x="449" y="-4"/>
			<point x="481" y="9" type="curve"/>
			<point x="497" y="124" type="line"/>
			<point x="466" y="111"/>
			<point x="427" y="105"/>
			<point x="391" y="105" type="curve" smooth="yes"/>
			<point x="277" y="105"/>
			<point x="217" y="167"/>
			<point x="233" y="279" type="curve" smooth="yes"/>
			<point x="234" y="286" type="line" smooth="yes"/>
			<point x="247" y="375"/>
			<point x="301" y="418"/>
			<point x="395" y="418" type="curve" smooth="yes"/>
			<point x="457" y="418"/>
			<point x="500" y="405"/>
			<point x="534" y="385" type="curve"/>
			<point x="549" y="498" type="line"/>
			<point x="510" y="521"/>
			<point x="448" y="535"/>
			<point x="378" y="535" type="curve" smooth="yes"/>
			<point x="209" y="535"/>
			<point x="106" y="442"/>
			<point x="86" y="300" type="curve" smooth="yes"/>
			<point x="84" y="286" type="line" smooth="yes"/>
			<point x="58" y="100"/>
			<point x="169" y="-12"/>
		</contour>
	</outline>
	<anchor name="top" x="398" y="523"/>
	<anchor name="bottom" x="320" y="0"/>
</glyph>
<glyph name="d" format="2">
	<unicode hex="0064"/>
	<advance width="600"/>
	<outline>
		<contour>
			<point x="201" y="-14" type="curve" smooth="yes"/>
			<point x="269" y="-14"/>
			<point x="328" y="23"/>
			<point x="372" y="105" type="curve"/>
			<point x="356" y="0" type="line"/>
			<point x="497" y="0" type="line"/>
			<point x="603" y="750" type="line"/>
			<point x="456" y="750" type="line"/>
			<point x="424" y="523" type="line"/>
			<point x="368" y="523" type="line" smooth="yes"/>
			<point x="185" y="523"/>
			<point x="73" y="423"/>
			<point x="49" y="260" type="curve" smooth="yes"/>
			<point x="47" y="246" type="line" smooth="yes"/>
			<point x="24" y="84"/>
			<point x="84" y="-14"/>
		</contour>
		<contour>
			<point x="197" y="252" type="curve" smooth="yes"/>
			<point x="198" y="259" type="line"/>
			<point x="213" y="363"/>
			<point x="265" y="409"/>
			<point x="356" y="409" type="curve" smooth="yes"/>
			<point x="408" y="409" type="line"/>
			<point x="381" y="215" type="line" smooth="yes"/>
			<point x="371" y="144"/>
			<point x="333" y="101"/>
			<point x="276" y="101" type="curve" smooth="yes"/>
			<point x="212" y="101"/>
			<point x="183" y="157"/>
		</contour>
	</outline>
	<anchor name="caron" x="684" y="760"/>
	<anchor name="ogonek" x="544" y="3"/>
	<anchor name="top" x="409" y="550"/>
	<anchor name="center" x="466" y="631"/>
</glyph>
<glyph name="e" format="2">
	<unicode hex="0065"/>
	<advance width="600"/>
	<outline>
		<contour>
			<point x="313" y="-14" type="curve" smooth="yes"/>
			<point x="394" y="-14"/>
			<point x="454" y="3"/>
			<point x="491" y="21" type="curve"/>
			<point x="506" y="134" type="line"/>
			<point x="469" y="118"/>
			<point x="412" y="103"/>
			<point x="354" y="103" type="curve" smooth="yes"/>
			<point x="249" y="103"/>
			<point x="201" y="145"/>
			<point x="197" y="223" type="curve"/>
			<point x="542" y="223" type="line"/>
			<point x="548" y="267" type="line" smooth="yes"/>
			<point x="571" y="433"/>
			<point x="488" y="537"/>
			<point x="329" y="537" type="curve" smooth="yes"/>
			<point x="189" y="537"/>
			<point x="80" y="446"/>
			<point x="58" y="296" type="curve" smooth="yes"/>
			<point x="56" y="282" type="line" smooth="yes"/>
			<point x="32" y="112"/>
			<point x="113" y="-14"/>
		</contour>
		<contour>
			<point x="321" y="434" type="curve" smooth="yes"/>
			<point x="383" y="434"/>
			<point x="419" y="393"/>
			<point x="412" y="312" type="curve"/>
			<point x="202" y="312" type="line"/>
			<point x="216" y="389"/>
			<point x="257" y="434"/>
		</contour>
	</outline>
	<anchor name="ogonek" x="432" y="0"/>
	<anchor name="top" x="343" y="533"/>
</glyph>
<glyph name="f" format="2">
	<unicode hex="0066"/>
	<advance width="600"/>
	<outline>
		<contour>
			<point x="99" y="-204" type="curve" smooth="yes"/>
			<point x="214" y="-204"/>
			<point x="299" y="-155"/>
			<point x="318" y="-17" type="curve" smooth="yes"/>
			<point x="378" y="408" type="line"/>
			<point x="569" y="408" type="line"/>
			<point x="585" y="523" type="line"/>
			<point x="394" y="523" type="line"/>
			<point x="402" y="579" type="line" smooth="yes"/>
			<point x="408" y="630"/>
			<point x="445" y="650"/>
			<point x="499" y="650" type="curve" smooth="yes"/>
			<point x="533" y="650"/>
			<point x="572" y="643"/>
			<point x="596" y="633" type="curve"/>
			<point x="611" y="736" type="line"/>
			<point x="583" y="748"/>
			<point x="527" y="760"/>
			<point x="474" y="760" type="curve" smooth="yes"/>
			<point x="365" y="760"/>
			<point x="272" y="717"/>
			<point x="256" y="594" type="curve" smooth="yes"/>
			<point x="247" y="523" type="line"/>
			<point x="97" y="523" type="line"/>
			<point x="81" y="408" type="line"/>
			<point x="231" y="408" type="line"/>
			<point x="173" y="-1" type="line" smooth="yes"/>
			<point x="164" y="-61"/>
			<point x="140" y="-90"/>
			<point x="76" y="-90" type="curve" smooth="yes"/>
			<point x="38" y="-90"/>
			<point x="3" y="-81"/>
			<point x="-24" y="-68" type="curve"/>
			<point x="-39" y="-174" type="line"/>
			<point x="-6" y="-192"/>
			<point x="46" y="-204"/>
		</contour>
	</outline>
</glyph>
<glyph name="l" format="2">
	<unicode hex="006C"/>
	<advance width="600"/>
	<outline>
		<contour>
			<point x="27" y="0" type="line"/>
			<point x="510" y="0" type="line"/>
			<point x="527" y="115" type="line"/>
			<point x="364" y="115" type="line"/>
			<point x="454" y="750" type="line"/>
			<point x="135" y="750" type="line"/>
			<point x="118" y="635" type="line"/>
			<point x="291" y="635" type="line"/>
			<point x="217" y="115" type="line"/>
			<point x="43" y="115" type="line"/>
		</contour>
	</outline>
	<anchor name="center" x="326" y="371"/>
	<anchor name="caron" x="543" y="750"/>
	<anchor name="top" x="380" y="734"/>
	<anchor name="bottom" x="274" y="0"/>
</glyph>
<glyph name="m" format="2">
	<unicode hex="006D"/>
	<advance width="600"/>
	<outline>
		<contour>
			<point x="2" y="0" type="line"/>
			<point x="123" y="0" type="line"/>
			<point x="173" y="357" type="line" smooth="yes"/>
			<point x="176" y="375"/>
			<point x="182" y="393"/>
			<point x="192" y="406" type="curve" smooth="yes"/>
			<point x="201" y="415"/>
			<point x="212" y="421"/>
			<point x="225" y="421" type="curve" smooth="yes"/>
			<point x="253" y="421"/>
			<point x="263" y="399"/>
			<point x="258" y="358" type="curve" smooth="yes"/>
			<point x="208" y="0" type="line"/>
			<point x="319" y="0" type="line"/>
			<point x="369" y="357" type="line"/>
			<point x="373" y="378"/>
			<point x="379" y="394"/>
			<point x="389" y="406" type="curve" smooth="yes"/>
			<point x="398" y="416"/>
			<point x="409" y="421"/>
			<point x="423" y="421" type="curve" smooth="yes"/>
			<point x="450" y="421"/>
			<point x="460" y="399"/>
			<point x="454" y="358" type="curve" smooth="yes"/>
			<point x="404" y="0" type="line"/>
			<point x="525" y="0" type="line"/>
			<point x="579" y="386" type="line" smooth="yes"/>
			<point x="593" y="488"/>
			<point x="563" y="537"/>
			<point x="501" y="537" type="curve" smooth="yes"/>
			<point x="448" y="537"/>
			<point x="408" y="499"/>
			<point x="377" y="437" type="curve"/>
			<point x="375" y="501"/>
			<point x="347" y="537"/>
			<point x="299" y="537" type="curve" smooth="yes"/>
			<point x="245" y="537"/>
			<point x="208" y="498"/>
			<point x="180" y="436" type="curve"/>
			<point x="192" y="523" type="line"/>
			<point x="75" y="523" type="line"/>
		</contour>
	</outline>
	<anchor name="top" x="381" y="524"/>
	<anchor name="bottom" x="260" y="0"/>
</glyph>
<glyph name="n" format="2">
	<unicode hex="006E"/>
	<advance width="600"/>
	<outline>
		<contour>
			<point x="33" y="0" type="line"/>
			<point x="180" y="0" type="line"/>
			<point x="223" y="309" type="line" smooth="yes"/>
			<point x="227" y="333"/>
			<point x="233" y="355"/>
			<point x="247" y="374" type="curve" smooth="yes"/>
			<point x="264" y="397"/>
			<point x="288" y="416"/>
			<point x="325" y="416" type="curve" smooth="yes"/>
			<point x="381" y="416"/>
			<point x="406" y="381"/>
			<point x="396" y="307" type="curve" smooth="yes"/>
			<point x="352" y="0" type="line"/>
			<point x="499" y="0" type="line"/>
			<point x="547" y="334" type="line" smooth="yes"/>
			<point x="565" y="462"/>
			<point x="515" y="537"/>
			<point x="412" y="537" type="curve" smooth="yes"/>
			<point x="337" y="537"/>
			<point x="277" y="493"/>
			<point x="231" y="416" type="curve"/>
			<point x="246" y="523" type="line"/>
			<point x="106" y="523" type="line"/>
		</contour>
	</outline>
	<anchor name="top" x="337" y="523"/>
	<anchor name="bottom" x="265" y="0"/>
</glyph>
<glyph name="p" format="2">
	<unicode hex="0070"/>
	<advance width="600"/>
	<outline>
		<contour>
			<point x="398" y="537" type="curve" smooth="yes"/>
			<point x="332" y="537"/>
			<point x="273" y="500"/>
			<point x="229" y="421" type="curve"/>
			<point x="243" y="523" type="line"/>
			<point x="103" y="523" type="line"/>
			<point x="2" y="-194" type="line"/>
			<point x="149" y="-194" type="line"/>
			<point x="176" y="0" type="line"/>
			<point x="241" y="0" type="line" smooth="yes"/>
			<point x="416" y="0"/>
			<point x="527" y="96"/>
			<point x="551" y="260" type="curve" smooth="yes"/>
			<point x="553" y="274" type="line" smooth="yes"/>
			<point x="576" y="436"/>
			<point x="515" y="537"/>
		</contour>
		<contour>
			<point x="403" y="272" type="curve" smooth="yes"/>
			<point x="402" y="265" type="line"/>
			<point x="387" y="160"/>
			<point x="337" y="113"/>
			<point x="244" y="113" type="curve" smooth="yes"/>
			<point x="192" y="113" type="line"/>
			<point x="219" y="306" type="line" smooth="yes"/>
			<point x="229" y="379"/>
			<point x="267" y="422"/>
			<point x="325" y="422" type="curve" smooth="yes"/>
			<point x="387" y="422"/>
			<point x="417" y="368"/>
		</contour>
	</outline>
	<anchor name="ogonek" x="124" y="550"/>
	<anchor name="bottom" x="253" y="0"/>
</glyph>
<glyph name="s" format="2">
	<unicode hex="0073"/>
	<advance width="600"/>
	<outline>
		<contour>
			<point x="270" y="-14" type="curve" smooth="yes"/>
			<point x="425" y="-14"/>
			<point x="510" y="55"/>
			<point x="510" y="180" type="curve" smooth="yes"/>
			<point x="510" y="282"/>
			<point x="428" y="304"/>
			<point x="324" y="326" type="curve" smooth="yes"/>
			<point x="257" y="339"/>
			<point x="232" y="348"/>
			<point x="232" y="380" type="curve" smooth="yes"/>
			<point x="232" y="414"/>
			<point x="264" y="432"/>
			<point x="317" y="432" type="curve" smooth="yes"/>
			<point x="390" y="432"/>
			<point x="476" y="410"/>
			<point x="533" y="372" type="curve"/>
			<point x="549" y="488" type="line"/>
			<point x="494" y="518"/>
			<point x="410" y="538"/>
			<point x="327" y="538" type="curve" smooth="yes"/>
			<point x="167" y="538"/>
			<point x="91" y="458"/>
			<point x="91" y="347" type="curve" smooth="yes"/>
			<point x="91" y="242"/>
			<point x="174" y="215"/>
			<point x="278" y="198" type="curve" smooth="yes"/>
			<point x="347" y="187"/>
			<point x="370" y="178"/>
			<point x="370" y="147" type="curve" smooth="yes"/>
			<point x="370" y="108"/>
			<point x="335" y="93"/>
			<point x="278" y="93" type="curve" smooth="yes"/>
			<point x="212" y="93"/>
			<point x="127" y="114"/>
			<point x="67" y="158" type="curve"/>
			<point x="52" y="44" type="line"/>
			<point x="94" y="12"/>
			<point x="176" y="-14"/>
		</contour>
	</outline>
	<anchor name="top" x="349" y="523"/>
	<anchor name="bottom" x="273" y="0"/>
</glyph>
<glyph name="v" format="2">
	<unicode hex="0076"/>
	<advance width="600"/>
	<outline>
		<contour>
			<point x="250" y="-14" type="curve" smooth="yes"/>
			<point x="433" y="-14"/>
			<point x="533" y="117"/>
			<point x="556" y="315" type="curve" smooth="yes"/>
			<point x="566" y="397"/>
			<point x="560" y="467"/>
			<point x="546" y="521" type="curve"/>
			<point x="406" y="523" type="line"/>
			<point x="418" y="470"/>
			<point x="425" y="411"/>
			<point x="416" y="337" type="curve" smooth="yes"/>
			<point x="400" y="189"/>
			<point x="352" y="100"/>
			<point x="276" y="100" type="curve" smooth="yes"/>
			<point x="235" y="100"/>
			<point x="215" y="121"/>
			<point x="223" y="171" type="curve" smooth="yes"/>
			<point x="270" y="523" type="line"/>
			<point x="51" y="523" type="line"/>
			<point x="35" y="409" type="line"/>
			<point x="115" y="409" type="line"/>
			<point x="81" y="164" type="line" smooth="yes"/>
			<point x="65" y="51"/>
			<point x="122" y="-14"/>
		</contour>
	</outline>
</glyph>
<glyph name="x" format="2">
	<unicode hex="0078"/>
	<advance width="600"/>
	<outline>
		<contour>
			<point x="-4" y="0" type="line"/>
			<point x="161" y="0" type="line"/>
			<point x="287" y="174" type="line"/>
			<point x="373" y="0" type="line"/>
			<point x="530" y="0" type="line"/>
			<point x="396" y="275" type="line"/>
			<point x="595" y="523" type="line"/>
			<point x="431" y="523" type="line"/>
			<point x="312" y="369" type="line"/>
			<point x="239" y="523" type="line"/>
			<point x="80" y="523" type="line"/>
			<point x="211" y="271" type="line"/>
		</contour>
	</outline>
	<anchor name="top" x="363" y="523"/>
	<anchor name="bottom" x="294" y="0"/>
</glyph>
<glyph name="z" format="2">
	<unicode hex="007A"/>
	<advance width="600"/>
	<outline>
		<contour>
			<point x="40" y="0" type="line"/>
			<point x="486" y="0" type="line"/>
			<point x="502" y="115" type="line"/>
			<point x="244" y="115" type="line"/>
			<point x="541" y="409" type="line"/>
			<point x="557" y="523" type="line"/>
			<point x="118" y="523" type="line"/>
			<point x="102" y="408" type="line"/>
			<point x="349" y="408" type="line"/>
			<point x="56" y="114" type="line"/>
		</contour>
	</outline>
	<anchor name="top" x="337" y="523"/>
	<anchor name="bottom" x="263" y="0"/>
</glyph>
<glyph name="braceleft" format="2">
	<unicode hex="007B"/>
	<advance width="600"/>
	<outline>
		<contour>
			<point x="96" y="251" type="line"/>
			<point x="181" y="251" type="line" smooth="yes"/>
			<point x="224" y="251"/>
			<point x="239" y="225"/>
			<point x="239" y="200" type="curve" smooth="yes"/>
			<point x="239" y="126"/>
			<point x="111" y="86"/>
			<point x="111" y="-34" type="curve" smooth="yes"/>
			<point x="111" y="-107"/>
			<point x="163" y="-163"/>
			<point x="267" y="-163" type="curve" smooth="yes"/>
			<point x="446" y="-163" type="line"/>
			<point x="460" y="-58" type="line"/>
			<point x="338" y="-58" type="line" smooth="yes"/>
			<point x="290" y="-58"/>
			<point x="266" y="-41"/>
			<point x="266" y="-5" type="curve" smooth="yes"/>
			<point x="266" y="71"/>
			<point x="389" y="108"/>
			<point x="389" y="211" type="curve" smooth="yes"/>
			<point x="389" y="258"/>
			<point x="349" y="299"/>
			<point x="285" y="313" type="curve"/>
			<point x="348" y="320"/>
			<point x="423" y="355"/>
			<point x="423" y="436" type="curve" smooth="yes"/>
			<point x="423" y="509"/>
			<point x="350" y="566"/>
			<point x="350" y="625" type="curve" smooth="yes"/>
			<point x="350" y="671"/>
			<point x="382" y="687"/>
			<point x="435" y="687" type="curve" smooth="yes"/>
			<point x="565" y="687" type="line"/>
			<point x="580" y="792" type="line"/>
			<point x="377" y="792" type="line" smooth="yes"/>
			<point x="275" y="792"/>
			<point x="206" y="733"/>
			<point x="206" y="647" type="curve" smooth="yes"/>
			<point x="206" y="562"/>
			<point x="277" y="498"/>
			<point x="277" y="440" type="curve" smooth="yes"/>
			<point x="277" y="404"/>
			<point x="251" y="375"/>
			<point x="213" y="375" type="curve" smooth="yes"/>
			<point x="112" y="375" type="line"/>
		</contour>
	</outline>
</glyph>
<glyph name="braceright" format="2">
	<unicode hex="007D"/>
	<advance width="600"/>
	<outline>
		<contour>
			<point x="35" y="-163" type="line"/>
			<point x="238" y="-163" type="line" smooth="yes"/>
			<point x="340" y="-163"/>
			<point x="409" y="-104"/>
			<point x="409" y="-18" type="curve" smooth="yes"/>
			<point x="409" y="67"/>
			<point x="338" y="131"/>
			<point x="338" y="188" type="curve" smooth="yes"/>
			<point x="338" y="224"/>
			<point x="364" y="254"/>
			<point x="403" y="254" type="curve" smooth="yes"/>
			<point x="503" y="254" type="line"/>
			<point x="520" y="378" type="line"/>
			<point x="435" y="378" type="line" smooth="yes"/>
			<point x="392" y="378"/>
			<point x="376" y="404"/>
			<point x="376" y="429" type="curve" smooth="yes"/>
			<point x="376" y="503"/>
			<point x="505" y="542"/>
			<point x="505" y="663" type="curve" smooth="yes"/>
			<point x="505" y="734"/>
			<point x="454" y="792"/>
			<point x="348" y="792" type="curve" smooth="yes"/>
			<point x="170" y="792" type="line"/>
			<point x="155" y="687" type="line"/>
			<point x="278" y="687" type="line" smooth="yes"/>
			<point x="326" y="687"/>
			<point x="350" y="670"/>
			<point x="350" y="634" type="curve" smooth="yes"/>
			<point x="350" y="558"/>
			<point x="226" y="521"/>
			<point x="226" y="418" type="curve" smooth="yes"/>
			<point x="226" y="372"/>
			<point x="265" y="331"/>
			<point x="329" y="316" type="curve"/>
			<point x="267" y="308"/>
			<point x="192" y="273"/>
			<point x="192" y="193" type="curve" smooth="yes"/>
			<point x="192" y="120"/>
			<point x="265" y="63"/>
			<point x="265" y="4" type="curve" smooth="yes"/>
			<point x="265" y="-42"/>
			<point x="234" y="-58"/>
			<point x="181" y="-58" type="curve" smooth="yes"/>
			<point x="50" y="-58" type="line"/>
		</contour>
	</outline>
</glyph>
<glyph name="exclamdown" format="2">
	<unicode hex="00A1"/>
	<advance width="600"/>
	<outline>
		<contour>
			<point x="332" y="535" type="curve" smooth="yes"/>
			<point x="270" y="535"/>
			<point x="240" y="512"/>
			<point x="233" y="458" type="curve" smooth="yes"/>
			<point x="223" y="394"/>
			<point x="256" y="366"/>
			<point x="320" y="366" type="curve" smooth="yes"/>
			<point x="382" y="366"/>
			<point x="412" y="389"/>
			<point x="420" y="442" type="curve" smooth="yes"/>
			<point x="429" y="507"/>
			<point x="396" y="535"/>
		</contour>
		<contour>
			<point x="358" y="293" type="line"/>
			<point x="252" y="293" type="line"/>
			<point x="179" y="-36" type="line"/>
			<point x="161" y="-161" type="line"/>
			<point x="322" y="-161" type="line"/>
			<point x="340" y="-36" type="line"/>
		</contour>
	</outline>
</glyph>
<glyph name="cent" format="2">
	<unicode hex="00A2"/>
	<advance width="600"/>
	<outline>
		<contour>
			<point x="262" y="-93" type="line"/>
			<point x="363" y="-93" type="line"/>
			<point x="379" y="-12" type="line"/>
			<point x="419" y="-10"/>
			<point x="453" y="-2"/>
			<point x="481" y="9" type="curve"/>
			<point x="497" y="124" type="line"/>
			<point x="468" y="112"/>
			<point x="431" y="106"/>
			<point x="396" y="105" type="curve"/>
			<point x="458" y="413" type="line"/>
			<point x="488" y="407"/>
			<point x="513" y="397"/>
			<point x="534" y="385" type="curve"/>
			<point x="549" y="498" type="line"/>
			<point x="532" y="508"/>
			<point x="510" y="517"/>
			<point x="484" y="523" type="curve"/>
			<point x="502" y="615" type="line"/>
			<point x="400" y="615" type="line"/>
			<point x="385" y="535" type="line"/>
			<point x="378" y="535" type="line" smooth="yes"/>
			<point x="209" y="535"/>
			<point x="106" y="442"/>
			<point x="86" y="300" type="curve" smooth="yes"/>
			<point x="84" y="286" type="line" smooth="yes"/>
			<point x="62" y="128"/>
			<point x="139" y="24"/>
			<point x="280" y="-4" type="curve"/>
		</contour>
		<contour>
			<point x="233" y="279" type="curve" smooth="yes"/>
			<point x="234" y="286" type="line" smooth="yes"/>
			<point x="246" y="366"/>
			<point x="291" y="409"/>
			<point x="368" y="417" type="curve"/>
			<point x="308" y="119" type="line"/>
			<point x="249" y="144"/>
			<point x="221" y="198"/>
		</contour>
	</outline>
</glyph>
<glyph name="sterling" format="2">
	<unicode hex="00A3"/>
	<advance width="600"/>
	<outline>
		<contour>
			<point x="39" y="117" type="curve"/>
			<point x="23" y="0" type="line"/>
			<point x="510" y="0" type="line"/>
			<point x="528" y="123" type="line"/>
			<point x="207" y="123" type="line"/>
			<point x="243" y="148"/>
			<point x="278" y="194"/>
			<point x="283" y="275" type="curve"/>
			<point x="459" y="275" type="line"/>
			<point x="475" y="385" type="line"/>
			<point x="286" y="385" type="line"/>
			<point x="283" y="409"/>
			<point x="278" y="432"/>
			<point x="278" y="457" type="curve" smooth="yes"/>
			<point x="278" y="531"/>
			<point x="321" y="573"/>
			<point x="397" y="573" type="curve" smooth="yes"/>
			<point x="469" y="573"/>
			<point x="534" y="551"/>
			<point x="583" y="515" type="curve"/>
			<point x="600" y="640" type="line"/>
			<point x="553" y="671"/>
			<point x="482" y="698"/>
			<point x="378" y="698" type="curve" smooth="yes"/>
			<point x="237" y="698"/>
			<point x="134" y="620"/>
			<point x="134" y="485" type="curve" smooth="yes"/>
			<point x="134" y="450"/>
			<point x="141" y="414"/>
			<point x="148" y="385" type="curve"/>
			<point x="66" y="385" type="line"/>
			<point x="51" y="275" type="line"/>
			<point x="140" y="275" type="line"/>
			<point x="134" y="206"/>
			<point x="88" y="148"/>
		</contour>
	</outline>
</glyph>
<glyph name="brokenbar" format="2">
	<unicode hex="00A6"/>
	<advance width="600"/>
	<outline>
		<contour>
			<point x="306" y="792" type="line"/>
			<point x="254" y="418" type="line"/>
			<point x="391" y="418" type="line"/>
			<point x="443" y="792" type="line"/>
		</contour>
		<contour>
			<point x="229" y="244" type="line"/>
			<point x="172" y="-163" type="line"/>
			<point x="309" y="-163" type="line"/>
			<point x="366" y="244" type="line"/>
		</contour>
	</outline>
</glyph>
<glyph name="copyright" format="2">
	<unicode hex="00A9"/>
	<advance width="600"/>
	<outline>
		<contour>
			<point x="302" y="103" type="curve" smooth="yes"/>
			<point x="440" y="103"/>
			<point x="552" y="186"/>
			<point x="574" y="340" type="curve" smooth="yes"/>
			<point x="576" y="354" type="line" smooth="yes"/>
			<point x="603" y="539"/>
			<point x="493" y="657"/>
			<point x="331" y="657" type="curve" smooth="yes"/>
			<point x="192" y="657"/>
			<point x="81" y="574"/>
			<point x="59" y="422" type="curve" smooth="yes"/>
			<point x="57" y="408" type="line" smooth="yes"/>
			<point x="30" y="222"/>
			<point x="141" y="103"/>
		</contour>
		<contour>
			<point x="307" y="165" type="curve" smooth="yes"/>
			<point x="177" y="165"/>
			<point x="102" y="258"/>
			<point x="123" y="407" type="curve" smooth="yes"/>
			<point x="124" y="414" type="line" smooth="yes"/>
			<point x="141" y="531"/>
			<point x="214" y="595"/>
			<point x="326" y="595" type="curve" smooth="yes"/>
			<point x="457" y="595"/>
			<point x="531" y="503"/>
			<point x="510" y="354" type="curve" smooth="yes"/>
			<point x="509" y="347" type="line" smooth="yes"/>
			<point x="492" y="230"/>
			<point x="418" y="165"/>
		</contour>
		<contour>
			<point x="329" y="245" type="curve" smooth="yes"/>
			<point x="348" y="245"/>
			<point x="367" y="248"/>
			<point x="377" y="252" type="curve"/>
			<point x="385" y="306" type="line"/>
			<point x="375" y="303"/>
			<point x="361" y="300"/>
			<point x="346" y="300" type="curve" smooth="yes"/>
			<point x="304" y="300"/>
			<point x="267" y="326"/>
			<point x="276" y="388" type="curve" smooth="yes"/>
			<point x="283" y="438"/>
			<point x="312" y="462"/>
			<point x="355" y="462" type="curve" smooth="yes"/>
			<point x="375" y="462"/>
			<point x="392" y="457"/>
			<point x="405" y="452" type="curve"/>
			<point x="412" y="504" type="line"/>
			<point x="401" y="511"/>
			<point x="374" y="518"/>
			<point x="344" y="518" type="curve" smooth="yes"/>
			<point x="269" y="518"/>
			<point x="218" y="474"/>
			<point x="206" y="397" type="curve" smooth="yes"/>
			<point x="191" y="304"/>
			<point x="245" y="245"/>
		</contour>
	</outline>
</glyph>
<glyph name="ordfeminine" format="2">
	<unicode hex="00AA"/>
	<advance width="600"/>
	<outline>
		<contour>
			<point x="229" y="224" type="curve" smooth="yes"/>
			<point x="296" y="224"/>
			<point x="346" y="256"/>
			<point x="380" y="317" type="curve"/>
			<point x="368" y="235" type="line"/>
			<point x="485" y="235" type="line"/>
			<point x="524" y="511" type="line" smooth="yes"/>
			<point x="543" y="640"/>
			<point x="470" y="696"/>
			<point x="342" y="696" type="curve" smooth="yes"/>
			<point x="255" y="696"/>
			<point x="195" y="674"/>
			<point x="162" y="658" type="curve"/>
			<point x="148" y="556" type="line"/>
			<point x="199" y="586"/>
			<point x="256" y="602"/>
			<point x="312" y="602" type="curve" smooth="yes"/>
			<point x="374" y="602"/>
			<point x="411" y="578"/>
			<point x="402" y="515" type="curve" smooth="yes"/>
			<point x="402" y="514" type="line"/>
			<point x="316" y="502" type="line" smooth="yes"/>
			<point x="173" y="482"/>
			<point x="105" y="428"/>
			<point x="105" y="338" type="curve" smooth="yes"/>
			<point x="105" y="268"/>
			<point x="151" y="224"/>
		</contour>
		<contour>
			<point x="288" y="308" type="curve" smooth="yes"/>
			<point x="250" y="308"/>
			<point x="225" y="328"/>
			<point x="225" y="361" type="curve" smooth="yes"/>
			<point x="225" y="408"/>
			<point x="260" y="427"/>
			<point x="329" y="438" type="curve" smooth="yes"/>
			<point x="394" y="447" type="line"/>
			<point x="387" y="401" type="line" smooth="yes"/>
			<point x="378" y="337"/>
			<point x="338" y="308"/>
		</contour>
	</outline>
	<anchor name="ogonek" x="399" y="235"/>
	<anchor name="top" x="273" y="685"/>
	<anchor name="right" x="407" y="235"/>
	<anchor name="bottom" x="213" y="233"/>
</glyph>
<glyph name="registered" format="2">
	<unicode hex="00AE"/>
	<advance width="600"/>
	<outline>
		<contour>
			<point x="302" y="103" type="curve" smooth="yes"/>
			<point x="440" y="103"/>
			<point x="552" y="186"/>
			<point x="574" y="340" type="curve" smooth="yes"/>
			<point x="576" y="354" type="line" smooth="yes"/>
			<point x="603" y="539"/>
			<point x="496" y="657"/>
			<point x="331" y="657" type="curve" smooth="yes"/>
			<point x="192" y="657"/>
			<point x="81" y="574"/>
			<point x="59" y="422" type="curve" smooth="yes"/>
			<point x="57" y="408" type="line" smooth="yes"/>
			<point x="30" y="222"/>
			<point x="138" y="103"/>
		</contour>
		<contour>
			<point x="307" y="165" type="curve" smooth="yes"/>
			<point x="174" y="165"/>
			<point x="102" y="258"/>
			<point x="123" y="407" type="curve" smooth="yes"/>
			<point x="124" y="414" type="line" smooth="yes"/>
			<point x="141" y="531"/>
			<point x="214" y="595"/>
			<point x="326" y="595" type="curve" smooth="yes"/>
			<point x="460" y="595"/>
			<point x="531" y="503"/>
			<point x="510" y="354" type="curve" smooth="yes"/>
			<point x="509" y="347" type="line" smooth="yes"/>
			<point x="492" y="230"/>
			<point x="418" y="165"/>
		</contour>
		<contour>
			<point x="199" y="251" type="line"/>
			<point x="265" y="251" type="line"/>
			<point x="277" y="340" type="line"/>
			<point x="303" y="340" type="line" smooth="yes"/>
			<point x="321" y="340"/>
			<point x="331" y="335"/>
			<point x="336" y="313" type="curve" smooth="yes"/>
			<point x="350" y="251" type="line"/>
			<point x="419" y="251" type="line"/>
			<point x="401" y="328" type="line" smooth="yes"/>
			<point x="396" y="352"/>
			<point x="384" y="361"/>
			<point x="365" y="365" type="curve"/>
			<point x="409" y="373"/>
			<point x="437" y="396"/>
			<point x="437" y="440" type="curve" smooth="yes"/>
			<point x="437" y="486"/>
			<point x="403" y="513"/>
			<point x="342" y="513" type="curve" smooth="yes"/>
			<point x="234" y="513" type="line"/>
		</contour>
		<contour>
			<point x="328" y="463" type="line" smooth="yes"/>
			<point x="356" y="463"/>
			<point x="369" y="451"/>
			<point x="369" y="430" type="curve" smooth="yes"/>
			<point x="369" y="405"/>
			<point x="352" y="390"/>
			<point x="322" y="390" type="curve" smooth="yes"/>
			<point x="283" y="390" type="line"/>
			<point x="294" y="463" type="line"/>
		</contour>
	</outline>
</glyph>
<glyph name="acute" format="2">
	<unicode hex="00B4"/>
	<advance width="600"/>
	<outline>
		<contour>
			<point x="495" y="750" type="line"/>
			<point x="333" y="750" type="line"/>
			<point x="257" y="600" type="line"/>
			<point x="370" y="600" type="line"/>
		</contour>
	</outline>
	<anchor name="_top" x="306" y="523"/>
</glyph>
<glyph name="cedilla" format="2">
	<unicode hex="00B8"/>
	<advance width="600"/>
	<outline>
		<contour>
			<point x="217" y="-230" type="curve" smooth="yes"/>
			<point x="301" y="-230"/>
			<point x="349" y="-189"/>
			<point x="350" y="-122" type="curve" smooth="yes"/>
			<point x="350" y="-75"/>
			<point x="324" y="-50"/>
			<point x="273" y="-46" type="curve"/>
			<point x="301" y="0" type="line"/>
			<point x="225" y="0" type="line"/>
			<point x="171" y="-94" type="line"/>
			<point x="185" y="-92"/>
			<point x="195" y="-91"/>
			<point x="203" y="-91" type="curve" smooth="yes"/>
			<point x="239" y="-91"/>
			<point x="257" y="-101"/>
			<point x="257" y="-124" type="curve" smooth="yes"/>
			<point x="257" y="-148"/>
			<point x="239" y="-160"/>
			<point x="203" y="-160" type="curve" smooth="yes"/>
			<point x="174" y="-160"/>
			<point x="150" y="-153"/>
			<point x="131" y="-143" type="curve"/>
			<point x="123" y="-209" type="line"/>
			<point x="144" y="-221"/>
			<point x="180" y="-230"/>
		</contour>
	</outline>
	<anchor name="_bottom" x="262" y="0"/>
</glyph>
<glyph name="guillemetright" format="2">
	<unicode hex="00BB"/>
	<advance width="600"/>
	<outline>
		<contour>
			<point x="241" y="77" type="line"/>
			<point x="393" y="77" type="line"/>
			<point x="570" y="287" type="line"/>
			<point x="451" y="497" type="line"/>
			<point x="301" y="497" type="line"/>
			<point x="422" y="288" type="line"/>
		</contour>
		<contour>
			<point x="10" y="77" type="line"/>
			<point x="161" y="77" type="line"/>
			<point x="338" y="287" type="line"/>
			<point x="219" y="497" type="line"/>
			<point x="70" y="497" type="line"/>
			<point x="191" y="289" type="line"/>
		</contour>
	</outline>
</glyph>
<glyph name="questiondown" format="2">
	<unicode hex="00BF"/>
	<advance width="600"/>
	<outline>
		<contour>
			<point x="357" y="534" type="curve" smooth="yes"/>
			<point x="295" y="534"/>
			<point x="264" y="511"/>
			<point x="257" y="459" type="curve" smooth="yes"/>
			<point x="247" y="394"/>
			<point x="279" y="366"/>
			<point x="344" y="366" type="curve" smooth="yes"/>
			<point x="405" y="366"/>
			<point x="436" y="389"/>
			<point x="444" y="441" type="curve" smooth="yes"/>
			<point x="453" y="507"/>
			<point x="421" y="534"/>
		</contour>
		<contour>
			<point x="395" y="293" type="curve"/>
			<point x="265" y="293" type="line"/>
			<point x="262" y="270" type="line" smooth="yes"/>
			<point x="251" y="173"/>
			<point x="49" y="171"/>
			<point x="49" y="-8" type="curve" smooth="yes"/>
			<point x="49" y="-109"/>
			<point x="125" y="-175"/>
			<point x="262" y="-175" type="curve" smooth="yes"/>
			<point x="344" y="-175"/>
			<point x="404" y="-154"/>
			<point x="453" y="-127" type="curve"/>
			<point x="470" y="3" type="line"/>
			<point x="421" y="-29"/>
			<point x="361" y="-49"/>
			<point x="299" y="-49" type="curve" smooth="yes"/>
			<point x="232" y="-49"/>
			<point x="198" y="-25"/>
			<point x="198" y="18" type="curve" smooth="yes"/>
			<point x="198" y="108"/>
			<point x="389" y="115"/>
			<point x="398" y="257" type="curve" smooth="yes"/>
			<point x="399" y="273"/>
			<point x="397" y="283"/>
		</contour>
	</outline>
</glyph>
<glyph name="AE" format="2">
	<unicode hex="00C6"/>
	<advance width="600"/>
	<outline>
		<contour>
			<point x="-32" y="0" type="line"/>
			<point x="104" y="-1" type="line"/>
			<point x="157" y="155" type="line"/>
			<point x="277" y="155" type="line"/>
			<point x="255" y="0" type="line"/>
			<point x="543" y="0" type="line"/>
			<point x="559" y="119" type="line"/>
			<point x="399" y="119" type="line"/>
			<point x="423" y="283" type="line"/>
			<point x="551" y="283" type="line"/>
			<point x="568" y="401" type="line"/>
			<point x="439" y="401" type="line"/>
			<point x="462" y="566" type="line"/>
			<point x="620" y="566" type="line"/>
			<point x="636" y="684" type="line"/>
			<point x="207" y="684" type="line"/>
		</contour>
		<contour>
			<point x="196" y="270" type="line"/>
			<point x="296" y="566" type="line"/>
			<point x="334" y="566" type="line"/>
			<point x="293" y="270" type="line"/>
		</contour>
	</outline>
	<anchor name="top" x="413" y="684"/>
</glyph>
<glyph name="Ccedilla" format="2">
	<unicode hex="00C7"/>
	<advance width="600"/>
	<outline>
		<contour>
			<point x="291" y="-230" type="curve" smooth="yes"/>
			<point x="375" y="-230"/>
			<point x="423" y="-189"/>
			<point x="424" y="-122" type="curve" smooth="yes"/>
			<point x="424" y="-75"/>
			<point x="398" y="-50"/>
			<point x="347" y="-46" type="curve"/>
			<point x="368" y="-12" type="line"/>
			<point x="431" y="-12"/>
			<point x="476" y="-2"/>
			<point x="511" y="12" type="curve"/>
			<point x="529" y="136" type="line"/>
			<point x="487" y="120"/>
			<point x="446" y="113"/>
			<point x="401" y="113" type="curve" smooth="yes"/>
			<point x="248" y="113"/>
			<point x="196" y="225"/>
			<point x="217" y="369" type="curve" smooth="yes"/>
			<point x="218" y="376" type="line" smooth="yes"/>
			<point x="237" y="508"/>
			<point x="310" y="571"/>
			<point x="431" y="571" type="curve" smooth="yes"/>
			<point x="485" y="571"/>
			<point x="539" y="559"/>
			<point x="584" y="532" type="curve"/>
			<point x="601" y="655" type="line"/>
			<point x="563" y="676"/>
			<point x="500" y="695"/>
			<point x="421" y="695" type="curve" smooth="yes"/>
			<point x="212" y="695"/>
			<point x="92" y="571"/>
			<point x="66" y="394" type="curve" smooth="yes"/>
			<point x="64" y="380" type="line" smooth="yes"/>
			<point x="37" y="193"/>
			<point x="103" y="28"/>
			<point x="296" y="-6" type="curve"/>
			<point x="245" y="-94" type="line"/>
			<point x="259" y="-92"/>
			<point x="269" y="-91"/>
			<point x="277" y="-91" type="curve" smooth="yes"/>
			<point x="313" y="-91"/>
			<point x="331" y="-101"/>
			<point x="331" y="-124" type="curve" smooth="yes"/>
			<point x="331" y="-148"/>
			<point x="313" y="-160"/>
			<point x="277" y="-160" type="curve" smooth="yes"/>
			<point x="248" y="-160"/>
			<point x="224" y="-153"/>
			<point x="205" y="-143" type="curve"/>
			<point x="197" y="-209" type="line"/>
			<point x="218" y="-221"/>
			<point x="254" y="-230"/>
		</contour>
	</outline>
</glyph>
<glyph name="multiply" format="2">
	<unicode hex="00D7"/>
	<advance width="600"/>
	<outline>
		<contour>
			<point x="132" y="68" type="line"/>
			<point x="297" y="214" type="line"/>
			<point x="417" y="70" type="line"/>
			<point x="510" y="152" type="line"/>
			<point x="390" y="297" type="line"/>
			<point x="557" y="445" type="line"/>
			<point x="479" y="535" type="line"/>
			<point x="314" y="389" type="line"/>
			<point x="194" y="534" type="line"/>
			<point x="100" y="452" type="line"/>
			<point x="221" y="307" type="line"/>
			<point x="54" y="159" type="line"/>
		</contour>
	</outline>
</glyph>
<glyph name="germandbls" format="2">
	<unicode hex="00DF"/>
	<advance width="600"/>
	<outline>
		<contour>
			<point x="336" y="-9" type="curve" smooth="yes"/>
			<point x="470" y="-9"/>
			<point x="556" y="76"/>
			<point x="556" y="211" type="curve" smooth="yes"/>
			<point x="556" y="302"/>
			<point x="501" y="356"/>
			<point x="412" y="373" type="curve"/>
			<point x="514" y="393"/>
			<point x="579" y="464"/>
			<point x="579" y="579" type="curve" smooth="yes"/>
			<point x="579" y="693"/>
			<point x="500" y="760"/>
			<point x="358" y="760" type="curve" smooth="yes"/>
			<point x="180" y="760"/>
			<point x="106" y="655"/>
			<point x="88" y="527" type="curve" smooth="yes"/>
			<point x="14" y="0" type="line"/>
			<point x="161" y="0" type="line"/>
			<point x="237" y="535" type="line" smooth="yes"/>
			<point x="248" y="608"/>
			<point x="283" y="645"/>
			<point x="347" y="645" type="curve" smooth="yes"/>
			<point x="405" y="645"/>
			<point x="436" y="615"/>
			<point x="436" y="557" type="curve" smooth="yes"/>
			<point x="436" y="481"/>
			<point x="395" y="430"/>
			<point x="331" y="430" type="curve" smooth="yes"/>
			<point x="272" y="430" type="line"/>
			<point x="255" y="311" type="line"/>
			<point x="305" y="311" type="line" smooth="yes"/>
			<point x="376" y="311"/>
			<point x="407" y="278"/>
			<point x="407" y="211" type="curve" smooth="yes"/>
			<point x="407" y="142"/>
			<point x="369" y="98"/>
			<point x="304" y="98" type="curve" smooth="yes"/>
			<point x="275" y="98"/>
			<point x="252" y="105"/>
			<point x="233" y="116" type="curve"/>
			<point x="219" y="15" type="line"/>
			<point x="241" y="2"/>
			<point x="283" y="-9"/>
		</contour>
	</outline>
</glyph>
<glyph name="ae" format="2">
	<unicode hex="00E6"/>
	<advance width="600"/>
	<outline>
		<contour>
			<point x="98" y="-14" type="curve" smooth="yes"/>
			<point x="151" y="-14"/>
			<point x="201" y="17"/>
			<point x="234" y="100" type="curve"/>
			<point x="258" y="21"/>
			<point x="316" y="-14"/>
			<point x="411" y="-14" type="curve" smooth="yes"/>
			<point x="455" y="-14"/>
			<point x="507" y="1"/>
			<point x="533" y="18" type="curve"/>
			<point x="549" y="129" type="line"/>
			<point x="513" y="110"/>
			<point x="477" y="98"/>
			<point x="441" y="98" type="curve" smooth="yes"/>
			<point x="366" y="98"/>
			<point x="336" y="141"/>
			<point x="346" y="224" type="curve"/>
			<point x="582" y="224" type="line"/>
			<point x="591" y="282" type="line" smooth="yes"/>
			<point x="614" y="434"/>
			<point x="574" y="537"/>
			<point x="454" y="537" type="curve" smooth="yes"/>
			<point x="407" y="537"/>
			<point x="368" y="519"/>
			<point x="334" y="482" type="curve"/>
			<point x="311" y="518"/>
			<point x="271" y="537"/>
			<point x="214" y="537" type="curve" smooth="yes"/>
			<point x="143" y="537"/>
			<point x="90" y="512"/>
			<point x="57" y="493" type="curve"/>
			<point x="40" y="374" type="line"/>
			<point x="83" y="407"/>
			<point x="135" y="425"/>
			<point x="180" y="425" type="curve" smooth="yes"/>
			<point x="231" y="425"/>
			<point x="253" y="399"/>
			<point x="244" y="335" type="curve" smooth="yes"/>
			<point x="242" y="323" type="line"/>
			<point x="186" y="313" type="line" smooth="yes"/>
			<point x="65" y="291"/>
			<point x="-7" y="227"/>
			<point x="-7" y="107" type="curve" smooth="yes"/>
			<point x="-7" y="27"/>
			<point x="38" y="-14"/>
		</contour>
		<contour>
			<point x="436" y="435" type="curve" smooth="yes"/>
			<point x="477" y="435"/>
			<point x="486" y="385"/>
			<point x="478" y="308" type="curve"/>
			<point x="356" y="308" type="line"/>
			<point x="369" y="394"/>
			<point x="397" y="435"/>
		</contour>
		<contour>
			<point x="109" y="139" type="curve" smooth="yes"/>
			<point x="109" y="191"/>
			<point x="139" y="222"/>
			<point x="195" y="233" type="curve" smooth="yes"/>
			<point x="230" y="239" type="line"/>
			<point x="218" y="157" type="line" smooth="yes"/>
			<point x="212" y="111"/>
			<point x="188" y="83"/>
			<point x="154" y="83" type="curve" smooth="yes"/>
			<point x="125" y="83"/>
			<point x="109" y="103"/>
		</contour>
	</outline>
	<anchor name="top" x="333" y="523"/>
</glyph>
<glyph name="eth" format="2">
	<unicode hex="00F0"/>
	<advance width="600"/>
	<outline>
		<contour>
			<point x="275" y="-14" type="curve" smooth="yes"/>
			<point x="429" y="-14"/>
			<point x="530" y="78"/>
			<point x="557" y="263" type="curve" smooth="yes"/>
			<point x="559" y="277" type="line" smooth="yes"/>
			<point x="578" y="404"/>
			<point x="554" y="529"/>
			<point x="495" y="629" type="curve"/>
			<point x="579" y="656" type="line"/>
			<point x="591" y="743" type="line"/>
			<point x="446" y="697" type="line"/>
			<point x="430" y="716"/>
			<point x="412" y="734"/>
			<point x="392" y="750" type="curve"/>
			<point x="201" y="750" type="line"/>
			<point x="243" y="716"/>
			<point x="277" y="684"/>
			<point x="305" y="652" type="curve"/>
			<point x="208" y="621" type="line"/>
			<point x="196" y="534" type="line"/>
			<point x="354" y="584" type="line"/>
			<point x="388" y="528"/>
			<point x="406" y="467"/>
			<point x="413" y="396" type="curve"/>
			<point x="384" y="454"/>
			<point x="334" y="500"/>
			<point x="256" y="500" type="curve" smooth="yes"/>
			<point x="151" y="500"/>
			<point x="67" y="423"/>
			<point x="47" y="285" type="curve" smooth="yes"/>
			<point x="45" y="271" type="line" smooth="yes"/>
			<point x="21" y="107"/>
			<point x="94" y="-14"/>
		</contour>
		<contour>
			<point x="285" y="101" type="curve" smooth="yes"/>
			<point x="212" y="101"/>
			<point x="179" y="159"/>
			<point x="192" y="254" type="curve" smooth="yes"/>
			<point x="193" y="261" type="line" smooth="yes"/>
			<point x="205" y="345"/>
			<point x="245" y="394"/>
			<point x="308" y="394" type="curve" smooth="yes"/>
			<point x="378" y="394"/>
			<point x="415" y="344"/>
			<point x="403" y="247" type="curve" smooth="yes"/>
			<point x="402" y="239" type="line" smooth="yes"/>
			<point x="391" y="152"/>
			<point x="351" y="101"/>
		</contour>
	</outline>
</glyph>
<glyph name="divide" format="2">
	<unicode hex="00F7"/>
	<advance width="600"/>
	<outline>
		<contour>
			<point x="323" y="430" type="curve" smooth="yes"/>
			<point x="386" y="430"/>
			<point x="423" y="449"/>
			<point x="430" y="501" type="curve" smooth="yes"/>
			<point x="438" y="552"/>
			<point x="406" y="571"/>
			<point x="343" y="571" type="curve" smooth="yes"/>
			<point x="280" y="571"/>
			<point x="244" y="552"/>
			<point x="237" y="501" type="curve" smooth="yes"/>
			<point x="230" y="449"/>
			<point x="259" y="430"/>
		</contour>
		<contour>
			<point x="62" y="233" type="line"/>
			<point x="531" y="233" type="line"/>
			<point x="547" y="356" type="line"/>
			<point x="78" y="356" type="line"/>
		</contour>
		<contour>
			<point x="265" y="18" type="curve" smooth="yes"/>
			<point x="328" y="18"/>
			<point x="364" y="37"/>
			<point x="372" y="89" type="curve" smooth="yes"/>
			<point x="378" y="140"/>
			<point x="348" y="159"/>
			<point x="285" y="159" type="curve" smooth="yes"/>
			<point x="221" y="159"/>
			<point x="185" y="140"/>
			<point x="178" y="89" type="curve" smooth="yes"/>
			<point x="170" y="37"/>
			<point x="201" y="18"/>
		</contour>
	</outline>
</glyph>
<glyph name="dcaron" format="2">
	<unicode hex="010F"/>
	<advance width="600"/>
	<outline>
		<contour>
			<point x="188" y="-14" type="curve" smooth="yes"/>
			<point x="254" y="-14"/>
			<point x="310" y="22"/>
			<point x="352" y="101" type="curve"/>
			<point x="338" y="0" type="line"/>
			<point x="471" y="0" type="line"/>
			<point x="577" y="750" type="line"/>
			<point x="438" y="750" type="line"/>
			<point x="406" y="523" type="line"/>
			<point x="354" y="523" type="line" smooth="yes"/>
			<point x="176" y="523"/>
			<point x="72" y="423"/>
			<point x="48" y="260" type="curve" smooth="yes"/>
			<point x="46" y="246" type="line" smooth="yes"/>
			<point x="23" y="83"/>
			<point x="79" y="-14"/>
		</contour>
		<contour>
			<point x="597" y="560" type="line"/>
			<point x="668" y="560" type="line"/>
			<point x="757" y="750" type="line"/>
			<point x="634" y="750" type="line"/>
		</contour>
		<contour>
			<point x="262" y="95" type="curve" smooth="yes"/>
			<point x="202" y="95"/>
			<point x="172" y="152"/>
			<point x="186" y="252" type="curve" smooth="yes"/>
			<point x="187" y="259" type="line" smooth="yes"/>
			<point x="203" y="369"/>
			<point x="252" y="417"/>
			<point x="344" y="417" type="curve" smooth="yes"/>
			<point x="391" y="417" type="line"/>
			<point x="362" y="209" type="line" smooth="yes"/>
			<point x="353" y="138"/>
			<point x="314" y="95"/>
		</contour>
	</outline>
</glyph>
<glyph name="eogonek" format="2">
	<unicode hex="0119"/>
	<advance width="600"/>
	<outline>
		<contour>
			<point x="347" y="-203" type="curve" smooth="yes"/>
			<point x="374" y="-203"/>
			<point x="400" y="-198"/>
			<point x="413" y="-193" type="curve"/>
			<point x="426" y="-103" type="line"/>
			<point x="422" y="-105"/>
			<point x="409" y="-107"/>
			<point x="396" y="-107" type="curve" smooth="yes"/>
			<point x="366" y="-107"/>
			<point x="347" y="-97"/>
			<point x="347" y="-73" type="curve" smooth="yes"/>
			<point x="347" y="-44"/>
			<point x="371" y="-19"/>
			<point x="431" y="0" type="curve"/>
			<point x="455" y="6"/>
			<point x="475" y="13"/>
			<point x="491" y="21" type="curve"/>
			<point x="506" y="134" type="line"/>
			<point x="469" y="118"/>
			<point x="412" y="103"/>
			<point x="354" y="103" type="curve" smooth="yes"/>
			<point x="249" y="103"/>
			<point x="201" y="145"/>
			<point x="197" y="223" type="curve"/>
			<point x="542" y="223" type="line"/>
			<point x="548" y="267" type="line" smooth="yes"/>
			<point x="571" y="433"/>
			<point x="488" y="537"/>
			<point x="329" y="537" type="curve" smooth="yes"/>
			<point x="189" y="537"/>
			<point x="80" y="446"/>
			<point x="58" y="296" type="curve" smooth="yes"/>
			<point x="56" y="282" type="line" smooth="yes"/>
			<point x="32" y="115"/>
			<point x="110" y="-10"/>
			<point x="303" y="-14" type="curve"/>
			<point x="253" y="-39"/>
			<point x="225" y="-74"/>
			<point x="225" y="-120" type="curve" smooth="yes"/>
			<point x="225" y="-175"/>
			<point x="268" y="-203"/>
		</contour>
		<contour>
			<point x="321" y="434" type="curve" smooth="yes"/>
			<point x="383" y="434"/>
			<point x="419" y="393"/>
			<point x="412" y="312" type="curve"/>
			<point x="202" y="312" type="line"/>
			<point x="216" y="389"/>
			<point x="257" y="434"/>
		</contour>
	</outline>
</glyph>
<glyph name="Hbar" format="2">
	<unicode hex="0126"/>
	<advance width="600"/>
	<outline>
		<contour>
			<point x="20" y="0" type="line"/>
			<point x="169" y="0" type="line"/>
			<point x="206" y="266" type="line"/>
			<point x="394" y="266" type="line"/>
			<point x="357" y="0" type="line"/>
			<point x="506" y="0" type="line"/>
			<point x="574" y="486" type="line"/>
			<point x="631" y="486" type="line"/>
			<point x="644" y="572" type="line"/>
			<point x="586" y="572" type="line"/>
			<point x="602" y="684" type="line"/>
			<point x="453" y="684" type="line"/>
			<point x="437" y="572" type="line"/>
			<point x="249" y="572" type="line"/>
			<point x="265" y="684" type="line"/>
			<point x="116" y="684" type="line"/>
			<point x="100" y="572" type="line"/>
			<point x="44" y="572" type="line"/>
			<point x="31" y="486" type="line"/>
			<point x="88" y="486" type="line"/>
		</contour>
		<contour>
			<point x="224" y="389" type="line"/>
			<point x="237" y="486" type="line"/>
			<point x="425" y="486" type="line"/>
			<point x="412" y="389" type="line"/>
		</contour>
	</outline>
	<anchor name="center" x="338" y="535"/>
	<anchor name="bottom" x="296" y="0"/>
	<anchor name="top" x="359" y="684"/>
</glyph>
<glyph name="Iogonek" format="2">
	<unicode hex="012E"/>
	<advance width="600"/>
	<outline>
		<contour>
			<point x="32" y="0" type="line"/>
			<point x="396" y="0" type="line"/>
			<point x="327" y="-25"/>
			<point x="286" y="-64"/>
			<point x="286" y="-120" type="curve" smooth="yes"/>
			<point x="286" y="-175"/>
			<point x="329" y="-203"/>
			<point x="408" y="-203" type="curve" smooth="yes"/>
			<point x="435" y="-203"/>
			<point x="461" y="-198"/>
			<point x="474" y="-193" type="curve"/>
			<point x="487" y="-103" type="line"/>
			<point x="483" y="-105"/>
			<point x="470" y="-107"/>
			<point x="457" y="-107" type="curve" smooth="yes"/>
			<point x="427" y="-107"/>
			<point x="408" y="-97"/>
			<point x="408" y="-73" type="curve" smooth="yes"/>
			<point x="408" y="-44"/>
			<point x="432" y="-19"/>
			<point x="493" y="0" type="curve"/>
			<point x="509" y="117" type="line"/>
			<point x="354" y="117" type="line"/>
			<point x="417" y="567" type="line"/>
			<point x="573" y="567" type="line"/>
			<point x="589" y="684" type="line"/>
			<point x="129" y="684" type="line"/>
			<point x="112" y="567" type="line"/>
			<point x="267" y="567" type="line"/>
			<point x="204" y="117" type="line"/>
			<point x="49" y="117" type="line"/>
		</contour>
	</outline>
</glyph>
<glyph name="iogonek" format="2">
	<unicode hex="012F"/>
	<advance width="600"/>
	<outline>
		<contour>
			<point x="373" y="605" type="curve" smooth="yes"/>
			<point x="436" y="605"/>
			<point x="463" y="628"/>
			<point x="469" y="677" type="curve" smooth="yes"/>
			<point x="474" y="729"/>
			<point x="450" y="753"/>
			<point x="384" y="753" type="curve" smooth="yes"/>
			<point x="322" y="753"/>
			<point x="294" y="731"/>
			<point x="289" y="681" type="curve" smooth="yes"/>
			<point x="283" y="630"/>
			<point x="308" y="605"/>
		</contour>
		<contour>
			<point x="36" y="0" type="line"/>
			<point x="422" y="0" type="line"/>
			<point x="353" y="-25"/>
			<point x="312" y="-64"/>
			<point x="312" y="-120" type="curve" smooth="yes"/>
			<point x="312" y="-175"/>
			<point x="355" y="-203"/>
			<point x="434" y="-203" type="curve" smooth="yes"/>
			<point x="461" y="-203"/>
			<point x="487" y="-198"/>
			<point x="500" y="-193" type="curve"/>
			<point x="513" y="-103" type="line"/>
			<point x="509" y="-105"/>
			<point x="496" y="-107"/>
			<point x="483" y="-107" type="curve" smooth="yes"/>
			<point x="453" y="-107"/>
			<point x="434" y="-97"/>
			<point x="434" y="-73" type="curve" smooth="yes"/>
			<point x="434" y="-44"/>
			<point x="458" y="-19"/>
			<point x="519" y="0" type="curve"/>
			<point x="536" y="115" type="line"/>
			<point x="373" y="115" type="line"/>
			<point x="431" y="523" type="line"/>
			<point x="111" y="523" type="line"/>
			<point x="94" y="408" type="line"/>
			<point x="268" y="408" type="line"/>
			<point x="226" y="115" type="line"/>
			<point x="52" y="115" type="line"/>
		</contour>
	</outline>
</glyph>
<glyph name="dotlessi" format="2">
	<unicode hex="0131"/>
	<advance width="600"/>
	<outline>
		<contour>
			<point x="36" y="0" type="line"/>
			<point x="519" y="0" type="line"/>
			<point x="536" y="115" type="line"/>
			<point x="373" y="115" type="line"/>
			<point x="431" y="523" type="line"/>
			<point x="111" y="523" type="line"/>
			<point x="94" y="408" type="line"/>
			<point x="267" y="408" type="line"/>
			<point x="225" y="115" type="line"/>
			<point x="52" y="115" type="line"/>
		</contour>
	</outline>
	<anchor name="ogonek" x="519" y="0"/>
	<anchor name="top" x="357" y="523"/>
</glyph>
<glyph name="IJ" format="2">
	<unicode hex="0132"/>
	<advance width="600"/>
	<outline>
		<contour>
			<point x="235" y="-12" type="curve" smooth="yes"/>
			<point x="393" y="-12"/>
			<point x="495" y="59"/>
			<point x="518" y="224" type="curve" smooth="yes"/>
			<point x="583" y="684" type="line"/>
			<point x="436" y="684" type="line"/>
			<point x="375" y="252" type="line" smooth="yes"/>
			<point x="361" y="147"/>
			<point x="307" y="112"/>
			<point x="217" y="112" type="curve" smooth="yes"/>
			<point x="160" y="112"/>
			<point x="103" y="126"/>
			<point x="61" y="150" type="curve"/>
			<point x="44" y="28" type="line"/>
			<point x="88" y="4"/>
			<point x="152" y="-12"/>
		</contour>
		<contour>
			<point x="73" y="223" type="line"/>
			<point x="217" y="223" type="line"/>
			<point x="281" y="684" type="line"/>
			<point x="137" y="684" type="line"/>
		</contour>
	</outline>
</glyph>
<glyph name="ldot" format="2">
	<unicode hex="0140"/>
	<advance width="600"/>
	<outline>
		<contour>
			<point x="27" y="0" type="line"/>
			<point x="510" y="0" type="line"/>
			<point x="527" y="115" type="line"/>
			<point x="364" y="115" type="line"/>
			<point x="454" y="750" type="line"/>
			<point x="135" y="750" type="line"/>
			<point x="118" y="635" type="line"/>
			<point x="291" y="635" type="line"/>
			<point x="217" y="115" type="line"/>
			<point x="43" y="115" type="line"/>
		</contour>
		<contour>
			<point x="609" y="277" type="curve" smooth="yes"/>
			<point x="673" y="277"/>
			<point x="697" y="311"/>
			<point x="706" y="372" type="curve" smooth="yes"/>
			<point x="718" y="440"/>
			<point x="691" y="477"/>
			<point x="629" y="477" type="curve" smooth="yes"/>
			<point x="566" y="477"/>
			<point x="542" y="444"/>
			<point x="533" y="383" type="curve" smooth="yes"/>
			<point x="523" y="314"/>
			<point x="547" y="277"/>
		</contour>
	</outline>
</glyph>
<glyph name="Lslash" format="2">
	<unicode hex="0141"/>
	<advance width="600"/>
	<outline>
		<contour>
			<point x="47" y="0" type="line"/>
			<point x="516" y="0" type="line"/>
			<point x="536" y="136" type="line"/>
			<point x="215" y="136" type="line"/>
			<point x="240" y="317" type="line"/>
			<point x="421" y="383" type="line"/>
			<point x="436" y="489" type="line"/>
			<point x="255" y="423" type="line"/>
			<point x="292" y="684" type="line"/>
			<point x="143" y="684" type="line"/>
			<point x="98" y="366" type="line"/>
			<point x="19" y="337" type="line"/>
			<point x="4" y="231" type="line"/>
			<point x="83" y="260" type="line"/>
		</contour>
	</outline>
</glyph>
<glyph name="Eng" format="2">
	<unicode hex="014A"/>
	<advance width="600"/>
	<outline>
		<contour>
			<point x="285" y="-207" type="curve" smooth="yes"/>
			<point x="407" y="-207"/>
			<point x="486" y="-153"/>
			<point x="506" y="-9" type="curve" smooth="yes"/>
			<point x="603" y="684" type="line"/>
			<point x="476" y="684" type="line"/>
			<point x="440" y="429" type="line" smooth="yes"/>
			<point x="426" y="328"/>
			<point x="423" y="263"/>
			<point x="422" y="170" type="curve"/>
			<point x="413" y="170" type="line"/>
			<point x="284" y="684" type="line"/>
			<point x="115" y="684" type="line"/>
			<point x="19" y="0" type="line"/>
			<point x="147" y="0" type="line"/>
			<point x="182" y="255" type="line" smooth="yes"/>
			<point x="194" y="343"/>
			<point x="196" y="422"/>
			<point x="199" y="514" type="curve"/>
			<point x="208" y="514" type="line"/>
			<point x="338" y="0" type="line"/>
			<point x="372" y="0" type="line"/>
			<point x="372" y="-1" type="line" smooth="yes"/>
			<point x="361" y="-82"/>
			<point x="324" y="-100"/>
			<point x="260" y="-100" type="curve" smooth="yes"/>
			<point x="229" y="-100"/>
			<point x="198" y="-93"/>
			<point x="178" y="-86" type="curve"/>
			<point x="163" y="-187" type="line"/>
			<point x="191" y="-198"/>
			<point x="235" y="-207"/>
		</contour>
	</outline>
	<anchor name="top" x="413" y="720"/>
	<anchor name="bottom" x="261" y="0"/>
</glyph>
<glyph name="oe" format="2">
	<unicode hex="0153"/>
	<advance width="600"/>
	<outline>
		<contour>
			<point x="109" y="-14" type="curve" smooth="yes"/>
			<point x="164" y="-14"/>
			<point x="210" y="19"/>
			<point x="240" y="110" type="curve"/>
			<point x="260" y="21"/>
			<point x="321" y="-14"/>
			<point x="413" y="-14" type="curve" smooth="yes"/>
			<point x="459" y="-14"/>
			<point x="507" y="0"/>
			<point x="536" y="18" type="curve"/>
			<point x="552" y="128" type="line"/>
			<point x="514" y="107"/>
			<point x="477" y="98"/>
			<point x="442" y="98" type="curve" smooth="yes"/>
			<point x="370" y="98"/>
			<point x="344" y="135"/>
			<point x="352" y="227" type="curve"/>
			<point x="586" y="227" type="line"/>
			<point x="594" y="282" type="line" smooth="yes"/>
			<point x="615" y="434"/>
			<point x="577" y="537"/>
			<point x="456" y="537" type="curve" smooth="yes"/>
			<point x="408" y="537"/>
			<point x="368" y="517"/>
			<point x="333" y="474" type="curve"/>
			<point x="313" y="513"/>
			<point x="273" y="537"/>
			<point x="216" y="537" type="curve" smooth="yes"/>
			<point x="101" y="537"/>
			<point x="36" y="444"/>
			<point x="12" y="277" type="curve" smooth="yes"/>
			<point x="10" y="263" type="line" smooth="yes"/>
			<point x="-16" y="83"/>
			<point x="17" y="-14"/>
		</contour>
		<contour>
			<point x="440" y="435" type="curve" smooth="yes"/>
			<point x="479" y="435"/>
			<point x="490" y="385"/>
			<point x="482" y="306" type="curve"/>
			<point x="361" y="306" type="line"/>
			<point x="373" y="389"/>
			<point x="396" y="435"/>
		</contour>
		<contour>
			<point x="170" y="99" type="curve" smooth="yes"/>
			<point x="126" y="99"/>
			<point x="114" y="149"/>
			<point x="131" y="267" type="curve" smooth="yes"/>
			<point x="132" y="274" type="line" smooth="yes"/>
			<point x="148" y="393"/>
			<point x="172" y="432"/>
			<point x="209" y="432" type="curve" smooth="yes"/>
			<point x="253" y="432"/>
			<point x="264" y="386"/>
			<point x="246" y="260" type="curve" smooth="yes"/>
			<point x="245" y="253" type="line" smooth="yes"/>
			<point x="229" y="142"/>
			<point x="207" y="99"/>
		</contour>
	</outline>
</glyph>
<glyph name="Scedilla" format="2">
	<unicode hex="015E"/>
	<advance width="600"/>
	<outline>
		<contour>
			<point x="233" y="-230" type="curve" smooth="yes"/>
			<point x="317" y="-230"/>
			<point x="365" y="-189"/>
			<point x="366" y="-122" type="curve" smooth="yes"/>
			<point x="366" y="-75"/>
			<point x="340" y="-50"/>
			<point x="289" y="-46" type="curve"/>
			<point x="310" y="-12" type="line"/>
			<point x="458" y="-3"/>
			<point x="547" y="89"/>
			<point x="547" y="226" type="curve" smooth="yes"/>
			<point x="547" y="348"/>
			<point x="474" y="381"/>
			<point x="340" y="412" type="curve" smooth="yes"/>
			<point x="262" y="431"/>
			<point x="228" y="445"/>
			<point x="228" y="494" type="curve" smooth="yes"/>
			<point x="228" y="547"/>
			<point x="266" y="578"/>
			<point x="339" y="578" type="curve" smooth="yes"/>
			<point x="414" y="578"/>
			<point x="511" y="550"/>
			<point x="568" y="506" type="curve"/>
			<point x="587" y="633" type="line"/>
			<point x="538" y="666"/>
			<point x="447" y="698"/>
			<point x="340" y="698" type="curve" smooth="yes"/>
			<point x="171" y="698"/>
			<point x="79" y="604"/>
			<point x="79" y="466" type="curve" smooth="yes"/>
			<point x="79" y="330"/>
			<point x="171" y="299"/>
			<point x="288" y="273" type="curve" smooth="yes"/>
			<point x="357" y="258"/>
			<point x="398" y="249"/>
			<point x="398" y="196" type="curve" smooth="yes"/>
			<point x="398" y="140"/>
			<point x="355" y="108"/>
			<point x="285" y="108" type="curve" smooth="yes"/>
			<point x="205" y="108"/>
			<point x="116" y="141"/>
			<point x="53" y="195" type="curve"/>
			<point x="34" y="65" type="line"/>
			<point x="85" y="26"/>
			<point x="155" y="-2"/>
			<point x="235" y="-10" type="curve"/>
			<point x="187" y="-94" type="line"/>
			<point x="201" y="-92"/>
			<point x="211" y="-91"/>
			<point x="219" y="-91" type="curve" smooth="yes"/>
			<point x="255" y="-91"/>
			<point x="273" y="-101"/>
			<point x="273" y="-124" type="curve" smooth="yes"/>
			<point x="273" y="-148"/>
			<point x="255" y="-160"/>
			<point x="219" y="-160" type="curve" smooth="yes"/>
			<point x="190" y="-160"/>
			<point x="166" y="-153"/>
			<point x="147" y="-143" type="curve"/>
			<point x="139" y="-209" type="line"/>
			<point x="160" y="-221"/>
			<point x="196" y="-230"/>
		</contour>
	</outline>
</glyph>
<glyph name="scedilla" format="2">
	<unicode hex="015F"/>
	<advance width="600"/>
	<outline>
		<contour>
			<point x="228" y="-230" type="curve" smooth="yes"/>
			<point x="312" y="-230"/>
			<point x="360" y="-189"/>
			<point x="361" y="-122" type="curve" smooth="yes"/>
			<point x="361" y="-75"/>
			<point x="335" y="-50"/>
			<point x="284" y="-46" type="curve"/>
			<point x="304" y="-13" type="line"/>
			<point x="437" y="-3"/>
			<point x="510" y="65"/>
			<point x="510" y="180" type="curve" smooth="yes"/>
			<point x="510" y="282"/>
			<point x="428" y="304"/>
			<point x="324" y="326" type="curve" smooth="yes"/>
			<point x="257" y="339"/>
			<point x="232" y="348"/>
			<point x="232" y="380" type="curve" smooth="yes"/>
			<point x="232" y="414"/>
			<point x="264" y="432"/>
			<point x="317" y="432" type="curve" smooth="yes"/>
			<point x="390" y="432"/>
			<point x="476" y="410"/>
			<point x="533" y="372" type="curve"/>
			<point x="549" y="488" type="line"/>
			<point x="494" y="518"/>
			<point x="410" y="538"/>
			<point x="327" y="538" type="curve" smooth="yes"/>
			<point x="167" y="538"/>
			<point x="91" y="458"/>
			<point x="91" y="347" type="curve" smooth="yes"/>
			<point x="91" y="242"/>
			<point x="174" y="215"/>
			<point x="278" y="198" type="curve" smooth="yes"/>
			<point x="347" y="187"/>
			<point x="370" y="178"/>
			<point x="370" y="147" type="curve" smooth="yes"/>
			<point x="370" y="108"/>
			<point x="335" y="93"/>
			<point x="278" y="93" type="curve" smooth="yes"/>
			<point x="212" y="93"/>
			<point x="127" y="114"/>
			<point x="67" y="158" type="curve"/>
			<point x="52" y="44" type="line"/>
			<point x="88" y="17"/>
			<point x="152" y="-6"/>
			<point x="229" y="-12" type="curve"/>
			<point x="182" y="-94" type="line"/>
			<point x="196" y="-92"/>
			<point x="206" y="-91"/>
			<point x="214" y="-91" type="curve" smooth="yes"/>
			<point x="250" y="-91"/>
			<point x="268" y="-101"/>
			<point x="268" y="-124" type="curve" smooth="yes"/>
			<point x="268" y="-148"/>
			<point x="250" y="-160"/>
			<point x="214" y="-160" type="curve" smooth="yes"/>
			<point x="185" y="-160"/>
			<point x="161" y="-153"/>
			<point x="142" y="-143" type="curve"/>
			<point x="134" y="-209" type="line"/>
			<point x="155" y="-221"/>
			<point x="191" y="-230"/>
		</contour>
	</outline>
</glyph>
<glyph name="Tbar" format="2">
	<unicode hex="0166"/>
	<advance width="600"/>
	<outline>
		<contour>
			<point x="188" y="0" type="line"/>
			<point x="337" y="0" type="line"/>
			<point x="379" y="289" type="line"/>
			<point x="495" y="289" type="line"/>
			<point x="509" y="386" type="line"/>
			<point x="393" y="386" type="line"/>
			<point x="417" y="556" type="line"/>
			<point x="611" y="556" type="line"/>
			<point x="628" y="684" type="line"/>
			<point x="90" y="684" type="line"/>
			<point x="72" y="556" type="line"/>
			<point x="267" y="556" type="line"/>
			<point x="243" y="386" type="line"/>
			<point x="124" y="386" type="line"/>
			<point x="111" y="289" type="line"/>
			<point x="229" y="289" type="line"/>
		</contour>
	</outline>
</glyph>
<glyph name="tbar" format="2">
	<unicode hex="0167"/>
	<advance width="600"/>
	<outline>
		<contour>
			<point x="53" y="233" type="line"/>
			<point x="177" y="233" type="line"/>
			<point x="171" y="188" type="line" smooth="yes"/>
			<point x="151" y="43"/>
			<point x="218" y="-12"/>
			<point x="352" y="-12" type="curve" smooth="yes"/>
			<point x="410" y="-12"/>
			<point x="456" y="-1"/>
			<point x="481" y="12" type="curve"/>
			<point x="496" y="119" type="line"/>
			<point x="472" y="110"/>
			<point x="440" y="104"/>
			<point x="408" y="104" type="curve" smooth="yes"/>
			<point x="339" y="104"/>
			<point x="309" y="127"/>
			<point x="320" y="205" type="curve" smooth="yes"/>
			<point x="324" y="233" type="line"/>
			<point x="509" y="233" type="line"/>
			<point x="522" y="321" type="line"/>
			<point x="336" y="321" type="line"/>
			<point x="348" y="408" type="line"/>
			<point x="542" y="408" type="line"/>
			<point x="558" y="523" type="line"/>
			<point x="366" y="523" type="line"/>
			<point x="390" y="692" type="line"/>
			<point x="258" y="692" type="line"/>
			<point x="236" y="588" type="line" smooth="yes"/>
			<point x="224" y="528"/>
			<point x="196" y="517"/>
			<point x="154" y="517" type="curve" smooth="yes"/>
			<point x="82" y="517" type="line"/>
			<point x="67" y="408" type="line"/>
			<point x="201" y="408" type="line"/>
			<point x="189" y="321" type="line"/>
			<point x="64" y="321" type="line"/>
		</contour>
	</outline>
</glyph>
<glyph name="oslashacute" format="2">
	<unicode hex="01FF"/>
	<advance width="600"/>
	<outline>
		<contour>
			<point x="520" y="750" type="line"/>
			<point x="358" y="750" type="line"/>
			<point x="282" y="600" type="line"/>
			<point x="395" y="600" type="line"/>
		</contour>
		<contour>
			<point x="279" y="-14" type="curve" smooth="yes"/>
			<point x="431" y="-14"/>
			<point x="527" y="80"/>
			<point x="549" y="231" type="curve" smooth="yes"/>
			<point x="551" y="245" type="line" smooth="yes"/>
			<point x="562" y="323"/>
			<point x="551" y="390"/>
			<point x="520" y="439" type="curve"/>
			<point x="620" y="547" type="line"/>
			<point x="502" y="547" type="line"/>
			<point x="460" y="501" type="line"/>
			<point x="423" y="524"/>
			<point x="377" y="537"/>
			<point x="323" y="537" type="curve" smooth="yes"/>
			<point x="175" y="537"/>
			<point x="72" y="442"/>
			<point x="51" y="293" type="curve" smooth="yes"/>
			<point x="49" y="279" type="line" smooth="yes"/>
			<point x="38" y="200"/>
			<point x="49" y="133"/>
			<point x="79" y="84" type="curve"/>
			<point x="-20" y="-24" type="line"/>
			<point x="98" y="-24" type="line"/>
			<point x="140" y="22" type="line"/>
			<point x="177" y="-1"/>
			<point x="224" y="-14"/>
		</contour>
		<contour>
			<point x="198" y="269" type="curve" smooth="yes"/>
			<point x="199" y="276" type="line" smooth="yes"/>
			<point x="214" y="377"/>
			<point x="255" y="423"/>
			<point x="314" y="423" type="curve" smooth="yes"/>
			<point x="339" y="423"/>
			<point x="361" y="415"/>
			<point x="376" y="400" type="curve"/>
			<point x="195" y="201" type="line"/>
			<point x="193" y="221"/>
			<point x="194" y="243"/>
		</contour>
		<contour>
			<point x="285" y="101" type="curve" smooth="yes"/>
			<point x="260" y="101"/>
			<point x="240" y="109"/>
			<point x="225" y="124" type="curve"/>
			<point x="405" y="322" type="line"/>
			<point x="406" y="303"/>
			<point x="406" y="281"/>
			<point x="402" y="256" type="curve" smooth="yes"/>
			<point x="401" y="249" type="line" smooth="yes"/>
			<point x="386" y="148"/>
			<point x="345" y="101"/>
		</contour>
	</outline>
</glyph>
<glyph name="caron" format="2">
	<unicode hex="02C7"/>
	<advance width="600"/>
	<outline>
		<contour>
			<point x="560" y="750" type="line"/>
			<point x="428" y="750" type="line"/>
			<point x="354" y="659" type="line"/>
			<point x="304" y="750" type="line"/>
			<point x="178" y="750" type="line"/>
			<point x="270" y="600" type="line"/>
			<point x="427" y="600" type="line"/>
		</contour>
	</outline>
	<anchor name="_top" x="338" y="523"/>
</glyph>
<glyph name="tilde" format="2">
	<unicode hex="02DC"/>
	<advance width="600"/>
	<outline>
		<contour>
			<point x="161" y="606" type="curve"/>
			<point x="259" y="606" type="line"/>
			<point x="265" y="641"/>
			<point x="276" y="661"/>
			<point x="300" y="661" type="curve"/>
			<point x="340" y="661"/>
			<point x="361" y="602"/>
			<point x="432" y="602" type="curve" smooth="yes"/>
			<point x="488" y="602"/>
			<point x="537" y="639"/>
			<point x="554" y="745" type="curve"/>
			<point x="455" y="745" type="line"/>
			<point x="450" y="711"/>
			<point x="439" y="693"/>
			<point x="417" y="693" type="curve" smooth="yes"/>
			<point x="376" y="693"/>
			<point x="346" y="749"/>
			<point x="280" y="749" type="curve" smooth="yes"/>
			<point x="220" y="749"/>
			<point x="177" y="706"/>
		</contour>
	</outline>
	<anchor name="_top" x="337" y="523"/>
</glyph>
<glyph name="pi" format="2">
	<unicode hex="03C0"/>
	<advance width="600"/>
	<outline>
		<contour>
			<point x="47" y="0" type="line"/>
			<point x="185" y="0" type="line"/>
			<point x="242" y="409" type="line"/>
			<point x="379" y="409" type="line"/>
			<point x="342" y="141" type="line" smooth="yes"/>
			<point x="327" y="35"/>
			<point x="364" y="-12"/>
			<point x="462" y="-12" type="curve" smooth="yes"/>
			<point x="497" y="-12"/>
			<point x="526" y="-6"/>
			<point x="540" y="-1" type="curve"/>
			<point x="554" y="98" type="line"/>
			<point x="551" y="97"/>
			<point x="538" y="95"/>
			<point x="527" y="95" type="curve" smooth="yes"/>
			<point x="493" y="95"/>
			<point x="475" y="110"/>
			<point x="480" y="144" type="curve" smooth="yes"/>
			<point x="516" y="409" type="line"/>
			<point x="598" y="409" type="line"/>
			<point x="615" y="523" type="line"/>
			<point x="48" y="523" type="line"/>
			<point x="32" y="409" type="line"/>
			<point x="104" y="409" type="line"/>
		</contour>
	</outline>
</glyph>
<glyph name="endash" format="2">
	<unicode hex="2013"/>
	<advance width="600"/>
	<outline>
		<contour>
			<point x="553" y="361" type="line"/>
			<point x="74" y="361" type="line"/>
			<point x="55" y="227" type="line"/>
			<point x="535" y="227" type="line"/>
		</contour>
	</outline>
</glyph>
<glyph name="quoteright" format="2">
	<unicode hex="2019"/>
	<advance width="600"/>
	<outline>
		<contour>
			<point x="312" y="750" type="line"/>
			<point x="225" y="446" type="line"/>
			<point x="323" y="446" type="line"/>
			<point x="481" y="750" type="line"/>
		</contour>
	</outline>
</glyph>
<glyph name="quotedblleft" format="2">
	<unicode hex="201C"/>
	<advance width="600"/>
	<outline>
		<contour>
			<point x="482" y="446" type="line"/>
			<point x="567" y="750" type="line"/>
			<point x="473" y="750" type="line"/>
			<point x="318" y="446" type="line"/>
		</contour>
		<contour>
			<point x="262" y="445" type="line"/>
			<point x="347" y="749" type="line"/>
			<point x="253" y="749" type="line"/>
			<point x="98" y="445" type="line"/>
		</contour>
	</outline>
</glyph>
<glyph name="perthousand" format="2">
	<unicode hex="2030"/>
	<advance width="600"/>
	<outline>
		<contour>
			<point x="179" y="393" type="curve" smooth="yes"/>
			<point x="263" y="393"/>
			<point x="316" y="444"/>
			<point x="329" y="531" type="curve" smooth="yes"/>
			<point x="345" y="644"/>
			<point x="284" y="691"/>
			<point x="201" y="691" type="curve" smooth="yes"/>
			<point x="117" y="691"/>
			<point x="64" y="640"/>
			<point x="52" y="554" type="curve" smooth="yes"/>
			<point x="35" y="441"/>
			<point x="95" y="393"/>
		</contour>
		<contour>
			<point x="183" y="464" type="curve" smooth="yes"/>
			<point x="144" y="464"/>
			<point x="132" y="492"/>
			<point x="140" y="545" type="curve" smooth="yes"/>
			<point x="147" y="594"/>
			<point x="164" y="621"/>
			<point x="197" y="621" type="curve" smooth="yes"/>
			<point x="236" y="621"/>
			<point x="248" y="592"/>
			<point x="240" y="540" type="curve" smooth="yes"/>
			<point x="234" y="491"/>
			<point x="216" y="464"/>
		</contour>
		<contour>
			<point x="16" y="259" type="line"/>
			<point x="591" y="400" type="line"/>
			<point x="602" y="471" type="line"/>
			<point x="26" y="329" type="line"/>
		</contour>
		<contour>
			<point x="226" y="-7" type="curve" smooth="yes"/>
			<point x="266" y="-7"/>
			<point x="299" y="6"/>
			<point x="325" y="29" type="curve"/>
			<point x="348" y="4"/>
			<point x="382" y="-7"/>
			<point x="420" y="-7" type="curve" smooth="yes"/>
			<point x="504" y="-7"/>
			<point x="558" y="44"/>
			<point x="570" y="131" type="curve" smooth="yes"/>
			<point x="587" y="244"/>
			<point x="528" y="291"/>
			<point x="446" y="291" type="curve" smooth="yes"/>
			<point x="406" y="291"/>
			<point x="373" y="278"/>
			<point x="347" y="255" type="curve"/>
			<point x="324" y="279"/>
			<point x="290" y="291"/>
			<point x="251" y="291" type="curve" smooth="yes"/>
			<point x="168" y="291"/>
			<point x="114" y="240"/>
			<point x="102" y="154" type="curve" smooth="yes"/>
			<point x="85" y="41"/>
			<point x="144" y="-7"/>
		</contour>
		<contour>
			<point x="233" y="64" type="curve" smooth="yes"/>
			<point x="194" y="64"/>
			<point x="182" y="92"/>
			<point x="189" y="145" type="curve" smooth="yes"/>
			<point x="197" y="194"/>
			<point x="213" y="221"/>
			<point x="248" y="221" type="curve" smooth="yes"/>
			<point x="286" y="221"/>
			<point x="297" y="192"/>
			<point x="290" y="140" type="curve" smooth="yes"/>
			<point x="283" y="91"/>
			<point x="267" y="64"/>
		</contour>
		<contour>
			<point x="424" y="64" type="curve" smooth="yes"/>
			<point x="385" y="64"/>
			<point x="373" y="92"/>
			<point x="381" y="145" type="curve" smooth="yes"/>
			<point x="388" y="194"/>
			<point x="405" y="221"/>
			<point x="438" y="221" type="curve" smooth="yes"/>
			<point x="477" y="221"/>
			<point x="489" y="192"/>
			<point x="481" y="140" type="curve" smooth="yes"/>
			<point x="474" y="91"/>
			<point x="458" y="64"/>
		</contour>
	</outline>
</glyph>
<glyph name="guilsinglleft" format="2">
	<unicode hex="2039"/>
	<advance width="600"/>
	<outline>
		<contour>
			<point x="281" y="77" type="line"/>
			<point x="458" y="77" type="line"/>
			<point x="285" y="285" type="line"/>
			<point x="518" y="497" type="line"/>
			<point x="334" y="497" type="line"/>
			<point x="107" y="287" type="line"/>
		</contour>
	</outline>
</glyph>
<glyph name="fraction" format="2">
	<unicode hex="2044"/>
	<advance width="600"/>
	<outline>
		<contour>
			<point x="390" y="411" type="line"/>
			<point x="504" y="411" type="line"/>
			<point x="638" y="684" type="line"/>
			<point x="502" y="684" type="line"/>
		</contour>
		<contour>
			<point x="-16" y="0" type="line"/>
			<point x="121" y="0" type="line"/>
			<point x="234" y="273" type="line"/>
			<point x="118" y="273" type="line"/>
		</contour>
	</outline>
</glyph>
<glyph name="arrowup" format="2">
	<unicode hex="2191"/>
	<advance width="600"/>
	<outline>
		<contour>
			<point x="205" y="0" type="line"/>
			<point x="322" y="0" type="line"/>
			<point x="392" y="499" type="line"/>
			<point x="535" y="332" type="line"/>
			<point x="555" y="479" type="line"/>
			<point x="362" y="703" type="line"/>
			<point x="105" y="477" type="line"/>
			<point x="85" y="332" type="line"/>
			<point x="274" y="500" type="line"/>
		</contour>
	</outline>
</glyph>
<glyph name="arrowright" format="2">
	<unicode hex="2192"/>
	<advance width="600"/>
	<outline>
		<contour>
			<point x="260" y="573" type="line"/>
			<point x="406" y="406" type="line"/>
			<point x="50" y="406" type="line"/>
			<point x="33" y="289" type="line"/>
			<point x="391" y="289" type="line"/>
			<point x="198" y="122" type="line"/>
			<point x="345" y="122" type="line"/>
			<point x="601" y="347" type="line"/>
			<point x="407" y="573" type="line"/>
		</contour>
	</outline>
</glyph>
<glyph name="uni2199" format="2">
	<unicode hex="2199"/>
	<advance width="600"/>
	<outline>
		<contour>
			<point x="9" y="65" type="line"/>
			<point x="338" y="65" type="line"/>
			<point x="455" y="168" type="line"/>
			<point x="213" y="166" type="line"/>
			<point x="618" y="523" type="line"/>
			<point x="543" y="611" type="line"/>
			<point x="138" y="255" type="line"/>
			<point x="174" y="496" type="line"/>
			<point x="55" y="392" type="line"/>
		</contour>
	</outline>
</glyph>
<glyph name="partialdiff" format="2">
	<unicode hex="2202"/>
	<advance width="600"/>
	<outline>
		<contour>
			<point x="277" y="-13" type="curve" smooth="yes"/>
			<point x="437" y="-13"/>
			<point x="529" y="95"/>
			<point x="554" y="261" type="curve" smooth="yes"/>
			<point x="556" y="275" type="line" smooth="yes"/>
			<point x="582" y="453"/>
			<point x="506" y="598"/>
			<point x="394" y="684" type="curve"/>
			<point x="182" y="684" type="line"/>
			<point x="315" y="598"/>
			<point x="380" y="513"/>
			<point x="405" y="412" type="curve"/>
			<point x="372" y="464"/>
			<point x="321" y="506"/>
			<point x="249" y="506" type="curve" smooth="yes"/>
			<point x="151" y="506"/>
			<point x="70" y="426"/>
			<point x="50" y="288" type="curve" smooth="yes"/>
			<point x="48" y="274" type="line" smooth="yes"/>
			<point x="25" y="107"/>
			<point x="99" y="-13"/>
		</contour>
		<contour>
			<point x="284" y="101" type="curve" smooth="yes"/>
			<point x="218" y="101"/>
			<point x="182" y="154"/>
			<point x="198" y="260" type="curve" smooth="yes"/>
			<point x="199" y="267" type="line" smooth="yes"/>
			<point x="213" y="365"/>
			<point x="254" y="405"/>
			<point x="312" y="405" type="curve" smooth="yes"/>
			<point x="371" y="405"/>
			<point x="417" y="364"/>
			<point x="401" y="253" type="curve" smooth="yes"/>
			<point x="400" y="246" type="line" smooth="yes"/>
			<point x="386" y="154"/>
			<point x="348" y="101"/>
		</contour>
	</outline>
</glyph>
<glyph name="increment" format="2">
	<unicode hex="2206"/>
	<advance width="600"/>
	<outline>
		<contour>
			<point x="-27" y="0" type="line"/>
			<point x="553" y="0" type="line"/>
			<point x="464" y="685" type="line"/>
			<point x="253" y="685" type="line"/>
		</contour>
		<contour>
			<point x="176" y="122" type="line"/>
			<point x="344" y="574" type="line"/>
			<point x="387" y="122" type="line"/>
		</contour>
	</outline>
</glyph>
<glyph name="minus" format="2">
	<unicode hex="2212"/>
	<advance width="600"/>
	<outline>
		<contour>
			<point x="62" y="233" type="line"/>
			<point x="530" y="233" type="line"/>
			<point x="547" y="356" type="line"/>
			<point x="79" y="356" type="line"/>
		</contour>
	</outline>
</glyph>
<glyph name="infinity" format="2">
	<unicode hex="221E"/>
	<advance width="600"/>
	<outline>
		<contour>
			<point x="204" y="592" type="curve" smooth="yes"/>
			<point x="109" y="592"/>
			<point x="56" y="515"/>
			<point x="32" y="352" type="curve" smooth="yes"/>
			<point x="5" y="169"/>
			<point x="44" y="75"/>
			<point x="152" y="75" type="curve" smooth="yes"/>
			<point x="224" y="75"/>
			<point x="269" y="129"/>
			<point x="292" y="207" type="curve"/>
			<point x="300" y="130"/>
			<point x="336" y="74"/>
			<point x="414" y="74" type="curve" smooth="yes"/>
			<point x="513" y="74"/>
			<point x="565" y="163"/>
			<point x="588" y="322" type="curve" smooth="yes"/>
			<point x="613" y="503"/>
			<point x="569" y="591"/>
			<point x="469" y="591" type="curve" smooth="yes"/>
			<point x="389" y="591"/>
			<point x="349" y="532"/>
			<point x="326" y="460" type="curve"/>
			<point x="320" y="534"/>
			<point x="283" y="592"/>
		</contour>
		<contour>
			<point x="179" y="187" type="curve" smooth="yes"/>
			<point x="137" y="187"/>
			<point x="124" y="234"/>
			<point x="140" y="344" type="curve" smooth="yes"/>
			<point x="153" y="442"/>
			<point x="174" y="480"/>
			<point x="212" y="480" type="curve" smooth="yes"/>
			<point x="252" y="480"/>
			<point x="267" y="439"/>
			<point x="251" y="326" type="curve" smooth="yes"/>
			<point x="238" y="230"/>
			<point x="219" y="187"/>
		</contour>
		<contour>
			<point x="407" y="187" type="curve" smooth="yes"/>
			<point x="369" y="187"/>
			<point x="350" y="223"/>
			<point x="366" y="341" type="curve" smooth="yes"/>
			<point x="378" y="438"/>
			<point x="399" y="480"/>
			<point x="439" y="480" type="curve" smooth="yes"/>
			<point x="487" y="480"/>
			<point x="491" y="415"/>
			<point x="479" y="327" type="curve" smooth="yes"/>
			<point x="466" y="228"/>
			<point x="446" y="187"/>
		</contour>
	</outline>
</glyph>
<glyph name="approxequal" format="2">
	<unicode hex="2248"/>
	<advance width="600"/>
	<outline>
		<contour>
			<point x="187" y="373" type="curve" smooth="yes"/>
			<point x="256" y="373"/>
			<point x="339" y="317"/>
			<point x="437" y="317" type="curve" smooth="yes"/>
			<point x="481" y="317"/>
			<point x="528" y="333"/>
			<point x="548" y="358" type="curve"/>
			<point x="566" y="489" type="line"/>
			<point x="529" y="450"/>
			<point x="489" y="440"/>
			<point x="447" y="441" type="curve" smooth="yes"/>
			<point x="378" y="442"/>
			<point x="285" y="497"/>
			<point x="204" y="497" type="curve" smooth="yes"/>
			<point x="161" y="497"/>
			<point x="114" y="482"/>
			<point x="93" y="457" type="curve"/>
			<point x="75" y="325" type="line"/>
			<point x="104" y="358"/>
			<point x="148" y="373"/>
		</contour>
		<contour>
			<point x="155" y="147" type="curve" smooth="yes"/>
			<point x="224" y="147"/>
			<point x="308" y="91"/>
			<point x="405" y="91" type="curve" smooth="yes"/>
			<point x="450" y="91"/>
			<point x="495" y="107"/>
			<point x="516" y="132" type="curve"/>
			<point x="534" y="261" type="line"/>
			<point x="499" y="225"/>
			<point x="460" y="212"/>
			<point x="415" y="213" type="curve" smooth="yes"/>
			<point x="354" y="215"/>
			<point x="252" y="269"/>
			<point x="169" y="269" type="curve" smooth="yes"/>
			<point x="127" y="269"/>
			<point x="81" y="253"/>
			<point x="61" y="229" type="curve"/>
			<point x="43" y="99" type="line"/>
			<point x="73" y="132"/>
			<point x="118" y="147"/>
		</contour>
	</outline>
</glyph>
<glyph name="notequal" format="2">
	<unicode hex="2260"/>
	<advance width="600"/>
	<outline>
		<contour>
			<point x="85" y="47" type="line"/>
			<point x="189" y="47" type="line"/>
			<point x="238" y="119" type="line"/>
			<point x="514" y="119" type="line"/>
			<point x="531" y="242" type="line"/>
			<point x="321" y="242" type="line"/>
			<point x="389" y="342" type="line"/>
			<point x="545" y="342" type="line"/>
			<point x="562" y="465" type="line"/>
			<point x="472" y="465" type="line"/>
			<point x="521" y="537" type="line"/>
			<point x="417" y="537" type="line"/>
			<point x="368" y="465" type="line"/>
			<point x="94" y="465" type="line"/>
			<point x="77" y="342" type="line"/>
			<point x="285" y="342" type="line"/>
			<point x="217" y="242" type="line"/>
			<point x="63" y="242" type="line"/>
			<point x="46" y="119" type="line"/>
			<point x="134" y="119" type="line"/>
		</contour>
	</outline>
</glyph>
<glyph name="lessequal" format="2">
	<unicode hex="2264"/>
	<advance width="600"/>
	<outline>
		<contour>
			<point x="519" y="162" type="line"/>
			<point x="538" y="291" type="line"/>
			<point x="204" y="416" type="line"/>
			<point x="573" y="539" type="line"/>
			<point x="592" y="673" type="line"/>
			<point x="99" y="500" type="line"/>
			<point x="76" y="338" type="line"/>
		</contour>
		<contour>
			<point x="29" y="0" type="line"/>
			<point x="497" y="0" type="line"/>
			<point x="514" y="123" type="line"/>
			<point x="46" y="123" type="line"/>
		</contour>
	</outline>
</glyph>
<glyph name="lozenge" format="2">
	<unicode hex="25CA"/>
	<advance width="600"/>
	<outline>
		<contour>
			<point x="169" y="0" type="line"/>
			<point x="359" y="0" type="line"/>
			<point x="594" y="336" type="line"/>
			<point x="456" y="684" type="line"/>
			<point x="265" y="684" type="line"/>
			<point x="28" y="346" type="line"/>
		</contour>
		<contour>
			<point x="184" y="341" type="line"/>
			<point x="349" y="583" type="line"/>
			<point x="438" y="343" type="line"/>
			<point x="276" y="102" type="line"/>
		</contour>
	</outline>
</glyph>
<glyph name="anglebracketleft" format="2">
	<unicode hex="3008"/>
	<advance width="600"/>
	<outline>
		<contour>
			<point x="334" y="-163" type="line"/>
			<point x="486" y="-163" type="line"/>
			<point x="277" y="308" type="line"/>
			<point x="627" y="792" type="line"/>
			<point x="467" y="792" type="line"/>
			<point x="124" y="316" type="line"/>
		</contour>
	</outline>
</glyph>
<glyph name="anglebracketright" format="2">
	<unicode hex="3009"/>
	<advance width="600"/>
	<outline>
		<contour>
			<point x="-12" y="-163" type="line"/>
			<point x="150" y="-163" type="line"/>
			<point x="491" y="314" type="line"/>
			<point x="276" y="792" type="line"/>
			<point x="129" y="792" type="line"/>
			<point x="339" y="326" type="line"/>
		</contour>
	</outline>
</glyph>
<glyph name="Lslashcomb" format="2">
	<advance width="600"/>
	<outline>
		<contour>
			<point x="16" y="404" type="line"/>
			<point x="1" y="298" type="line"/>
			<point x="418" y="450" type="line"/>
			<point x="433" y="556" type="line"/>
		</contour>
	</outline>
	<anchor name="_center" x="170" y="407"/>
</glyph>
<glyph name="asciicircum_equal.cLig" format="2">
	<advance width="600"/>
	<outline>
		<contour>
			<point x="-451" y="340" type="line"/>
			<point x="-321" y="340" type="line"/>
			<point x="-174" y="581" type="line"/>
			<point x="-95" y="340" type="line"/>
			<point x="31" y="340" type="line"/>
			<point x="30" y="342" type="line"/>
			<point x="438" y="342" type="line"/>
			<point x="455" y="465" type="line"/>
			<point x="-13" y="465" type="line"/>
			<point x="-13" y="463" type="line"/>
			<point x="-95" y="691" type="line"/>
			<point x="-228" y="691" type="line"/>
		</contour>
		<contour>
			<point x="-61" y="119" type="line"/>
			<point x="407" y="119" type="line"/>
			<point x="424" y="242" type="line"/>
			<point x="-44" y="242" type="line"/>
		</contour>
	</outline>
</glyph>
<glyph name="asciitilde_asciitilde_asciitilde.rem" format="2">
	<advance width="600"/>
	<outline>
		<contour>
			<point x="-587" y="187" type="curve"/>
			<point x="-482" y="187"/>
			<point x="-449" y="308"/>
			<point x="-377" y="308" type="curve" smooth="yes"/>
			<point x="-302" y="308"/>
			<point x="-288" y="187"/>
			<point x="-174" y="187" type="curve" smooth="yes"/>
			<point x="-65" y="187"/>
			<point x="-34" y="308"/>
			<point x="37" y="308" type="curve"/>
			<point x="116" y="308"/>
			<point x="129" y="187"/>
			<point x="251" y="187" type="curve"/>
			<point x="347" y="187"/>
			<point x="435" y="271"/>
			<point x="469" y="435" type="curve"/>
			<point x="352" y="435" type="line"/>
			<point x="332" y="369"/>
			<point x="301" y="324"/>
			<point x="246" y="324" type="curve"/>
			<point x="171" y="324"/>
			<point x="173" y="443"/>
			<point x="50" y="443" type="curve"/>
			<point x="-65" y="443"/>
			<point x="-95" y="325"/>
			<point x="-163" y="325" type="curve" smooth="yes"/>
			<point x="-241" y="325"/>
			<point x="-237" y="443"/>
			<point x="-364" y="443" type="curve" smooth="yes"/>
			<point x="-480" y="443"/>
			<point x="-508" y="325"/>
			<point x="-574" y="325" type="curve"/>
			<point x="-654" y="325"/>
			<point x="-667" y="443"/>
			<point x="-784" y="443" type="curve"/>
			<point x="-886" y="443"/>
			<point x="-972" y="362"/>
			<point x="-1005" y="195" type="curve"/>
			<point x="-886" y="195" type="line"/>
			<point x="-868" y="264"/>
			<point x="-842" y="308"/>
			<point x="-788" y="308" type="curve"/>
			<point x="-709" y="308"/>
			<point x="-705" y="187"/>
		</contour>
	</outline>
</glyph>
<glyph name="asciitilde_asciitilde_greater.cLig" format="2">
	<advance width="600"/>
	<outline>
		<contour>
			<point x="146" y="629" type="line"/>
			<point x="333" y="380" type="line"/>
			<point x="21" y="380" type="line"/>
			<point x="-8" y="424"/>
			<point x="-52" y="444"/>
			<point x="-98" y="444" type="curve" smooth="yes"/>
			<point x="-210" y="444"/>
			<point x="-237" y="319"/>
			<point x="-310" y="319" type="curve" smooth="yes"/>
			<point x="-387" y="319"/>
			<point x="-387" y="441"/>
			<point x="-503" y="441" type="curve" smooth="yes"/>
			<point x="-610" y="441"/>
			<point x="-641" y="318"/>
			<point x="-711" y="318" type="curve"/>
			<point x="-787" y="318"/>
			<point x="-790" y="442"/>
			<point x="-913" y="442" type="curve" smooth="yes"/>
			<point x="-1006" y="442"/>
			<point x="-1095" y="365"/>
			<point x="-1131" y="199" type="curve"/>
			<point x="-1015" y="199" type="line"/>
			<point x="-996" y="263"/>
			<point x="-963" y="305"/>
			<point x="-914" y="305" type="curve" smooth="yes"/>
			<point x="-840" y="305"/>
			<point x="-838" y="185"/>
			<point x="-718" y="185" type="curve"/>
			<point x="-607" y="185"/>
			<point x="-583" y="305"/>
			<point x="-510" y="305" type="curve" smooth="yes"/>
			<point x="-432" y="305"/>
			<point x="-442" y="185"/>
			<point x="-319" y="185" type="curve" smooth="yes"/>
			<point x="-209" y="185"/>
			<point x="-187" y="310"/>
			<point x="-114" y="310" type="curve" smooth="yes"/>
			<point x="-78" y="310"/>
			<point x="-61" y="289"/>
			<point x="-47" y="248" type="curve"/>
			<point x="308" y="248" type="line"/>
			<point x="53" y="0" type="line"/>
			<point x="224" y="0" type="line"/>
			<point x="536" y="314" type="line"/>
			<point x="306" y="629" type="line"/>
		</contour>
	</outline>
</glyph>
<glyph name="asciitilde_at.cLig" format="2">
	<advance width="600"/>
	<outline>
		<contour>
			<point x="353" y="-18" type="curve"/>
			<point x="463" y="-18"/>
			<point x="533" y="79"/>
			<point x="559" y="259" type="curve" smooth="yes"/>
			<point x="561" y="273" type="line" smooth="yes"/>
			<point x="601" y="556"/>
			<point x="476" y="698"/>
			<point x="242" y="698" type="curve"/>
			<point x="3" y="698"/>
			<point x="-102" y="573"/>
			<point x="-168" y="379" type="curve" smooth="yes"/>
			<point x="-182" y="338"/>
			<point x="-195" y="311"/>
			<point x="-227" y="311" type="curve" smooth="yes"/>
			<point x="-283" y="311"/>
			<point x="-306" y="419"/>
			<point x="-407" y="419" type="curve" smooth="yes"/>
			<point x="-505" y="419"/>
			<point x="-556" y="342"/>
			<point x="-577" y="184" type="curve"/>
			<point x="-466" y="184" type="line"/>
			<point x="-456" y="252"/>
			<point x="-442" y="289"/>
			<point x="-400" y="289" type="curve" smooth="yes"/>
			<point x="-340" y="289"/>
			<point x="-319" y="178"/>
			<point x="-215" y="178" type="curve" smooth="yes"/>
			<point x="-136" y="178"/>
			<point x="-94" y="236"/>
			<point x="-65" y="332" type="curve" smooth="yes"/>
			<point x="-13" y="505"/>
			<point x="70" y="587"/>
			<point x="234" y="587" type="curve"/>
			<point x="417" y="587"/>
			<point x="472" y="483"/>
			<point x="444" y="285" type="curve" smooth="yes"/>
			<point x="443" y="278" type="line" smooth="yes"/>
			<point x="421" y="122"/>
			<point x="396" y="84"/>
			<point x="364" y="84" type="curve"/>
			<point x="337" y="84"/>
			<point x="330" y="97"/>
			<point x="338" y="157" type="curve" smooth="yes"/>
			<point x="383" y="481" type="line"/>
			<point x="271" y="481" type="line"/>
			<point x="259" y="398" type="line"/>
			<point x="245" y="455"/>
			<point x="218" y="491"/>
			<point x="155" y="491" type="curve" smooth="yes"/>
			<point x="72" y="491"/>
			<point x="12" y="419"/>
			<point x="-9" y="272" type="curve" smooth="yes"/>
			<point x="-27" y="145"/>
			<point x="12" y="61"/>
			<point x="102" y="61" type="curve" smooth="yes"/>
			<point x="167" y="61"/>
			<point x="207" y="109"/>
			<point x="230" y="164" type="curve"/>
			<point x="226" y="133" type="line" smooth="yes"/>
			<point x="211" y="31"/>
			<point x="265" y="-18"/>
		</contour>
		<contour>
			<point x="160" y="158" type="curve" smooth="yes"/>
			<point x="116" y="158"/>
			<point x="97" y="193"/>
			<point x="109" y="278" type="curve" smooth="yes"/>
			<point x="121" y="364"/>
			<point x="146" y="392"/>
			<point x="188" y="392" type="curve" smooth="yes"/>
			<point x="232" y="392"/>
			<point x="255" y="355"/>
			<point x="243" y="273" type="curve" smooth="yes"/>
			<point x="230" y="187"/>
			<point x="204" y="158"/>
		</contour>
	</outline>
</glyph>
<glyph name="asciitilde_equal.cLig.x" format="2">
	<advance width="600"/>
	<outline>
		<contour>
			<point x="-314" y="310" type="line"/>
			<point x="-264" y="368"/>
			<point x="-200" y="394"/>
			<point x="-138" y="394" type="curve" smooth="yes"/>
			<point x="-32" y="394"/>
			<point x="28" y="305"/>
			<point x="166" y="305" type="curve" smooth="yes"/>
			<point x="240" y="305"/>
			<point x="300" y="334"/>
			<point x="337" y="379" type="curve"/>
			<point x="355" y="514" type="line"/>
			<point x="293" y="445"/>
			<point x="243" y="428"/>
			<point x="176" y="430" type="curve" smooth="yes"/>
			<point x="77" y="431"/>
			<point x="3" y="519"/>
			<point x="-122" y="519" type="curve" smooth="yes"/>
			<point x="-189" y="519"/>
			<point x="-258" y="490"/>
			<point x="-294" y="445" type="curve"/>
		</contour>
		<contour>
			<point x="-341" y="116" type="line"/>
			<point x="299" y="116" type="line"/>
			<point x="317" y="240" type="line"/>
			<point x="-323" y="240" type="line"/>
		</contour>
	</outline>
</glyph>
<glyph name="asciitilde_greater.cLig" format="2">
	<advance width="600"/>
	<outline>
		<contour>
			<point x="132" y="629" type="line"/>
			<point x="320" y="380" type="line"/>
			<point x="-84" y="380" type="line"/>
			<point x="-94" y="340"/>
			<point x="-113" y="312"/>
			<point x="-150" y="312" type="curve" smooth="yes"/>
			<point x="-212" y="312"/>
			<point x="-235" y="432"/>
			<point x="-341" y="432" type="curve" smooth="yes"/>
			<point x="-430" y="432"/>
			<point x="-494" y="370"/>
			<point x="-515" y="197" type="curve"/>
			<point x="-403" y="197" type="line"/>
			<point x="-396" y="264"/>
			<point x="-376" y="298"/>
			<point x="-340" y="298" type="curve" smooth="yes"/>
			<point x="-282" y="298"/>
			<point x="-252" y="181"/>
			<point x="-144" y="181" type="curve" smooth="yes"/>
			<point x="-97" y="181"/>
			<point x="-55" y="200"/>
			<point x="-26" y="248" type="curve"/>
			<point x="294" y="248" type="line"/>
			<point x="39" y="0" type="line"/>
			<point x="210" y="0" type="line"/>
			<point x="522" y="314" type="line"/>
			<point x="293" y="629" type="line"/>
		</contour>
	</outline>
</glyph>
<glyph name="aster_comp" format="2">
	<advance width="600"/>
	<outline>
		<contour>
			<point x="244" y="527" type="curve" smooth="yes"/>
			<point x="203" y="311" type="line"/>
			<point x="331" y="311" type="line"/>
			<point x="289" y="527" type="line" smooth="yes"/>
			<point x="286" y="541"/>
			<point x="280" y="548"/>
			<point x="273" y="550" type="curve"/>
			<point x="280" y="552"/>
			<point x="286" y="559"/>
			<point x="289" y="573" type="curve" smooth="yes"/>
			<point x="331" y="789" type="line"/>
			<point x="203" y="789" type="line"/>
			<point x="244" y="573" type="line" smooth="yes"/>
			<point x="248" y="559"/>
			<point x="254" y="552"/>
			<point x="261" y="550" type="curve"/>
			<point x="253" y="548"/>
			<point x="247" y="541"/>
		</contour>
	</outline>
</glyph>
<glyph name="asterisk_asterisk_slash.rem" format="2">
	<advance width="600"/>
	<outline>
		<contour>
			<point x="-667" y="139" type="line"/>
			<point x="-583" y="257" type="line"/>
			<point x="-758" y="321" type="line"/>
			<point x="-564" y="385" type="line"/>
			<point x="-614" y="503" type="line"/>
			<point x="-782" y="374" type="line"/>
			<point x="-717" y="567" type="line"/>
			<point x="-853" y="567" type="line"/>
			<point x="-844" y="375" type="line"/>
			<point x="-975" y="503" type="line"/>
			<point x="-1060" y="386" type="line"/>
			<point x="-882" y="321" type="line"/>
			<point x="-1076" y="257" type="line"/>
			<point x="-1025" y="140" type="line"/>
			<point x="-859" y="267" type="line"/>
			<point x="-922" y="75" type="line"/>
			<point x="-786" y="75" type="line"/>
			<point x="-796" y="265" type="line"/>
		</contour>
		<contour>
			<point x="-88" y="139" type="line"/>
			<point x="-4" y="257" type="line"/>
			<point x="-179" y="321" type="line"/>
			<point x="15" y="385" type="line"/>
			<point x="-35" y="503" type="line"/>
			<point x="-203" y="374" type="line"/>
			<point x="-138" y="567" type="line"/>
			<point x="-274" y="567" type="line"/>
			<point x="-265" y="375" type="line"/>
			<point x="-396" y="503" type="line"/>
			<point x="-481" y="386" type="line"/>
			<point x="-303" y="321" type="line"/>
			<point x="-497" y="257" type="line"/>
			<point x="-446" y="140" type="line"/>
			<point x="-280" y="267" type="line"/>
			<point x="-343" y="75" type="line"/>
			<point x="-207" y="75" type="line"/>
			<point x="-217" y="265" type="line"/>
		</contour>
		<contour>
			<point x="416" y="792" type="line"/>
			<point x="-60" y="-163" type="line"/>
			<point x="88" y="-163" type="line"/>
			<point x="565" y="792" type="line"/>
		</contour>
	</outline>
</glyph>
<glyph name="asterisk_greater.cLig" format="2">
	<advance width="600"/>
	<outline>
		<contour>
			<point x="102" y="640" type="line"/>
			<point x="81" y="503" type="line"/>
			<point x="401" y="319" type="line"/>
			<point x="31" y="141" type="line"/>
			<point x="9" y="-10" type="line"/>
			<point x="493" y="234" type="line"/>
			<point x="516" y="397" type="line"/>
		</contour>
		<contour>
			<point x="-399" y="493" type="line"/>
			<point x="-483" y="375" type="line"/>
			<point x="-308" y="311" type="line"/>
			<point x="-502" y="247" type="line"/>
			<point x="-452" y="129" type="line"/>
			<point x="-284" y="258" type="line"/>
			<point x="-349" y="65" type="line"/>
			<point x="-213" y="65" type="line"/>
			<point x="-222" y="257" type="line"/>
			<point x="-91" y="129" type="line"/>
			<point x="-6" y="246" type="line"/>
			<point x="-184" y="312" type="line"/>
			<point x="10" y="375" type="line"/>
			<point x="-41" y="492" type="line"/>
			<point x="-207" y="365" type="line"/>
			<point x="-144" y="557" type="line"/>
			<point x="-280" y="557" type="line"/>
			<point x="-270" y="367" type="line"/>
		</contour>
	</outline>
</glyph>
<glyph name="asterisk_slash.cLig" format="2">
	<advance width="600"/>
	<outline>
		<contour>
			<point x="-88" y="139" type="line"/>
			<point x="-4" y="257" type="line"/>
			<point x="-179" y="321" type="line"/>
			<point x="15" y="385" type="line"/>
			<point x="-35" y="503" type="line"/>
			<point x="-203" y="374" type="line"/>
			<point x="-138" y="567" type="line"/>
			<point x="-274" y="567" type="line"/>
			<point x="-265" y="375" type="line"/>
			<point x="-396" y="503" type="line"/>
			<point x="-481" y="386" type="line"/>
			<point x="-303" y="321" type="line"/>
			<point x="-497" y="257" type="line"/>
			<point x="-446" y="140" type="line"/>
			<point x="-280" y="267" type="line"/>
			<point x="-343" y="75" type="line"/>
			<point x="-207" y="75" type="line"/>
			<point x="-217" y="265" type="line"/>
		</contour>
		<contour>
			<point x="416" y="792" type="line"/>
			<point x="-60" y="-163" type="line"/>
			<point x="88" y="-163" type="line"/>
			<point x="565" y="792" type="line"/>
		</contour>
	</outline>
</glyph>
<glyph name="backslash_backslash.rem" format="2">
	<advance width="600"/>
	<outline>
		<contour>
			<point x="-192" y="-163" type="line"/>
			<point x="-53" y="-163" type="line"/>
			<point x="-269" y="792" type="line"/>
			<point x="-408" y="792" type="line"/>
		</contour>
		<contour>
			<point x="284" y="-163" type="line"/>
			<point x="423" y="-163" type="line"/>
			<point x="207" y="792" type="line"/>
			<point x="68" y="792" type="line"/>
		</contour>
	</outline>
</glyph>
<glyph name="bar_bar_bar.cLig" format="2">
	<advance width="600"/>
	<outline>
		<contour>
			<point x="206" y="792" type="line"/>
			<point x="72" y="-163" type="line"/>
			<point x="209" y="-163" type="line"/>
			<point x="343" y="792" type="line"/>
		</contour>
		<contour>
			<point x="-794" y="792" type="line"/>
			<point x="-928" y="-163" type="line"/>
			<point x="-791" y="-163" type="line"/>
			<point x="-657" y="792" type="line"/>
		</contour>
		<contour>
			<point x="-294" y="792" type="line"/>
			<point x="-428" y="-163" type="line"/>
			<point x="-291" y="-163" type="line"/>
			<point x="-157" y="792" type="line"/>
		</contour>
	</outline>
</glyph>
<glyph name="bar_bar_equal.rem" format="2">
	<advance width="600"/>
	<outline>
		<contour>
			<point x="-921" y="684" type="line"/>
			<point x="-1025" y="-55" type="line"/>
			<point x="-887" y="-55" type="line"/>
			<point x="-783" y="684" type="line"/>
		</contour>
		<contour>
			<point x="-539" y="684" type="line"/>
			<point x="-643" y="-55" type="line"/>
			<point x="-506" y="-55" type="line"/>
			<point x="-478" y="141" type="line"/>
			<point x="422" y="141" type="line"/>
			<point x="440" y="264" type="line"/>
			<point x="-461" y="264" type="line"/>
			<point x="-447" y="365" type="line"/>
			<point x="454" y="365" type="line"/>
			<point x="472" y="488" type="line"/>
			<point x="-429" y="488" type="line"/>
			<point x="-402" y="684" type="line"/>
		</contour>
	</outline>
</glyph>
<glyph name="bar_bar_hyphen.init" format="2">
	<advance width="600"/>
	<outline>
		<contour>
			<point x="-43" y="-55" type="line"/>
			<point x="94" y="-55" type="line"/>
			<point x="137" y="248" type="line"/>
			<point x="598" y="248" type="line"/>
			<point x="616" y="380" type="line"/>
			<point x="155" y="380" type="line"/>
			<point x="198" y="684" type="line"/>
			<point x="61" y="684" type="line"/>
		</contour>
		<contour>
			<point x="-423" y="-55" type="line"/>
			<point x="-286" y="-55" type="line"/>
			<point x="-182" y="684" type="line"/>
			<point x="-319" y="684" type="line"/>
		</contour>
	</outline>
</glyph>
<glyph name="bar_bar_hyphen.med" format="2">
	<advance width="600"/>
	<outline>
		<contour>
			<point x="77" y="-55" type="line"/>
			<point x="214" y="-55" type="line"/>
			<point x="257" y="248" type="line"/>
			<point x="598" y="248" type="line"/>
			<point x="616" y="380" type="line"/>
			<point x="275" y="380" type="line"/>
			<point x="318" y="684" type="line"/>
			<point x="181" y="684" type="line"/>
		</contour>
		<contour>
			<point x="-602" y="248" type="line"/>
			<point x="-261" y="248" type="line"/>
			<point x="-303" y="-55" type="line"/>
			<point x="-166" y="-55" type="line"/>
			<point x="-62" y="684" type="line"/>
			<point x="-199" y="684" type="line"/>
			<point x="-242" y="380" type="line"/>
			<point x="-584" y="380" type="line"/>
		</contour>
	</outline>
</glyph>
<glyph name="bar_bar_hyphen.rem" format="2">
	<advance width="600"/>
	<outline>
		<contour>
			<point x="-643" y="-55" type="line"/>
			<point x="-506" y="-55" type="line"/>
			<point x="-463" y="248" type="line"/>
			<point x="438" y="248" type="line"/>
			<point x="456" y="380" type="line"/>
			<point x="-445" y="380" type="line"/>
			<point x="-402" y="684" type="line"/>
			<point x="-539" y="684" type="line"/>
		</contour>
		<contour>
			<point x="-1025" y="-55" type="line"/>
			<point x="-887" y="-55" type="line"/>
			<point x="-783" y="684" type="line"/>
			<point x="-921" y="684" type="line"/>
		</contour>
	</outline>
</glyph>
<glyph name="bar_braceright.cLig" format="2">
	<advance width="600"/>
	<outline>
		<contour>
			<point x="289" y="792" type="curve" smooth="yes"/>
			<point x="4" y="792" type="line"/>
			<point x="-10" y="686" type="line"/>
			<point x="218" y="686" type="line" smooth="yes"/>
			<point x="265" y="686"/>
			<point x="289" y="669"/>
			<point x="289" y="634" type="curve" smooth="yes"/>
			<point x="289" y="558"/>
			<point x="165" y="521"/>
			<point x="165" y="418" type="curve" smooth="yes"/>
			<point x="166" y="372"/>
			<point x="205" y="331"/>
			<point x="268" y="316" type="curve"/>
			<point x="205" y="308"/>
			<point x="132" y="272"/>
			<point x="132" y="193" type="curve" smooth="yes"/>
			<point x="132" y="119"/>
			<point x="205" y="63"/>
			<point x="205" y="4" type="curve" smooth="yes"/>
			<point x="204" y="-41"/>
			<point x="173" y="-57"/>
			<point x="120" y="-57" type="curve" smooth="yes"/>
			<point x="-114" y="-57" type="line"/>
			<point x="-130" y="-163" type="line"/>
			<point x="179" y="-163" type="line" smooth="yes"/>
			<point x="281" y="-163"/>
			<point x="350" y="-103"/>
			<point x="350" y="-18" type="curve" smooth="yes"/>
			<point x="350" y="67"/>
			<point x="279" y="131"/>
			<point x="279" y="189" type="curve" smooth="yes"/>
			<point x="279" y="224"/>
			<point x="305" y="254"/>
			<point x="343" y="254" type="curve" smooth="yes"/>
			<point x="444" y="254" type="line"/>
			<point x="461" y="378" type="line"/>
			<point x="375" y="378" type="line" smooth="yes"/>
			<point x="333" y="378"/>
			<point x="319" y="405"/>
			<point x="317" y="429" type="curve" smooth="yes"/>
			<point x="317" y="503"/>
			<point x="446" y="542"/>
			<point x="446" y="663" type="curve" smooth="yes"/>
			<point x="446" y="736"/>
			<point x="393" y="792"/>
		</contour>
		<contour>
			<point x="-298" y="-163" type="line"/>
			<point x="-164" y="792" type="line"/>
			<point x="-301" y="792" type="line"/>
			<point x="-435" y="-163" type="line"/>
		</contour>
	</outline>
</glyph>
<glyph name="bar_bracketright.cLig" format="2">
	<advance width="600"/>
	<outline>
		<contour>
			<point x="-126" y="-163" type="line"/>
			<point x="329" y="-163" type="line"/>
			<point x="463" y="792" type="line"/>
			<point x="8" y="792" type="line"/>
			<point x="-7" y="685" type="line"/>
			<point x="309" y="685" type="line"/>
			<point x="205" y="-57" type="line"/>
			<point x="-111" y="-57" type="line"/>
		</contour>
		<contour>
			<point x="-296" y="-163" type="line"/>
			<point x="-162" y="792" type="line"/>
			<point x="-299" y="792" type="line"/>
			<point x="-433" y="-163" type="line"/>
		</contour>
	</outline>
</glyph>
<glyph name="bar_equal.fina" format="2">
	<advance width="600"/>
	<outline>
		<contour>
			<point x="-17" y="141" type="line"/>
			<point x="324" y="141" type="line"/>
			<point x="296" y="-55" type="line"/>
			<point x="434" y="-55" type="line"/>
			<point x="538" y="684" type="line"/>
			<point x="400" y="684" type="line"/>
			<point x="373" y="488" type="line"/>
			<point x="33" y="488" type="line"/>
			<point x="15" y="365" type="line"/>
			<point x="355" y="365" type="line"/>
			<point x="341" y="264" type="line"/>
			<point x="1" y="264" type="line"/>
		</contour>
	</outline>
</glyph>
<glyph name="bar_equal_greater.rem" format="2">
	<advance width="600"/>
	<outline>
		<contour>
			<point x="-989" y="629" type="line"/>
			<point x="-1077" y="0" type="line"/>
			<point x="-939" y="0" type="line"/>
			<point x="-919" y="141" type="line"/>
			<point x="149" y="141" type="line"/>
			<point x="12" y="0" type="line"/>
			<point x="184" y="0" type="line"/>
			<point x="484" y="311" type="line"/>
			<point x="259" y="629" type="line"/>
			<point x="101" y="629" type="line"/>
			<point x="200" y="488" type="line"/>
			<point x="-871" y="488" type="line"/>
			<point x="-851" y="629" type="line"/>
		</contour>
		<contour>
			<point x="321" y="317" type="line"/>
			<point x="270" y="264" type="line"/>
			<point x="-902" y="264" type="line"/>
			<point x="-888" y="365" type="line"/>
			<point x="288" y="365" type="line"/>
		</contour>
	</outline>
</glyph>
<glyph name="bar_greater.cLig" format="2">
	<advance width="600"/>
	<outline>
		<contour>
			<point x="-344" y="-79" type="line"/>
			<point x="-206" y="-79" type="line"/>
			<point x="359" y="233" type="line"/>
			<point x="382" y="396" type="line"/>
			<point x="-96" y="708" type="line"/>
			<point x="-234" y="708" type="line"/>
		</contour>
		<contour>
			<point x="-121" y="561" type="line"/>
			<point x="253" y="322" type="line"/>
			<point x="-188" y="83" type="line"/>
		</contour>
	</outline>
</glyph>
<glyph name="bar_hyphen.init" format="2">
	<advance width="600"/>
	<outline>
		<contour>
			<point x="77" y="-55" type="line"/>
			<point x="214" y="-55" type="line"/>
			<point x="257" y="248" type="line"/>
			<point x="598" y="248" type="line"/>
			<point x="616" y="380" type="line"/>
			<point x="275" y="380" type="line"/>
			<point x="318" y="684" type="line"/>
			<point x="181" y="684" type="line"/>
		</contour>
	</outline>
</glyph>
<glyph name="braceleft_braceleft.cLig" format="2">
	<advance width="600"/>
	<outline>
		<contour>
			<point x="-98" y="-163" type="line"/>
			<point x="-83" y="-57" type="line"/>
			<point x="-206" y="-57" type="line" smooth="yes"/>
			<point x="-253" y="-57"/>
			<point x="-277" y="-40"/>
			<point x="-277" y="-5" type="curve" smooth="yes"/>
			<point x="-277" y="71"/>
			<point x="-154" y="108"/>
			<point x="-154" y="211" type="curve" smooth="yes"/>
			<point x="-154" y="257"/>
			<point x="-194" y="298"/>
			<point x="-258" y="313" type="curve"/>
			<point x="-194" y="321"/>
			<point x="-120" y="356"/>
			<point x="-120" y="436" type="curve" smooth="yes"/>
			<point x="-120" y="509"/>
			<point x="-193" y="566"/>
			<point x="-193" y="625" type="curve" smooth="yes"/>
			<point x="-193" y="670"/>
			<point x="-162" y="686"/>
			<point x="-109" y="686" type="curve" smooth="yes"/>
			<point x="226" y="686" type="line"/>
			<point x="167" y="673"/>
			<point x="135" y="645"/>
			<point x="135" y="597" type="curve" smooth="yes"/>
			<point x="135" y="535"/>
			<point x="208" y="486"/>
			<point x="208" y="432" type="curve" smooth="yes"/>
			<point x="208" y="398"/>
			<point x="182" y="375"/>
			<point x="131" y="375" type="curve" smooth="yes"/>
			<point x="22" y="375" type="line"/>
			<point x="6" y="251" type="line"/>
			<point x="99" y="251" type="line" smooth="yes"/>
			<point x="153" y="251"/>
			<point x="170" y="231"/>
			<point x="170" y="205" type="curve"/>
			<point x="170" y="128"/>
			<point x="41" y="86"/>
			<point x="41" y="-34" type="curve" smooth="yes"/>
			<point x="41" y="-107"/>
			<point x="93" y="-163"/>
			<point x="197" y="-163" type="curve" smooth="yes"/>
			<point x="402" y="-163" type="line"/>
			<point x="416" y="-57" type="line"/>
			<point x="269" y="-57" type="line" smooth="yes"/>
			<point x="221" y="-57"/>
			<point x="197" y="-40"/>
			<point x="197" y="-5" type="curve" smooth="yes"/>
			<point x="197" y="68"/>
			<point x="322" y="113"/>
			<point x="322" y="214" type="curve"/>
			<point x="322" y="261"/>
			<point x="282" y="299"/>
			<point x="218" y="313" type="curve"/>
			<point x="282" y="320"/>
			<point x="356" y="349"/>
			<point x="356" y="432" type="curve" smooth="yes"/>
			<point x="356" y="504"/>
			<point x="283" y="557"/>
			<point x="283" y="620" type="curve" smooth="yes"/>
			<point x="283" y="662"/>
			<point x="314" y="686"/>
			<point x="374" y="686" type="curve" smooth="yes"/>
			<point x="520" y="686" type="line"/>
			<point x="536" y="792" type="line"/>
			<point x="-167" y="792" type="line" smooth="yes"/>
			<point x="-269" y="792"/>
			<point x="-338" y="733"/>
			<point x="-338" y="647" type="curve" smooth="yes"/>
			<point x="-338" y="562"/>
			<point x="-268" y="498"/>
			<point x="-268" y="440" type="curve" smooth="yes"/>
			<point x="-268" y="405"/>
			<point x="-293" y="375"/>
			<point x="-331" y="375" type="curve" smooth="yes"/>
			<point x="-441" y="375" type="line"/>
			<point x="-458" y="251" type="line"/>
			<point x="-363" y="251" type="line" smooth="yes"/>
			<point x="-321" y="251"/>
			<point x="-306" y="224"/>
			<point x="-306" y="200" type="curve" smooth="yes"/>
			<point x="-306" y="126"/>
			<point x="-434" y="86"/>
			<point x="-434" y="-34" type="curve" smooth="yes"/>
			<point x="-434" y="-107"/>
			<point x="-381" y="-163"/>
			<point x="-277" y="-163" type="curve" smooth="yes"/>
		</contour>
	</outline>
</glyph>
<glyph name="braceleft_braceleft_numbersign.cLig" format="2">
	<advance width="600"/>
	<outline>
		<contour>
			<point x="-697" y="-163" type="line"/>
			<point x="-682" y="-57" type="line"/>
			<point x="-805" y="-57" type="line" smooth="yes"/>
			<point x="-852" y="-57"/>
			<point x="-876" y="-40"/>
			<point x="-876" y="-5" type="curve" smooth="yes"/>
			<point x="-876" y="71"/>
			<point x="-753" y="108"/>
			<point x="-753" y="211" type="curve" smooth="yes"/>
			<point x="-753" y="257"/>
			<point x="-793" y="298"/>
			<point x="-857" y="313" type="curve"/>
			<point x="-793" y="321"/>
			<point x="-719" y="356"/>
			<point x="-719" y="436" type="curve" smooth="yes"/>
			<point x="-719" y="509"/>
			<point x="-792" y="566"/>
			<point x="-792" y="625" type="curve" smooth="yes"/>
			<point x="-792" y="670"/>
			<point x="-761" y="686"/>
			<point x="-708" y="686" type="curve" smooth="yes"/>
			<point x="-373" y="686" type="line"/>
			<point x="-432" y="673"/>
			<point x="-464" y="645"/>
			<point x="-464" y="597" type="curve" smooth="yes"/>
			<point x="-464" y="535"/>
			<point x="-391" y="486"/>
			<point x="-391" y="432" type="curve" smooth="yes"/>
			<point x="-391" y="398"/>
			<point x="-417" y="375"/>
			<point x="-468" y="375" type="curve" smooth="yes"/>
			<point x="-577" y="375" type="line"/>
			<point x="-593" y="251" type="line"/>
			<point x="-500" y="251" type="line" smooth="yes"/>
			<point x="-446" y="251"/>
			<point x="-429" y="231"/>
			<point x="-429" y="205" type="curve"/>
			<point x="-429" y="128"/>
			<point x="-558" y="86"/>
			<point x="-558" y="-34" type="curve" smooth="yes"/>
			<point x="-558" y="-107"/>
			<point x="-506" y="-163"/>
			<point x="-402" y="-163" type="curve" smooth="yes"/>
			<point x="-197" y="-163" type="line"/>
			<point x="-183" y="-57" type="line"/>
			<point x="-330" y="-57" type="line" smooth="yes"/>
			<point x="-378" y="-57"/>
			<point x="-402" y="-40"/>
			<point x="-402" y="-5" type="curve" smooth="yes"/>
			<point x="-402" y="68"/>
			<point x="-277" y="113"/>
			<point x="-277" y="214" type="curve"/>
			<point x="-277" y="261"/>
			<point x="-317" y="299"/>
			<point x="-381" y="313" type="curve"/>
			<point x="-317" y="320"/>
			<point x="-243" y="349"/>
			<point x="-243" y="432" type="curve" smooth="yes"/>
			<point x="-243" y="504"/>
			<point x="-316" y="557"/>
			<point x="-316" y="620" type="curve" smooth="yes"/>
			<point x="-316" y="662"/>
			<point x="-285" y="686"/>
			<point x="-225" y="686" type="curve" smooth="yes"/>
			<point x="-79" y="686" type="line"/>
			<point x="-63" y="792" type="line"/>
			<point x="-766" y="792" type="line" smooth="yes"/>
			<point x="-868" y="792"/>
			<point x="-937" y="733"/>
			<point x="-937" y="647" type="curve" smooth="yes"/>
			<point x="-937" y="562"/>
			<point x="-867" y="498"/>
			<point x="-867" y="440" type="curve" smooth="yes"/>
			<point x="-867" y="405"/>
			<point x="-892" y="375"/>
			<point x="-930" y="375" type="curve" smooth="yes"/>
			<point x="-1040" y="375" type="line"/>
			<point x="-1057" y="251" type="line"/>
			<point x="-962" y="251" type="line" smooth="yes"/>
			<point x="-920" y="251"/>
			<point x="-905" y="224"/>
			<point x="-905" y="200" type="curve" smooth="yes"/>
			<point x="-905" y="126"/>
			<point x="-1033" y="86"/>
			<point x="-1033" y="-34" type="curve" smooth="yes"/>
			<point x="-1033" y="-107"/>
			<point x="-980" y="-163"/>
			<point x="-876" y="-163" type="curve" smooth="yes"/>
		</contour>
		<contour>
			<point x="-121" y="267" type="line"/>
			<point x="-137" y="157" type="line"/>
			<point x="-26" y="157" type="line"/>
			<point x="-62" y="0" type="line"/>
			<point x="51" y="0" type="line"/>
			<point x="87" y="157" type="line"/>
			<point x="199" y="157" type="line"/>
			<point x="162" y="0" type="line"/>
			<point x="274" y="0" type="line"/>
			<point x="311" y="157" type="line"/>
			<point x="415" y="157" type="line"/>
			<point x="430" y="267" type="line"/>
			<point x="337" y="267" type="line"/>
			<point x="374" y="424" type="line"/>
			<point x="476" y="424" type="line"/>
			<point x="491" y="535" type="line"/>
			<point x="400" y="535" type="line"/>
			<point x="435" y="684" type="line"/>
			<point x="323" y="684" type="line"/>
			<point x="288" y="535" type="line"/>
			<point x="176" y="535" type="line"/>
			<point x="211" y="684" type="line"/>
			<point x="99" y="684" type="line"/>
			<point x="64" y="535" type="line"/>
			<point x="-83" y="535" type="line"/>
			<point x="-99" y="424" type="line"/>
			<point x="38" y="424" type="line"/>
			<point x="0" y="267" type="line"/>
		</contour>
		<contour>
			<point x="113" y="267" type="line"/>
			<point x="150" y="424" type="line"/>
			<point x="262" y="424" type="line"/>
			<point x="225" y="267" type="line"/>
		</contour>
	</outline>
</glyph>
<glyph name="braceleft_numbersign.cLig" format="2">
	<advance width="600"/>
	<outline>
		<contour>
			<point x="-504" y="251" type="line"/>
			<point x="-419" y="251" type="line" smooth="yes"/>
			<point x="-376" y="251"/>
			<point x="-361" y="225"/>
			<point x="-361" y="200" type="curve" smooth="yes"/>
			<point x="-361" y="126"/>
			<point x="-489" y="86"/>
			<point x="-489" y="-34" type="curve" smooth="yes"/>
			<point x="-489" y="-107"/>
			<point x="-437" y="-163"/>
			<point x="-333" y="-163" type="curve" smooth="yes"/>
			<point x="-154" y="-163" type="line"/>
			<point x="-140" y="-58" type="line"/>
			<point x="-262" y="-58" type="line" smooth="yes"/>
			<point x="-310" y="-58"/>
			<point x="-334" y="-41"/>
			<point x="-334" y="-5" type="curve" smooth="yes"/>
			<point x="-334" y="71"/>
			<point x="-211" y="108"/>
			<point x="-211" y="211" type="curve" smooth="yes"/>
			<point x="-211" y="258"/>
			<point x="-251" y="299"/>
			<point x="-315" y="313" type="curve"/>
			<point x="-252" y="320"/>
			<point x="-177" y="355"/>
			<point x="-177" y="436" type="curve" smooth="yes"/>
			<point x="-177" y="509"/>
			<point x="-250" y="566"/>
			<point x="-250" y="625" type="curve" smooth="yes"/>
			<point x="-250" y="671"/>
			<point x="-218" y="687"/>
			<point x="-165" y="687" type="curve" smooth="yes"/>
			<point x="-35" y="687" type="line"/>
			<point x="-20" y="792" type="line"/>
			<point x="-223" y="792" type="line" smooth="yes"/>
			<point x="-325" y="792"/>
			<point x="-394" y="733"/>
			<point x="-394" y="647" type="curve" smooth="yes"/>
			<point x="-394" y="562"/>
			<point x="-323" y="498"/>
			<point x="-323" y="440" type="curve" smooth="yes"/>
			<point x="-323" y="404"/>
			<point x="-349" y="375"/>
			<point x="-387" y="375" type="curve" smooth="yes"/>
			<point x="-488" y="375" type="line"/>
		</contour>
		<contour>
			<point x="-87" y="267" type="line"/>
			<point x="-103" y="157" type="line"/>
			<point x="8" y="157" type="line"/>
			<point x="-28" y="0" type="line"/>
			<point x="85" y="0" type="line"/>
			<point x="121" y="157" type="line"/>
			<point x="233" y="157" type="line"/>
			<point x="196" y="0" type="line"/>
			<point x="308" y="0" type="line"/>
			<point x="345" y="157" type="line"/>
			<point x="449" y="157" type="line"/>
			<point x="464" y="267" type="line"/>
			<point x="371" y="267" type="line"/>
			<point x="408" y="424" type="line"/>
			<point x="510" y="424" type="line"/>
			<point x="525" y="535" type="line"/>
			<point x="434" y="535" type="line"/>
			<point x="469" y="684" type="line"/>
			<point x="357" y="684" type="line"/>
			<point x="322" y="535" type="line"/>
			<point x="210" y="535" type="line"/>
			<point x="245" y="684" type="line"/>
			<point x="133" y="684" type="line"/>
			<point x="98" y="535" type="line"/>
			<point x="-49" y="535" type="line"/>
			<point x="-65" y="424" type="line"/>
			<point x="72" y="424" type="line"/>
			<point x="34" y="267" type="line"/>
		</contour>
		<contour>
			<point x="147" y="267" type="line"/>
			<point x="184" y="424" type="line"/>
			<point x="296" y="424" type="line"/>
			<point x="259" y="267" type="line"/>
		</contour>
	</outline>
</glyph>
<glyph name="bracketleft_bracketleft.cLig" format="2">
	<advance width="600"/>
	<outline>
		<contour>
			<point x="395" y="-57" type="line"/>
			<point x="183" y="-57" type="line"/>
			<point x="287" y="686" type="line"/>
			<point x="500" y="686" type="line"/>
			<point x="515" y="792" type="line"/>
			<point x="165" y="792" type="line"/>
			<point x="30" y="-163" type="line"/>
			<point x="380" y="-163" type="line"/>
		</contour>
		<contour>
			<point x="-34" y="-57" type="line"/>
			<point x="-301" y="-57" type="line"/>
			<point x="-197" y="686" type="line"/>
			<point x="71" y="686" type="line"/>
			<point x="85" y="792" type="line"/>
			<point x="-320" y="792" type="line"/>
			<point x="-455" y="-163" type="line"/>
			<point x="-50" y="-163" type="line"/>
		</contour>
	</outline>
</glyph>
<glyph name="bracketleft_bracketleft_numbersign.cLig" format="2">
	<advance width="600"/>
	<outline>
		<contour>
			<point x="-126" y="267" type="line"/>
			<point x="-142" y="157" type="line"/>
			<point x="-31" y="157" type="line"/>
			<point x="-67" y="0" type="line"/>
			<point x="46" y="0" type="line"/>
			<point x="82" y="157" type="line"/>
			<point x="194" y="157" type="line"/>
			<point x="157" y="0" type="line"/>
			<point x="269" y="0" type="line"/>
			<point x="306" y="157" type="line"/>
			<point x="410" y="157" type="line"/>
			<point x="425" y="267" type="line"/>
			<point x="332" y="267" type="line"/>
			<point x="369" y="424" type="line"/>
			<point x="471" y="424" type="line"/>
			<point x="486" y="535" type="line"/>
			<point x="395" y="535" type="line"/>
			<point x="430" y="684" type="line"/>
			<point x="318" y="684" type="line"/>
			<point x="283" y="535" type="line"/>
			<point x="171" y="535" type="line"/>
			<point x="206" y="684" type="line"/>
			<point x="94" y="684" type="line"/>
			<point x="59" y="535" type="line"/>
			<point x="-88" y="535" type="line"/>
			<point x="-104" y="424" type="line"/>
			<point x="33" y="424" type="line"/>
			<point x="-5" y="267" type="line"/>
		</contour>
		<contour>
			<point x="108" y="267" type="line"/>
			<point x="145" y="424" type="line"/>
			<point x="257" y="424" type="line"/>
			<point x="220" y="267" type="line"/>
		</contour>
		<contour>
			<point x="-221" y="-57" type="line"/>
			<point x="-433" y="-57" type="line"/>
			<point x="-329" y="686" type="line"/>
			<point x="-116" y="686" type="line"/>
			<point x="-101" y="792" type="line"/>
			<point x="-451" y="792" type="line"/>
			<point x="-586" y="-163" type="line"/>
			<point x="-236" y="-163" type="line"/>
		</contour>
		<contour>
			<point x="-650" y="-57" type="line"/>
			<point x="-917" y="-57" type="line"/>
			<point x="-813" y="686" type="line"/>
			<point x="-545" y="686" type="line"/>
			<point x="-531" y="792" type="line"/>
			<point x="-936" y="792" type="line"/>
			<point x="-1071" y="-163" type="line"/>
			<point x="-666" y="-163" type="line"/>
		</contour>
	</outline>
</glyph>
<glyph name="bracketleft_numbersign.cLig" format="2">
	<advance width="600"/>
	<outline>
		<contour>
			<point x="-93" y="267" type="line"/>
			<point x="-109" y="157" type="line"/>
			<point x="2" y="157" type="line"/>
			<point x="-34" y="0" type="line"/>
			<point x="79" y="0" type="line"/>
			<point x="115" y="157" type="line"/>
			<point x="227" y="157" type="line"/>
			<point x="190" y="0" type="line"/>
			<point x="302" y="0" type="line"/>
			<point x="339" y="157" type="line"/>
			<point x="443" y="157" type="line"/>
			<point x="458" y="267" type="line"/>
			<point x="365" y="267" type="line"/>
			<point x="402" y="424" type="line"/>
			<point x="504" y="424" type="line"/>
			<point x="519" y="535" type="line"/>
			<point x="428" y="535" type="line"/>
			<point x="463" y="684" type="line"/>
			<point x="351" y="684" type="line"/>
			<point x="316" y="535" type="line"/>
			<point x="204" y="535" type="line"/>
			<point x="239" y="684" type="line"/>
			<point x="127" y="684" type="line"/>
			<point x="92" y="535" type="line"/>
			<point x="-55" y="535" type="line"/>
			<point x="-71" y="424" type="line"/>
			<point x="66" y="424" type="line"/>
			<point x="28" y="267" type="line"/>
		</contour>
		<contour>
			<point x="141" y="267" type="line"/>
			<point x="178" y="424" type="line"/>
			<point x="290" y="424" type="line"/>
			<point x="253" y="267" type="line"/>
		</contour>
		<contour>
			<point x="-143" y="-58" type="line"/>
			<point x="-341" y="-58" type="line"/>
			<point x="-236" y="687" type="line"/>
			<point x="-38" y="687" type="line"/>
			<point x="-24" y="792" type="line"/>
			<point x="-359" y="792" type="line"/>
			<point x="-494" y="-163" type="line"/>
			<point x="-159" y="-163" type="line"/>
		</contour>
	</outline>
</glyph>
<glyph name="bracketright_bracketright.cLig" format="2">
	<advance width="600"/>
	<outline>
		<contour>
			<point x="-380" y="686" type="line"/>
			<point x="-168" y="686" type="line"/>
			<point x="-272" y="-57" type="line"/>
			<point x="-485" y="-57" type="line"/>
			<point x="-500" y="-163" type="line"/>
			<point x="-150" y="-163" type="line"/>
			<point x="-15" y="792" type="line"/>
			<point x="-365" y="792" type="line"/>
		</contour>
		<contour>
			<point x="49" y="686" type="line"/>
			<point x="316" y="686" type="line"/>
			<point x="212" y="-57" type="line"/>
			<point x="-56" y="-57" type="line"/>
			<point x="-70" y="-163" type="line"/>
			<point x="335" y="-163" type="line"/>
			<point x="470" y="792" type="line"/>
			<point x="65" y="792" type="line"/>
		</contour>
	</outline>
</glyph>
<glyph name="colon_colon.cLig" format="2">
	<advance width="600"/>
	<outline>
		<contour>
			<point x="-250" y="-12" type="curve" smooth="yes"/>
			<point x="-183" y="-12"/>
			<point x="-149" y="15"/>
			<point x="-141" y="75" type="curve" smooth="yes"/>
			<point x="-131" y="144"/>
			<point x="-164" y="174"/>
			<point x="-235" y="174" type="curve" smooth="yes"/>
			<point x="-303" y="174"/>
			<point x="-337" y="148"/>
			<point x="-345" y="88" type="curve" smooth="yes"/>
			<point x="-356" y="19"/>
			<point x="-323" y="-12"/>
		</contour>
		<contour>
			<point x="-200" y="343" type="curve" smooth="yes"/>
			<point x="-133" y="343"/>
			<point x="-99" y="370"/>
			<point x="-91" y="430" type="curve" smooth="yes"/>
			<point x="-81" y="499"/>
			<point x="-114" y="529"/>
			<point x="-185" y="529" type="curve" smooth="yes"/>
			<point x="-253" y="529"/>
			<point x="-287" y="503"/>
			<point x="-295" y="443" type="curve" smooth="yes"/>
			<point x="-306" y="374"/>
			<point x="-273" y="343"/>
		</contour>
		<contour>
			<point x="186" y="-12" type="curve" smooth="yes"/>
			<point x="253" y="-12"/>
			<point x="287" y="15"/>
			<point x="295" y="75" type="curve" smooth="yes"/>
			<point x="305" y="144"/>
			<point x="272" y="174"/>
			<point x="201" y="174" type="curve" smooth="yes"/>
			<point x="133" y="174"/>
			<point x="99" y="148"/>
			<point x="91" y="88" type="curve" smooth="yes"/>
			<point x="80" y="19"/>
			<point x="113" y="-12"/>
		</contour>
		<contour>
			<point x="236" y="343" type="curve" smooth="yes"/>
			<point x="303" y="343"/>
			<point x="337" y="370"/>
			<point x="345" y="430" type="curve" smooth="yes"/>
			<point x="355" y="499"/>
			<point x="322" y="529"/>
			<point x="251" y="529" type="curve" smooth="yes"/>
			<point x="183" y="529"/>
			<point x="149" y="503"/>
			<point x="141" y="443" type="curve" smooth="yes"/>
			<point x="130" y="374"/>
			<point x="163" y="343"/>
		</contour>
	</outline>
</glyph>
<glyph name="colon_colon_colon.cLig" format="2">
	<advance width="600"/>
	<outline>
		<contour>
			<point x="-781" y="-12" type="curve" smooth="yes"/>
			<point x="-714" y="-12"/>
			<point x="-680" y="15"/>
			<point x="-672" y="75" type="curve" smooth="yes"/>
			<point x="-662" y="144"/>
			<point x="-695" y="174"/>
			<point x="-766" y="174" type="curve" smooth="yes"/>
			<point x="-834" y="174"/>
			<point x="-868" y="148"/>
			<point x="-876" y="88" type="curve" smooth="yes"/>
			<point x="-887" y="19"/>
			<point x="-854" y="-12"/>
		</contour>
		<contour>
			<point x="-731" y="343" type="curve" smooth="yes"/>
			<point x="-664" y="343"/>
			<point x="-630" y="370"/>
			<point x="-622" y="430" type="curve" smooth="yes"/>
			<point x="-612" y="499"/>
			<point x="-645" y="529"/>
			<point x="-716" y="529" type="curve" smooth="yes"/>
			<point x="-784" y="529"/>
			<point x="-818" y="503"/>
			<point x="-826" y="443" type="curve" smooth="yes"/>
			<point x="-837" y="374"/>
			<point x="-804" y="343"/>
		</contour>
		<contour>
			<point x="-332" y="-12" type="curve" smooth="yes"/>
			<point x="-265" y="-12"/>
			<point x="-231" y="15"/>
			<point x="-223" y="75" type="curve" smooth="yes"/>
			<point x="-213" y="144"/>
			<point x="-246" y="174"/>
			<point x="-317" y="174" type="curve" smooth="yes"/>
			<point x="-385" y="174"/>
			<point x="-419" y="148"/>
			<point x="-427" y="88" type="curve" smooth="yes"/>
			<point x="-438" y="19"/>
			<point x="-405" y="-12"/>
		</contour>
		<contour>
			<point x="-282" y="343" type="curve" smooth="yes"/>
			<point x="-215" y="343"/>
			<point x="-181" y="370"/>
			<point x="-173" y="430" type="curve" smooth="yes"/>
			<point x="-163" y="499"/>
			<point x="-196" y="529"/>
			<point x="-267" y="529" type="curve" smooth="yes"/>
			<point x="-335" y="529"/>
			<point x="-369" y="503"/>
			<point x="-377" y="443" type="curve" smooth="yes"/>
			<point x="-388" y="374"/>
			<point x="-355" y="343"/>
		</contour>
		<contour>
			<point x="117" y="-12" type="curve" smooth="yes"/>
			<point x="184" y="-12"/>
			<point x="218" y="15"/>
			<point x="226" y="75" type="curve" smooth="yes"/>
			<point x="236" y="144"/>
			<point x="203" y="174"/>
			<point x="132" y="174" type="curve" smooth="yes"/>
			<point x="64" y="174"/>
			<point x="30" y="148"/>
			<point x="22" y="88" type="curve" smooth="yes"/>
			<point x="11" y="19"/>
			<point x="44" y="-12"/>
		</contour>
		<contour>
			<point x="167" y="343" type="curve" smooth="yes"/>
			<point x="234" y="343"/>
			<point x="268" y="370"/>
			<point x="276" y="430" type="curve" smooth="yes"/>
			<point x="286" y="499"/>
			<point x="253" y="529"/>
			<point x="182" y="529" type="curve" smooth="yes"/>
			<point x="114" y="529"/>
			<point x="80" y="503"/>
			<point x="72" y="443" type="curve" smooth="yes"/>
			<point x="61" y="374"/>
			<point x="94" y="343"/>
		</contour>
	</outline>
</glyph>
<glyph name="colon_colon_equal.cLig" format="2">
	<advance width="600"/>
	<outline>
		<contour>
			<point x="-831" y="339" type="curve" smooth="yes"/>
			<point x="-764" y="339"/>
			<point x="-730" y="366"/>
			<point x="-722" y="426" type="curve" smooth="yes"/>
			<point x="-712" y="495"/>
			<point x="-745" y="525"/>
			<point x="-816" y="525" type="curve" smooth="yes"/>
			<point x="-884" y="525"/>
			<point x="-918" y="499"/>
			<point x="-926" y="439" type="curve" smooth="yes"/>
			<point x="-937" y="370"/>
			<point x="-904" y="339"/>
		</contour>
		<contour>
			<point x="-437" y="339" type="curve" smooth="yes"/>
			<point x="-370" y="339"/>
			<point x="-336" y="366"/>
			<point x="-328" y="426" type="curve" smooth="yes"/>
			<point x="-318" y="495"/>
			<point x="-351" y="525"/>
			<point x="-422" y="525" type="curve" smooth="yes"/>
			<point x="-490" y="525"/>
			<point x="-524" y="499"/>
			<point x="-532" y="439" type="curve" smooth="yes"/>
			<point x="-543" y="370"/>
			<point x="-510" y="339"/>
		</contour>
		<contour>
			<point x="-122" y="340" type="line"/>
			<point x="384" y="340" type="line"/>
			<point x="401" y="464" type="line"/>
			<point x="-104" y="464" type="line"/>
		</contour>
		<contour>
			<point x="-153" y="116" type="line"/>
			<point x="353" y="116" type="line"/>
			<point x="370" y="240" type="line"/>
			<point x="-135" y="240" type="line"/>
		</contour>
		<contour>
			<point x="-872" y="45" type="curve" smooth="yes"/>
			<point x="-805" y="45"/>
			<point x="-771" y="72"/>
			<point x="-763" y="132" type="curve" smooth="yes"/>
			<point x="-753" y="201"/>
			<point x="-786" y="231"/>
			<point x="-857" y="231" type="curve" smooth="yes"/>
			<point x="-925" y="231"/>
			<point x="-959" y="205"/>
			<point x="-967" y="145" type="curve" smooth="yes"/>
			<point x="-978" y="76"/>
			<point x="-945" y="45"/>
		</contour>
		<contour>
			<point x="-478" y="45" type="curve" smooth="yes"/>
			<point x="-411" y="45"/>
			<point x="-377" y="72"/>
			<point x="-369" y="132" type="curve" smooth="yes"/>
			<point x="-359" y="201"/>
			<point x="-392" y="231"/>
			<point x="-463" y="231" type="curve" smooth="yes"/>
			<point x="-531" y="231"/>
			<point x="-565" y="205"/>
			<point x="-573" y="145" type="curve" smooth="yes"/>
			<point x="-584" y="76"/>
			<point x="-551" y="45"/>
		</contour>
	</outline>
</glyph>
<glyph name="colon_equal.med" format="2">
	<advance width="600"/>
	<outline>
		<contour>
			<point x="318" y="339" type="curve" smooth="yes"/>
			<point x="385" y="339"/>
			<point x="419" y="366"/>
			<point x="427" y="426" type="curve" smooth="yes"/>
			<point x="437" y="495"/>
			<point x="404" y="525"/>
			<point x="333" y="525" type="curve" smooth="yes"/>
			<point x="265" y="525"/>
			<point x="231" y="499"/>
			<point x="223" y="439" type="curve" smooth="yes"/>
			<point x="212" y="370"/>
			<point x="245" y="339"/>
		</contour>
		<contour>
			<point x="518" y="367" type="line"/>
			<point x="615" y="367" type="line"/>
			<point x="632" y="491" type="line"/>
			<point x="536" y="491" type="line"/>
		</contour>
		<contour>
			<point x="15" y="367" type="line"/>
			<point x="111" y="367" type="line"/>
			<point x="129" y="491" type="line"/>
			<point x="32" y="491" type="line"/>
		</contour>
		<contour>
			<point x="487" y="143" type="line"/>
			<point x="584" y="143" type="line"/>
			<point x="601" y="267" type="line"/>
			<point x="504" y="267" type="line"/>
		</contour>
		<contour>
			<point x="-16" y="143" type="line"/>
			<point x="80" y="143" type="line"/>
			<point x="97" y="267" type="line"/>
			<point x="1" y="267" type="line"/>
		</contour>
		<contour>
			<point x="277" y="45" type="curve" smooth="yes"/>
			<point x="344" y="45"/>
			<point x="378" y="72"/>
			<point x="386" y="132" type="curve" smooth="yes"/>
			<point x="396" y="201"/>
			<point x="363" y="231"/>
			<point x="292" y="231" type="curve" smooth="yes"/>
			<point x="224" y="231"/>
			<point x="190" y="205"/>
			<point x="182" y="145" type="curve" smooth="yes"/>
			<point x="171" y="76"/>
			<point x="204" y="45"/>
		</contour>
	</outline>
</glyph>
<glyph name="colon_greater.cLig.x" format="2">
	<advance width="600"/>
	<outline>
		<contour>
			<point x="51" y="640" type="line"/>
			<point x="30" y="500" type="line"/>
			<point x="343" y="321" type="line"/>
			<point x="-20" y="143" type="line"/>
			<point x="-41" y="-10" type="line"/>
			<point x="443" y="234" type="line"/>
			<point x="466" y="397" type="line"/>
		</contour>
		<contour>
			<point x="-275" y="392" type="curve" smooth="yes"/>
			<point x="-208" y="392"/>
			<point x="-174" y="419"/>
			<point x="-166" y="479" type="curve" smooth="yes"/>
			<point x="-156" y="548"/>
			<point x="-189" y="578"/>
			<point x="-260" y="578" type="curve" smooth="yes"/>
			<point x="-328" y="578"/>
			<point x="-362" y="552"/>
			<point x="-370" y="492" type="curve" smooth="yes"/>
			<point x="-381" y="423"/>
			<point x="-348" y="392"/>
		</contour>
		<contour>
			<point x="-325" y="37" type="curve" smooth="yes"/>
			<point x="-258" y="37"/>
			<point x="-224" y="64"/>
			<point x="-216" y="124" type="curve" smooth="yes"/>
			<point x="-206" y="193"/>
			<point x="-239" y="223"/>
			<point x="-310" y="223" type="curve" smooth="yes"/>
			<point x="-378" y="223"/>
			<point x="-412" y="197"/>
			<point x="-420" y="137" type="curve" smooth="yes"/>
			<point x="-431" y="68"/>
			<point x="-398" y="37"/>
		</contour>
	</outline>
</glyph>
<glyph name="dotbelow" format="2">
	<advance width="600"/>
	<outline>
		<contour>
			<point x="239" y="-202" type="curve" smooth="yes"/>
			<point x="301" y="-202"/>
			<point x="325" y="-177"/>
			<point x="332" y="-125" type="curve" smooth="yes"/>
			<point x="338" y="-71"/>
			<point x="314" y="-43"/>
			<point x="251" y="-43" type="curve" smooth="yes"/>
			<point x="193" y="-43"/>
			<point x="165" y="-65"/>
			<point x="158" y="-119" type="curve" smooth="yes"/>
			<point x="152" y="-174"/>
			<point x="175" y="-202"/>
		</contour>
	</outline>
	<anchor name="bottom" x="263" y="0"/>
</glyph>
<glyph name="eight.den" format="2">
	<advance width="600"/>
	<outline>
		<contour>
			<point x="272" y="-8" type="curve" smooth="yes"/>
			<point x="388" y="-8"/>
			<point x="446" y="44"/>
			<point x="446" y="119" type="curve" smooth="yes"/>
			<point x="446" y="169"/>
			<point x="415" y="195"/>
			<point x="367" y="207" type="curve"/>
			<point x="424" y="218"/>
			<point x="466" y="253"/>
			<point x="466" y="315" type="curve" smooth="yes"/>
			<point x="466" y="383"/>
			<point x="410" y="418"/>
			<point x="310" y="418" type="curve" smooth="yes"/>
			<point x="212" y="418"/>
			<point x="147" y="376"/>
			<point x="147" y="297" type="curve" smooth="yes"/>
			<point x="147" y="251"/>
			<point x="174" y="222"/>
			<point x="220" y="212" type="curve"/>
			<point x="154" y="203"/>
			<point x="111" y="166"/>
			<point x="111" y="100" type="curve" smooth="yes"/>
			<point x="111" y="24"/>
			<point x="178" y="-8"/>
		</contour>
		<contour>
			<point x="302" y="241" type="curve" smooth="yes"/>
			<point x="266" y="241"/>
			<point x="243" y="259"/>
			<point x="243" y="290" type="curve" smooth="yes"/>
			<point x="243" y="329"/>
			<point x="265" y="349"/>
			<point x="310" y="349" type="curve" smooth="yes"/>
			<point x="347" y="349"/>
			<point x="371" y="334"/>
			<point x="371" y="301" type="curve" smooth="yes"/>
			<point x="371" y="262"/>
			<point x="346" y="241"/>
		</contour>
		<contour>
			<point x="275" y="63" type="curve" smooth="yes"/>
			<point x="238" y="63"/>
			<point x="211" y="80"/>
			<point x="211" y="115" type="curve" smooth="yes"/>
			<point x="211" y="155"/>
			<point x="235" y="176"/>
			<point x="282" y="176" type="curve" smooth="yes"/>
			<point x="323" y="176"/>
			<point x="346" y="160"/>
			<point x="346" y="127" type="curve" smooth="yes"/>
			<point x="346" y="87"/>
			<point x="321" y="63"/>
		</contour>
	</outline>
</glyph>
<glyph name="equal.init" format="2">
	<advance width="600"/>
	<outline>
		<contour>
			<point x="174" y="365" type="line"/>
			<point x="614" y="365" type="line"/>
			<point x="632" y="488" type="line"/>
			<point x="192" y="488" type="line"/>
		</contour>
		<contour>
			<point x="142" y="141" type="line"/>
			<point x="582" y="141" type="line"/>
			<point x="600" y="264" type="line"/>
			<point x="160" y="264" type="line"/>
		</contour>
	</outline>
</glyph>
<glyph name="equal.med" format="2">
	<advance width="600"/>
	<outline>
		<contour>
			<point x="14" y="365" type="line"/>
			<point x="614" y="365" type="line"/>
			<point x="632" y="488" type="line"/>
			<point x="32" y="488" type="line"/>
		</contour>
		<contour>
			<point x="-17" y="141" type="line"/>
			<point x="582" y="141" type="line"/>
			<point x="600" y="264" type="line"/>
			<point x="0" y="264" type="line"/>
		</contour>
	</outline>
</glyph>
<glyph name="equal_bar.rem" format="2">
	<advance width="600"/>
	<outline>
		<contour>
			<point x="335" y="-55" type="line"/>
			<point x="439" y="684" type="line"/>
			<point x="301" y="684" type="line"/>
			<point x="274" y="488" type="line"/>
			<point x="-408" y="488" type="line"/>
			<point x="-426" y="365" type="line"/>
			<point x="256" y="365" type="line"/>
			<point x="242" y="264" type="line"/>
			<point x="-440" y="264" type="line"/>
			<point x="-458" y="141" type="line"/>
			<point x="225" y="141" type="line"/>
			<point x="197" y="-55" type="line"/>
		</contour>
	</outline>
</glyph>
<glyph name="equal_colon_equal.rem" format="2">
	<advance width="600"/>
	<outline>
		<contour>
			<point x="-283" y="339" type="curve" smooth="yes"/>
			<point x="-216" y="339"/>
			<point x="-182" y="366"/>
			<point x="-174" y="426" type="curve" smooth="yes"/>
			<point x="-164" y="495"/>
			<point x="-197" y="525"/>
			<point x="-268" y="525" type="curve" smooth="yes"/>
			<point x="-336" y="525"/>
			<point x="-370" y="499"/>
			<point x="-378" y="439" type="curve" smooth="yes"/>
			<point x="-389" y="370"/>
			<point x="-356" y="339"/>
		</contour>
		<contour>
			<point x="-34" y="340" type="line"/>
			<point x="450" y="340" type="line"/>
			<point x="468" y="464" type="line"/>
			<point x="-16" y="464" type="line"/>
		</contour>
		<contour>
			<point x="-1029" y="340" type="line"/>
			<point x="-545" y="340" type="line"/>
			<point x="-528" y="464" type="line"/>
			<point x="-1012" y="464" type="line"/>
		</contour>
		<contour>
			<point x="-1060" y="116" type="line"/>
			<point x="-576" y="116" type="line"/>
			<point x="-559" y="240" type="line"/>
			<point x="-1043" y="240" type="line"/>
		</contour>
		<contour>
			<point x="-65" y="116" type="line"/>
			<point x="419" y="116" type="line"/>
			<point x="437" y="240" type="line"/>
			<point x="-47" y="240" type="line"/>
		</contour>
		<contour>
			<point x="-324" y="45" type="curve" smooth="yes"/>
			<point x="-257" y="45"/>
			<point x="-223" y="72"/>
			<point x="-215" y="132" type="curve" smooth="yes"/>
			<point x="-205" y="201"/>
			<point x="-238" y="231"/>
			<point x="-309" y="231" type="curve" smooth="yes"/>
			<point x="-377" y="231"/>
			<point x="-411" y="205"/>
			<point x="-419" y="145" type="curve" smooth="yes"/>
			<point x="-430" y="76"/>
			<point x="-397" y="45"/>
		</contour>
	</outline>
</glyph>
<glyph name="equal_equal_equal.cLig" format="2">
	<advance width="600"/>
	<outline>
		<contour>
			<point x="-1021" y="464" type="line"/>
			<point x="479" y="464" type="line"/>
			<point x="494" y="578" type="line"/>
			<point x="-1005" y="578" type="line"/>
		</contour>
		<contour>
			<point x="-1051" y="256" type="line"/>
			<point x="449" y="256" type="line"/>
			<point x="465" y="370" type="line"/>
			<point x="-1035" y="370" type="line"/>
		</contour>
		<contour>
			<point x="-1080" y="48" type="line"/>
			<point x="420" y="48" type="line"/>
			<point x="436" y="162" type="line"/>
			<point x="-1064" y="162" type="line"/>
		</contour>
	</outline>
</glyph>
<glyph name="equal_equal_greater.rem" format="2">
	<advance width="600"/>
	<outline>
		<contour>
			<point x="-1057" y="141" type="line"/>
			<point x="149" y="141" type="line"/>
			<point x="12" y="0" type="line"/>
			<point x="184" y="0" type="line"/>
			<point x="484" y="311" type="line"/>
			<point x="259" y="629" type="line"/>
			<point x="101" y="629" type="line"/>
			<point x="200" y="488" type="line"/>
			<point x="-1007" y="488" type="line"/>
			<point x="-1025" y="365" type="line"/>
			<point x="288" y="365" type="line"/>
			<point x="321" y="317" type="line"/>
			<point x="270" y="264" type="line"/>
			<point x="-1039" y="264" type="line"/>
		</contour>
	</outline>
</glyph>
<glyph name="equal_exclam_equal.rem" format="2">
	<advance width="600"/>
	<outline>
		<contour>
			<point x="-359" y="230" type="line"/>
			<point x="-253" y="230" type="line"/>
			<point x="-180" y="559" type="line"/>
			<point x="-162" y="684" type="line"/>
			<point x="-323" y="684" type="line"/>
			<point x="-341" y="559" type="line"/>
		</contour>
		<contour>
			<point x="-34" y="340" type="line"/>
			<point x="450" y="340" type="line"/>
			<point x="468" y="464" type="line"/>
			<point x="-16" y="464" type="line"/>
		</contour>
		<contour>
			<point x="-1029" y="340" type="line"/>
			<point x="-545" y="340" type="line"/>
			<point x="-528" y="464" type="line"/>
			<point x="-1012" y="464" type="line"/>
		</contour>
		<contour>
			<point x="-1060" y="116" type="line"/>
			<point x="-576" y="116" type="line"/>
			<point x="-559" y="240" type="line"/>
			<point x="-1043" y="240" type="line"/>
		</contour>
		<contour>
			<point x="-65" y="116" type="line"/>
			<point x="419" y="116" type="line"/>
			<point x="437" y="240" type="line"/>
			<point x="-47" y="240" type="line"/>
		</contour>
		<contour>
			<point x="-333" y="-12" type="curve" smooth="yes"/>
			<point x="-271" y="-12"/>
			<point x="-241" y="11"/>
			<point x="-234" y="65" type="curve" smooth="yes"/>
			<point x="-224" y="129"/>
			<point x="-257" y="157"/>
			<point x="-321" y="157" type="curve" smooth="yes"/>
			<point x="-383" y="157"/>
			<point x="-413" y="134"/>
			<point x="-421" y="81" type="curve" smooth="yes"/>
			<point x="-430" y="16"/>
			<point x="-397" y="-12"/>
		</contour>
	</outline>
</glyph>
<glyph name="equal_greater.rem" format="2">
	<advance width="600"/>
	<outline>
		<contour>
			<point x="-458" y="141" type="line"/>
			<point x="159" y="141" type="line"/>
			<point x="22" y="0" type="line"/>
			<point x="194" y="0" type="line"/>
			<point x="493" y="311" type="line"/>
			<point x="269" y="629" type="line"/>
			<point x="111" y="629" type="line"/>
			<point x="210" y="488" type="line"/>
			<point x="-408" y="488" type="line"/>
			<point x="-426" y="365" type="line"/>
			<point x="297" y="365" type="line"/>
			<point x="331" y="317" type="line"/>
			<point x="280" y="264" type="line"/>
			<point x="-440" y="264" type="line"/>
		</contour>
	</outline>
</glyph>
<glyph name="equal_less_less.rem" format="2">
	<advance width="600"/>
	<outline>
		<contour>
			<point x="561" y="629" type="line"/>
			<point x="386" y="629" type="line"/>
			<point x="79" y="316" type="line"/>
			<point x="310" y="0" type="line"/>
			<point x="474" y="0" type="line"/>
			<point x="247" y="308" type="line"/>
		</contour>
		<contour>
			<point x="172" y="629" type="line"/>
			<point x="-1" y="629" type="line"/>
			<point x="-136" y="488" type="line"/>
			<point x="-1008" y="488" type="line"/>
			<point x="-1026" y="365" type="line"/>
			<point x="-255" y="365" type="line"/>
			<point x="-78" y="364" type="line"/>
		</contour>
		<contour>
			<point x="-92" y="265" type="line"/>
			<point x="-254" y="264" type="line"/>
			<point x="-1040" y="264" type="line"/>
			<point x="-1058" y="141" type="line"/>
			<point x="-169" y="141" type="line"/>
			<point x="-72" y="0" type="line"/>
			<point x="87" y="0" type="line"/>
		</contour>
	</outline>
</glyph>
<glyph name="exclam_equal.med" format="2">
	<advance width="600"/>
	<outline>
		<contour>
			<point x="242" y="230" type="line"/>
			<point x="348" y="230" type="line"/>
			<point x="421" y="559" type="line"/>
			<point x="439" y="684" type="line"/>
			<point x="278" y="684" type="line"/>
			<point x="260" y="559" type="line"/>
		</contour>
		<contour>
			<point x="517" y="367" type="line"/>
			<point x="614" y="367" type="line"/>
			<point x="632" y="491" type="line"/>
			<point x="535" y="491" type="line"/>
		</contour>
		<contour>
			<point x="15" y="367" type="line"/>
			<point x="111" y="367" type="line"/>
			<point x="128" y="491" type="line"/>
			<point x="32" y="491" type="line"/>
		</contour>
		<contour>
			<point x="486" y="143" type="line"/>
			<point x="583" y="143" type="line"/>
			<point x="601" y="267" type="line"/>
			<point x="504" y="267" type="line"/>
		</contour>
		<contour>
			<point x="-17" y="143" type="line"/>
			<point x="80" y="143" type="line"/>
			<point x="97" y="267" type="line"/>
			<point x="1" y="267" type="line"/>
		</contour>
		<contour>
			<point x="268" y="-12" type="curve" smooth="yes"/>
			<point x="330" y="-12"/>
			<point x="360" y="11"/>
			<point x="367" y="65" type="curve" smooth="yes"/>
			<point x="377" y="129"/>
			<point x="344" y="157"/>
			<point x="280" y="157" type="curve" smooth="yes"/>
			<point x="218" y="157"/>
			<point x="188" y="134"/>
			<point x="180" y="81" type="curve" smooth="yes"/>
			<point x="171" y="16"/>
			<point x="204" y="-12"/>
		</contour>
	</outline>
</glyph>
<glyph name="exclam_exclam.cLig" format="2">
	<advance width="600"/>
	<outline>
		<contour>
			<point x="-285" y="230" type="line"/>
			<point x="-179" y="230" type="line"/>
			<point x="-106" y="559" type="line"/>
			<point x="-88" y="684" type="line"/>
			<point x="-249" y="684" type="line"/>
			<point x="-267" y="559" type="line"/>
		</contour>
		<contour>
			<point x="-259" y="-12" type="curve" smooth="yes"/>
			<point x="-197" y="-12"/>
			<point x="-167" y="11"/>
			<point x="-160" y="65" type="curve" smooth="yes"/>
			<point x="-150" y="129"/>
			<point x="-183" y="157"/>
			<point x="-247" y="157" type="curve" smooth="yes"/>
			<point x="-309" y="157"/>
			<point x="-339" y="134"/>
			<point x="-347" y="81" type="curve" smooth="yes"/>
			<point x="-356" y="16"/>
			<point x="-323" y="-12"/>
		</contour>
		<contour>
			<point x="169" y="230" type="line"/>
			<point x="275" y="230" type="line"/>
			<point x="348" y="559" type="line"/>
			<point x="366" y="684" type="line"/>
			<point x="205" y="684" type="line"/>
			<point x="187" y="559" type="line"/>
		</contour>
		<contour>
			<point x="195" y="-12" type="curve" smooth="yes"/>
			<point x="257" y="-12"/>
			<point x="287" y="11"/>
			<point x="294" y="65" type="curve" smooth="yes"/>
			<point x="304" y="129"/>
			<point x="271" y="157"/>
			<point x="207" y="157" type="curve" smooth="yes"/>
			<point x="145" y="157"/>
			<point x="115" y="134"/>
			<point x="107" y="81" type="curve" smooth="yes"/>
			<point x="98" y="16"/>
			<point x="131" y="-12"/>
		</contour>
	</outline>
</glyph>
<glyph name="exclam_exclam_exclam.rem" format="2">
	<advance width="600"/>
	<outline>
		<contour>
			<point x="-837" y="230" type="line"/>
			<point x="-731" y="230" type="line"/>
			<point x="-658" y="559" type="line"/>
			<point x="-640" y="684" type="line"/>
			<point x="-801" y="684" type="line"/>
			<point x="-819" y="559" type="line"/>
		</contour>
		<contour>
			<point x="-811" y="-12" type="curve" smooth="yes"/>
			<point x="-749" y="-12"/>
			<point x="-719" y="11"/>
			<point x="-712" y="65" type="curve" smooth="yes"/>
			<point x="-702" y="129"/>
			<point x="-735" y="157"/>
			<point x="-799" y="157" type="curve" smooth="yes"/>
			<point x="-861" y="157"/>
			<point x="-891" y="134"/>
			<point x="-899" y="81" type="curve" smooth="yes"/>
			<point x="-908" y="16"/>
			<point x="-875" y="-12"/>
		</contour>
		<contour>
			<point x="-357" y="230" type="line"/>
			<point x="-251" y="230" type="line"/>
			<point x="-178" y="559" type="line"/>
			<point x="-160" y="684" type="line"/>
			<point x="-321" y="684" type="line"/>
			<point x="-339" y="559" type="line"/>
		</contour>
		<contour>
			<point x="-331" y="-12" type="curve" smooth="yes"/>
			<point x="-269" y="-12"/>
			<point x="-239" y="11"/>
			<point x="-232" y="65" type="curve" smooth="yes"/>
			<point x="-222" y="129"/>
			<point x="-255" y="157"/>
			<point x="-319" y="157" type="curve" smooth="yes"/>
			<point x="-381" y="157"/>
			<point x="-411" y="134"/>
			<point x="-419" y="81" type="curve" smooth="yes"/>
			<point x="-428" y="16"/>
			<point x="-395" y="-12"/>
		</contour>
		<contour>
			<point x="123" y="230" type="line"/>
			<point x="229" y="230" type="line"/>
			<point x="302" y="559" type="line"/>
			<point x="320" y="684" type="line"/>
			<point x="159" y="684" type="line"/>
			<point x="141" y="559" type="line"/>
		</contour>
		<contour>
			<point x="149" y="-12" type="curve" smooth="yes"/>
			<point x="211" y="-12"/>
			<point x="241" y="11"/>
			<point x="248" y="65" type="curve" smooth="yes"/>
			<point x="258" y="129"/>
			<point x="225" y="157"/>
			<point x="161" y="157" type="curve" smooth="yes"/>
			<point x="99" y="157"/>
			<point x="69" y="134"/>
			<point x="61" y="81" type="curve" smooth="yes"/>
			<point x="52" y="16"/>
			<point x="85" y="-12"/>
		</contour>
	</outline>
</glyph>
<glyph name="five.numr" format="2">
	<advance width="600"/>
	<outline>
		<contour>
			<point x="313" y="366" type="curve" smooth="yes"/>
			<point x="405" y="366"/>
			<point x="463" y="421"/>
			<point x="462" y="501" type="curve" smooth="yes"/>
			<point x="462" y="559"/>
			<point x="427" y="587"/>
			<point x="353" y="587" type="curve" smooth="yes"/>
			<point x="338" y="587"/>
			<point x="325" y="586"/>
			<point x="313" y="584" type="curve"/>
			<point x="322" y="648" type="line"/>
			<point x="474" y="648" type="line"/>
			<point x="483" y="718" type="line"/>
			<point x="251" y="718" type="line"/>
			<point x="222" y="515" type="line"/>
			<point x="257" y="523"/>
			<point x="281" y="526"/>
			<point x="306" y="526" type="curve" smooth="yes"/>
			<point x="355" y="526"/>
			<point x="372" y="515"/>
			<point x="373" y="487" type="curve" smooth="yes"/>
			<point x="373" y="455"/>
			<point x="352" y="436"/>
			<point x="310" y="436" type="curve" smooth="yes"/>
			<point x="277" y="436"/>
			<point x="238" y="446"/>
			<point x="203" y="469" type="curve"/>
			<point x="193" y="398" type="line"/>
			<point x="217" y="381"/>
			<point x="260" y="366"/>
		</contour>
	</outline>
</glyph>
<glyph name="four.den" format="2">
	<advance width="600"/>
	<outline>
		<contour>
			<point x="286" y="0" type="line"/>
			<point x="382" y="0" type="line"/>
			<point x="393" y="71" type="line"/>
			<point x="433" y="71" type="line"/>
			<point x="443" y="149" type="line"/>
			<point x="403" y="149" type="line"/>
			<point x="440" y="411" type="line"/>
			<point x="289" y="411" type="line"/>
			<point x="112" y="149" type="line"/>
			<point x="101" y="72" type="line"/>
			<point x="297" y="72" type="line"/>
		</contour>
		<contour>
			<point x="203" y="149" type="line"/>
			<point x="335" y="348" type="line"/>
			<point x="307" y="149" type="line"/>
		</contour>
	</outline>
</glyph>
<glyph name="g.ss01" format="2">
	<advance width="600"/>
	<outline>
		<contour>
			<point x="215" y="-204" type="curve" smooth="yes"/>
			<point x="354" y="-204"/>
			<point x="477" y="-145"/>
			<point x="503" y="41" type="curve" smooth="yes"/>
			<point x="571" y="523" type="line"/>
			<point x="368" y="523" type="line" smooth="yes"/>
			<point x="186" y="523"/>
			<point x="74" y="435"/>
			<point x="51" y="275" type="curve" smooth="yes"/>
			<point x="49" y="261" type="line" smooth="yes"/>
			<point x="28" y="113"/>
			<point x="85" y="15"/>
			<point x="205" y="15" type="curve" smooth="yes"/>
			<point x="269" y="15"/>
			<point x="325" y="48"/>
			<point x="368" y="119" type="curve"/>
			<point x="359" y="58" type="line" smooth="yes"/>
			<point x="345" y="-44"/>
			<point x="293" y="-89"/>
			<point x="203" y="-89" type="curve" smooth="yes"/>
			<point x="134" y="-89"/>
			<point x="79" y="-63"/>
			<point x="41" y="-34" type="curve"/>
			<point x="24" y="-152" type="line"/>
			<point x="64" y="-179"/>
			<point x="132" y="-204"/>
		</contour>
		<contour>
			<point x="279" y="126" type="curve" smooth="yes"/>
			<point x="214" y="126"/>
			<point x="187" y="182"/>
			<point x="199" y="267" type="curve" smooth="yes"/>
			<point x="200" y="274" type="line" smooth="yes"/>
			<point x="213" y="366"/>
			<point x="266" y="409"/>
			<point x="356" y="409" type="curve" smooth="yes"/>
			<point x="408" y="409" type="line"/>
			<point x="384" y="241" type="line" smooth="yes"/>
			<point x="374" y="170"/>
			<point x="336" y="126"/>
		</contour>
	</outline>
	<anchor name="top" x="364" y="523"/>
</glyph>
<glyph name="greater_equal.med" format="2">
	<advance width="600"/>
	<outline>
		<contour>
			<point x="56" y="0" type="line"/>
			<point x="233" y="0" type="line"/>
			<point x="368" y="141" type="line"/>
			<point x="582" y="141" type="line"/>
			<point x="600" y="264" type="line"/>
			<point x="487" y="264" type="line"/>
			<point x="532" y="311" type="line"/>
			<point x="494" y="365" type="line"/>
			<point x="614" y="365" type="line"/>
			<point x="632" y="488" type="line"/>
			<point x="406" y="488" type="line"/>
			<point x="306" y="629" type="line"/>
			<point x="143" y="629" type="line"/>
			<point x="243" y="488" type="line"/>
			<point x="32" y="488" type="line"/>
			<point x="14" y="365" type="line"/>
			<point x="331" y="365" type="line"/>
			<point x="365" y="317" type="line"/>
			<point x="314" y="264" type="line"/>
			<point x="0" y="264" type="line"/>
			<point x="-17" y="141" type="line"/>
			<point x="193" y="141" type="line"/>
		</contour>
	</outline>
</glyph>
<glyph name="greater_greater_equal.fina" format="2">
	<advance width="600"/>
	<outline>
		<contour>
			<point x="28" y="0" type="line"/>
			<point x="204" y="0" type="line"/>
			<point x="497" y="313" type="line"/>
			<point x="267" y="629" type="line"/>
			<point x="105" y="629" type="line"/>
			<point x="328" y="318" type="line"/>
		</contour>
		<contour>
			<point x="-617" y="141" type="line"/>
			<point x="-226" y="141" type="line"/>
			<point x="-363" y="0" type="line"/>
			<point x="-192" y="0" type="line"/>
			<point x="108" y="311" type="line"/>
			<point x="-116" y="629" type="line"/>
			<point x="-274" y="629" type="line"/>
			<point x="-175" y="488" type="line"/>
			<point x="-567" y="488" type="line"/>
			<point x="-585" y="365" type="line"/>
			<point x="-88" y="365" type="line"/>
			<point x="-54" y="317" type="line"/>
			<point x="-105" y="264" type="line"/>
			<point x="-599" y="264" type="line"/>
		</contour>
	</outline>
</glyph>
<glyph name="greater_greater_equal.init" format="2">
	<advance width="600"/>
	<outline>
		<contour>
			<point x="-566" y="0" type="line"/>
			<point x="-391" y="0" type="line"/>
			<point x="-84" y="313" type="line"/>
			<point x="-315" y="629" type="line"/>
			<point x="-479" y="629" type="line"/>
			<point x="-252" y="321" type="line"/>
		</contour>
		<contour>
			<point x="87" y="364" type="line"/>
			<point x="249" y="365" type="line"/>
			<point x="614" y="365" type="line"/>
			<point x="632" y="488" type="line"/>
			<point x="164" y="488" type="line"/>
			<point x="67" y="629" type="line"/>
			<point x="-92" y="629" type="line"/>
		</contour>
		<contour>
			<point x="-177" y="0" type="line"/>
			<point x="-4" y="0" type="line"/>
			<point x="131" y="141" type="line"/>
			<point x="582" y="141" type="line"/>
			<point x="600" y="264" type="line"/>
			<point x="250" y="264" type="line"/>
			<point x="73" y="265" type="line"/>
		</contour>
	</outline>
</glyph>
<glyph name="greater_greater_greater.cLig" format="2">
	<advance width="600"/>
	<outline>
		<contour>
			<point x="-1149" y="17" type="line"/>
			<point x="-652" y="214" type="line"/>
			<point x="-630" y="376" type="line"/>
			<point x="-1070" y="575" type="line"/>
			<point x="-1089" y="438" type="line"/>
			<point x="-760" y="298" type="line"/>
			<point x="-1128" y="161" type="line"/>
		</contour>
		<contour>
			<point x="-567" y="17" type="line"/>
			<point x="-70" y="214" type="line"/>
			<point x="-48" y="376" type="line"/>
			<point x="-488" y="575" type="line"/>
			<point x="-507" y="438" type="line"/>
			<point x="-178" y="298" type="line"/>
			<point x="-546" y="161" type="line"/>
		</contour>
		<contour>
			<point x="14" y="17" type="line"/>
			<point x="511" y="214" type="line"/>
			<point x="533" y="376" type="line"/>
			<point x="93" y="575" type="line"/>
			<point x="74" y="438" type="line"/>
			<point x="403" y="298" type="line"/>
			<point x="35" y="161" type="line"/>
		</contour>
	</outline>
</glyph>
<glyph name="greater_greater_hyphen.fina" format="2">
	<advance width="600"/>
	<outline>
		<contour>
			<point x="23" y="0" type="line"/>
			<point x="199" y="0" type="line"/>
			<point x="497" y="314" type="line"/>
			<point x="269" y="629" type="line"/>
			<point x="108" y="629" type="line"/>
			<point x="327" y="322" type="line"/>
		</contour>
		<contour>
			<point x="120" y="314" type="line"/>
			<point x="-110" y="629" type="line"/>
			<point x="-270" y="629" type="line"/>
			<point x="-83" y="380" type="line"/>
			<point x="-584" y="380" type="line"/>
			<point x="-602" y="248" type="line"/>
			<point x="-109" y="248" type="line"/>
			<point x="-363" y="0" type="line"/>
			<point x="-193" y="0" type="line"/>
		</contour>
	</outline>
</glyph>
<glyph name="greater_greater_hyphen.init" format="2">
	<advance width="600"/>
	<outline>
		<contour>
			<point x="-551" y="0" type="line"/>
			<point x="-375" y="0" type="line"/>
			<point x="-78" y="314" type="line"/>
			<point x="-305" y="629" type="line"/>
			<point x="-465" y="629" type="line"/>
			<point x="-247" y="321" type="line"/>
		</contour>
		<contour>
			<point x="-166" y="0" type="line"/>
			<point x="10" y="0" type="line"/>
			<point x="246" y="248" type="line"/>
			<point x="598" y="248" type="line"/>
			<point x="616" y="380" type="line"/>
			<point x="260" y="380" type="line"/>
			<point x="80" y="629" type="line"/>
			<point x="-80" y="629" type="line"/>
			<point x="137" y="323" type="line"/>
		</contour>
	</outline>
</glyph>
<glyph name="hungarumlaut.cap" format="2">
	<advance width="600"/>
	<outline>
		<contour>
			<point x="367" y="744" type="line"/>
			<point x="464" y="744" type="line"/>
			<point x="568" y="884" type="line"/>
			<point x="436" y="884" type="line"/>
		</contour>
		<contour>
			<point x="187" y="744" type="line"/>
			<point x="285" y="744" type="line"/>
			<point x="388" y="884" type="line"/>
			<point x="256" y="884" type="line"/>
		</contour>
	</outline>
	<anchor name="_top" x="317" y="684"/>
</glyph>
<glyph name="hyphen_bar.rem" format="2">
	<advance width="600"/>
	<outline>
		<contour>
			<point x="302" y="684" type="line"/>
			<point x="259" y="380" type="line"/>
			<point x="-423" y="380" type="line"/>
			<point x="-442" y="248" type="line"/>
			<point x="240" y="248" type="line"/>
			<point x="198" y="-56" type="line"/>
			<point x="335" y="-56" type="line"/>
			<point x="439" y="684" type="line"/>
		</contour>
	</outline>
</glyph>
<glyph name="hyphen_bar_bar.rem" format="2">
	<advance width="600"/>
	<outline>
		<contour>
			<point x="57" y="683" type="line"/>
			<point x="-80" y="683" type="line"/>
			<point x="-123" y="380" type="line"/>
			<point x="-1024" y="380" type="line"/>
			<point x="-1042" y="248" type="line"/>
			<point x="-141" y="248" type="line"/>
			<point x="-184" y="-56" type="line"/>
			<point x="-47" y="-56" type="line"/>
		</contour>
		<contour>
			<point x="439" y="683" type="line"/>
			<point x="301" y="683" type="line"/>
			<point x="197" y="-56" type="line"/>
			<point x="335" y="-56" type="line"/>
		</contour>
	</outline>
</glyph>
<glyph name="hyphen_braceright.rem" format="2">
	<advance width="600"/>
	<outline>
		<contour>
			<point x="-71" y="-163" type="line"/>
			<point x="133" y="-163" type="line" smooth="yes"/>
			<point x="234" y="-163"/>
			<point x="301" y="-102"/>
			<point x="301" y="-17" type="curve" smooth="yes"/>
			<point x="301" y="67"/>
			<point x="232" y="128"/>
			<point x="232" y="186" type="curve" smooth="yes"/>
			<point x="232" y="226"/>
			<point x="259" y="254"/>
			<point x="328" y="254" type="curve" smooth="yes"/>
			<point x="411" y="254" type="line"/>
			<point x="428" y="378" type="line"/>
			<point x="356" y="378" type="line" smooth="yes"/>
			<point x="290" y="378"/>
			<point x="271" y="410"/>
			<point x="271" y="439" type="curve" smooth="yes"/>
			<point x="271" y="514"/>
			<point x="397" y="550"/>
			<point x="397" y="663" type="curve" smooth="yes"/>
			<point x="397" y="734"/>
			<point x="347" y="792"/>
			<point x="243" y="792" type="curve" smooth="yes"/>
			<point x="64" y="792" type="line"/>
			<point x="48" y="686" type="line"/>
			<point x="172" y="686" type="line" smooth="yes"/>
			<point x="219" y="686"/>
			<point x="243" y="669"/>
			<point x="243" y="634" type="curve" smooth="yes"/>
			<point x="243" y="564"/>
			<point x="121" y="532"/>
			<point x="121" y="448" type="curve" smooth="yes"/>
			<point x="121" y="408"/>
			<point x="152" y="387"/>
			<point x="195" y="377" type="curve"/>
			<point x="-422" y="377" type="line"/>
			<point x="-441" y="252" type="line"/>
			<point x="175" y="252" type="line"/>
			<point x="127" y="241"/>
			<point x="84" y="217"/>
			<point x="84" y="169" type="curve" smooth="yes"/>
			<point x="84" y="110"/>
			<point x="158" y="61"/>
			<point x="158" y="4" type="curve" smooth="yes"/>
			<point x="158" y="-41"/>
			<point x="128" y="-57"/>
			<point x="75" y="-57" type="curve" smooth="yes"/>
			<point x="-56" y="-57" type="line"/>
		</contour>
	</outline>
</glyph>
<glyph name="hyphen_greater.rem" format="2">
	<advance width="600"/>
	<outline>
		<contour>
			<point x="79" y="629" type="line"/>
			<point x="267" y="380" type="line"/>
			<point x="-424" y="380" type="line"/>
			<point x="-442" y="248" type="line"/>
			<point x="241" y="248" type="line"/>
			<point x="-14" y="0" type="line"/>
			<point x="157" y="0" type="line"/>
			<point x="469" y="314" type="line"/>
			<point x="240" y="629" type="line"/>
		</contour>
	</outline>
</glyph>
<glyph name="hyphen_hyphen.cLig" format="2">
	<advance width="600"/>
	<outline>
		<contour>
			<point x="-69" y="361" type="line"/>
			<point x="-430" y="361" type="line"/>
			<point x="-448" y="230" type="line"/>
			<point x="-87" y="230" type="line"/>
		</contour>
		<contour>
			<point x="456" y="361" type="line"/>
			<point x="95" y="361" type="line"/>
			<point x="77" y="230" type="line"/>
			<point x="438" y="230" type="line"/>
		</contour>
	</outline>
</glyph>
<glyph name="hyphen_hyphen_greater.rem" format="2">
	<advance width="600"/>
	<outline>
		<contour>
			<point x="470" y="314" type="line"/>
			<point x="240" y="629" type="line"/>
			<point x="80" y="629" type="line"/>
			<point x="267" y="380" type="line"/>
			<point x="-1024" y="380" type="line"/>
			<point x="-1042" y="248" type="line"/>
			<point x="241" y="248" type="line"/>
			<point x="-13" y="0" type="line"/>
			<point x="158" y="0" type="line"/>
		</contour>
	</outline>
</glyph>
<glyph name="hyphen_less.rem" format="2">
	<advance width="600"/>
	<outline>
		<contour>
			<point x="532" y="629" type="line"/>
			<point x="356" y="629" type="line"/>
			<point x="120" y="381" type="line"/>
			<point x="-459" y="381" type="line"/>
			<point x="-477" y="249" type="line"/>
			<point x="106" y="249" type="line"/>
			<point x="286" y="0" type="line"/>
			<point x="446" y="0" type="line"/>
			<point x="229" y="306" type="line"/>
		</contour>
	</outline>
</glyph>
<glyph name="hyphen_less_less.rem" format="2">
	<advance width="600"/>
	<outline>
		<contour>
			<point x="506" y="629" type="line"/>
			<point x="330" y="629" type="line"/>
			<point x="33" y="315" type="line"/>
			<point x="260" y="0" type="line"/>
			<point x="420" y="0" type="line"/>
			<point x="202" y="308" type="line"/>
		</contour>
		<contour>
			<point x="121" y="629" type="line"/>
			<point x="-55" y="629" type="line"/>
			<point x="-291" y="381" type="line"/>
			<point x="-1077" y="381" type="line"/>
			<point x="-1095" y="249" type="line"/>
			<point x="-305" y="249" type="line"/>
			<point x="-125" y="0" type="line"/>
			<point x="35" y="0" type="line"/>
			<point x="-182" y="306" type="line"/>
		</contour>
	</outline>
</glyph>
